<?xml version="1.0" encoding="UTF-8"?>
<!DOCTYPE svg PUBLIC "-//W3C//DTD SVG 1.1//EN" "http://www.w3.org/Graphics/SVG/1.1/DTD/svg11.dtd">
<!-- Creator: CorelDRAW X7 -->
<svg xmlns="http://www.w3.org/2000/svg" xml:space="preserve" width="6.10299in" height="0.713976in" version="1.1" style="shape-rendering:geometricPrecision; text-rendering:geometricPrecision; image-rendering:optimizeQuality; fill-rule:evenodd; clip-rule:evenodd"
viewBox="0 0 6103 714"
 xmlns:xlink="http://www.w3.org/1999/xlink">
 <defs>
  <style type="text/css">
   <![CDATA[
    .fil0 {fill:#FCD826;fill-rule:nonzero}
    .fil1 {fill:#334D86;fill-rule:nonzero}
   ]]>
  </style>
 </defs>
 <g id="Layer_x0020_1">
  <metadata id="CorelCorpID_0Corel-Layer"/>
  <g id="_883745920">
   <path class="fil0" d="M0 714l0 -645c448,217 784,26 1170,9 174,-8 357,20 566,134 731,402 888,-110 1413,-85 324,15 535,140 725,257 311,192 567,361 1179,-13 0,0 0,0 0,0 540,-330 866,-386 1050,-368l0 711 -6103 0 0 0z"/>
   <path class="fil1" d="M6103 714l0 -645c-448,217 -784,26 -1170,9 -174,-8 -357,20 -566,134 -731,402 -888,-110 -1413,-85 -324,15 -535,140 -725,257 -311,192 -567,361 -1179,-13 0,0 0,0 0,0 -540,-330 -866,-386 -1050,-368l0 711 6103 0 0 0z"/>
  </g>
 </g>
</svg>
