<?xml version="1.0" encoding="UTF-8"?>
<!DOCTYPE svg PUBLIC "-//W3C//DTD SVG 1.1//EN" "http://www.w3.org/Graphics/SVG/1.1/DTD/svg11.dtd">
<!-- Creator: CorelDRAW X7 -->
<svg xmlns="http://www.w3.org/2000/svg" xml:space="preserve" width="4.001in" height="4.001in" version="1.1" style="shape-rendering:geometricPrecision; text-rendering:geometricPrecision; image-rendering:optimizeQuality; fill-rule:evenodd; clip-rule:evenodd"
viewBox="0 0 4001 4001"
 xmlns:xlink="http://www.w3.org/1999/xlink">
 <defs>
  <style type="text/css">
   <![CDATA[
    .str0 {stroke:#FF8E1C;stroke-width:13.8898}
    .fil9 {fill:none;fill-rule:nonzero}
    .fil5 {fill:#0C2879;fill-rule:nonzero}
    .fil8 {fill:#52CFEB;fill-rule:nonzero}
    .fil2 {fill:#70504F;fill-rule:nonzero}
    .fil7 {fill:#7CE6FF;fill-rule:nonzero}
    .fil1 {fill:#835E5B;fill-rule:nonzero}
    .fil0 {fill:#BAE5F9;fill-rule:nonzero}
    .fil11 {fill:#ED831A;fill-rule:nonzero}
    .fil4 {fill:#F4D8A8;fill-rule:nonzero}
    .fil10 {fill:#FF8E1C;fill-rule:nonzero}
    .fil3 {fill:#FFE2AF;fill-rule:nonzero}
    .fil6 {fill:white;fill-rule:nonzero}
   ]]>
  </style>
 </defs>
 <g id="Layer_x0020_1">
  <metadata id="CorelCorpID_0Corel-Layer"/>
  <g id="_992813808">
   <path class="fil0" d="M4002 2001c0,1104 -897,2001 -2001,2001 -1105,0 -2001,-897 -2001,-2001 0,-1105 896,-2001 2001,-2001 1104,0 2001,896 2001,2001z"/>
   <path class="fil1" d="M2797 1126c0,-610 -498,-788 -796,-788 -300,0 -792,154 -792,788 0,619 -254,586 -234,938 32,555 510,684 1028,684 518,0 995,-129 1027,-684 20,-352 -233,-319 -233,-938z"/>
   <path class="fil2" d="M2797 1126c0,-290 -112,-482 -262,-603 97,118 162,282 162,502 0,620 187,625 167,976 -32,554 -444,647 -961,647 -308,0 -600,-45 -795,-198 182,234 529,298 895,298 518,0 995,-129 1027,-684 20,-352 -233,-319 -233,-938l0 0z"/>
   <path class="fil3" d="M2660 1223c0,397 -295,719 -659,719 -364,0 -660,-322 -660,-719 0,-397 296,-720 660,-720 364,0 659,323 659,720z"/>
   <polygon class="fil4" points="2146,2230 2004,2364 1855,2230 1855,1872 2146,1872 "/>
   <path class="fil4" d="M2394 646l-538 297c82,377 627,496 627,496 -112,241 -353,403 -583,403 -146,0 -282,-53 -393,-141 122,147 298,241 494,241 364,0 659,-322 659,-719 0,-236 -105,-446 -266,-577l0 0z"/>
   <g>
    <path class="fil1" d="M3527 3698c0,39 -31,70 -69,70l-2914 0c-39,0 -70,-31 -70,-70l0 -10c0,-39 31,-71 70,-71l2914 0c38,0 69,32 69,71l0 10z"/>
   </g>
   <path class="fil1" d="M2481 680c-176,-192 -419,-205 -594,-177 -178,30 -502,181 -548,610 0,0 309,9 517,-170 119,211 351,432 804,432 0,0 92,-397 -179,-695l0 0z"/>
   <path class="fil5" d="M2711 2277c-171,-41 -579,-176 -579,-176l-134 250 -122 -250c0,0 -467,138 -631,199 -149,56 -240,747 -295,1087 -14,95 189,232 189,232l859 0 832 0c0,0 229,-167 214,-250 -62,-341 -112,-1039 -333,-1092l0 0z"/>
   <path class="fil6" d="M1855 2050l-154 111c0,0 118,57 299,190l-145 -301z"/>
   <path class="fil6" d="M2148 2050l151 111c0,0 -126,57 -301,190l150 -301z"/>
   <g>
    <path class="fil5" d="M1244 1189c-1,-14 -8,-342 209,-565 125,-130 302,-196 524,-196 403,0 594,207 683,381 97,187 98,372 98,380l-30 0c0,-3 -1,-187 -95,-367 -124,-242 -345,-364 -656,-364 -214,0 -383,63 -504,187 -207,213 -200,540 -200,543l-29 1 0 0z"/>
   </g>
   <g>
    <path class="fil7" d="M2945 3436c0,39 -32,71 -71,71l-1747 0c-39,0 -70,-32 -70,-71l0 -955c0,-39 31,-71 70,-71l1747 0c39,0 71,32 71,71l0 955z"/>
    <path class="fil8" d="M2874 2410l-68 0c0,0 -157,1026 -1749,1026 0,39 31,71 70,71l1747 0c39,0 71,-32 71,-71l0 -955c0,-39 -32,-71 -71,-71z"/>
    <g>
     <path class="fil6" d="M2213 2959c0,116 -96,212 -212,212 -117,0 -212,-96 -212,-212 0,-117 95,-212 212,-212 116,0 212,95 212,212z"/>
     <g>
      <path class="fil9 str0" d="M2113 2959c0,61 -50,112 -112,112 -62,0 -112,-51 -112,-112 0,-63 50,-113 112,-113 62,0 112,50 112,113"/>
      <path class="fil9 str0" d="M2000 3033c-61,0 -112,-33 -112,-74 0,-42 51,-75 112,-75 62,0 112,33 112,75 0,41 -50,74 -112,74"/>
      <path class="fil9 str0" d="M2000 2983c-61,0 -112,-11 -112,-24 0,-14 51,-25 112,-25 62,0 112,11 112,25 0,13 -50,24 -112,24"/>
     </g>
     <g>
      <path class="fil9 str0" d="M1926 2959c0,-63 33,-113 75,-113 41,0 74,50 74,113 0,61 -33,112 -74,112 -42,0 -75,-51 -75,-112"/>
      <path class="fil9 str0" d="M1976 2959c0,-63 11,-113 25,-113 13,0 24,50 24,113 0,61 -11,112 -24,112 -14,0 -25,-51 -25,-112"/>
     </g>
    </g>
    <g>
     <g>
      <path class="fil6" d="M1567 3535c0,63 -15,18 -33,18l-273 0c-18,0 -33,36 -33,-18l0 -36c0,-18 15,-33 33,-33l273 0c18,0 33,15 33,33l0 36z"/>
      <path class="fil6" d="M2773 3554c0,18 -15,15 -33,15l-273 0c-18,0 -33,4 -33,-14l0 -56c0,-18 15,-33 33,-33l273 0c18,0 33,15 33,33l0 55z"/>
     </g>
     <path class="fil7" d="M2945 3576c0,23 -19,41 -42,41l-1805 0c-23,0 -41,-18 -41,-41 0,-23 18,-41 41,-41l1805 0c23,0 42,18 42,41z"/>
    </g>
   </g>
   <g>
    <path class="fil5" d="M1808 1850c-221,0 -381,-56 -476,-168 -115,-137 -89,-302 -88,-309l29 4c0,2 -24,161 82,286 89,104 242,157 453,157l0 30z"/>
   </g>
   <g>
    <g>
     <path class="fil10" d="M1336 1432c-110,0 -198,-89 -198,-198l0 -23c0,-109 88,-197 198,-197l0 418 0 0z"/>
     <path class="fil5" d="M1374 1439c0,23 -19,42 -44,42 -23,0 -42,-19 -42,-42l0 -431c0,-24 19,-44 42,-44 25,0 44,20 44,44l0 431z"/>
    </g>
    <g>
     <path class="fil10" d="M2666 1014c109,0 198,88 198,197l0 23c0,109 -89,198 -198,198l0 -418 0 0z"/>
     <path class="fil11" d="M2760 1038c27,34 44,77 44,124l0 22c0,88 -58,163 -138,189l0 59c109,0 198,-89 198,-198l0 -23c0,-74 -42,-140 -104,-173z"/>
     <path class="fil5" d="M2628 1008c0,-24 19,-44 43,-44 23,0 43,20 43,44l0 431c0,23 -20,42 -43,42 -24,0 -43,-19 -43,-42l0 -431z"/>
    </g>
   </g>
   <path class="fil5" d="M1926 1835c0,44 -35,79 -79,79 -44,0 -79,-35 -79,-79 0,-44 35,-80 79,-80 44,0 79,36 79,80z"/>
  </g>
 </g>
</svg>
