<?xml version="1.0" encoding="UTF-8"?>
<!DOCTYPE svg PUBLIC "-//W3C//DTD SVG 1.1//EN" "http://www.w3.org/Graphics/SVG/1.1/DTD/svg11.dtd">
<!-- Creator: CorelDRAW X7 -->
<svg xmlns="http://www.w3.org/2000/svg" xml:space="preserve" width="4.61333in" height="4.61333in" version="1.1" style="shape-rendering:geometricPrecision; text-rendering:geometricPrecision; image-rendering:optimizeQuality; fill-rule:evenodd; clip-rule:evenodd"
viewBox="0 0 4613 4613"
 xmlns:xlink="http://www.w3.org/1999/xlink">
 <defs>
  <style type="text/css">
   <![CDATA[
    .fil0 {fill:#BAE5F9;fill-rule:nonzero}
    .fil1 {fill:#00AFEF;fill-rule:nonzero}
    .fil5 {fill:#0020CE;fill-rule:nonzero}
    .fil6 {fill:#0022B6;fill-rule:nonzero}
    .fil21 {fill:#131016;fill-rule:nonzero}
    .fil20 {fill:#151319;fill-rule:nonzero}
    .fil4 {fill:#19171D;fill-rule:nonzero}
    .fil17 {fill:#1D1B22;fill-rule:nonzero}
    .fil11 {fill:#5A0BCE;fill-rule:nonzero}
    .fil10 {fill:#6F11E1;fill-rule:nonzero}
    .fil7 {fill:#A8A6E2;fill-rule:nonzero}
    .fil8 {fill:#C1BBF6;fill-rule:nonzero}
    .fil16 {fill:#C6D8D5;fill-rule:nonzero}
    .fil3 {fill:#CECEE9;fill-rule:nonzero}
    .fil12 {fill:#DDCAAF;fill-rule:nonzero}
    .fil18 {fill:#DDCBB1;fill-rule:nonzero}
    .fil2 {fill:#DEDDF1;fill-rule:nonzero}
    .fil15 {fill:#DFE5E4;fill-rule:nonzero}
    .fil9 {fill:#E6D5B8;fill-rule:nonzero}
    .fil14 {fill:#F64527;fill-rule:nonzero}
    .fil13 {fill:#FE5A3A;fill-rule:nonzero}
    .fil19 {fill:white;fill-rule:nonzero}
   ]]>
  </style>
 </defs>
 <g id="Layer_x0020_1">
  <metadata id="CorelCorpID_0Corel-Layer"/>
  <g id="_992833456">
   <g>
    <path class="fil0" d="M4014 3445c-18,-45 -38,-90 -58,-134 -21,-47 -42,-94 -62,-141 -51,-123 -90,-250 -123,-378 -11,-43 -21,-86 -30,-129 -9,-52 -17,-104 -24,-159 7,-60 9,-120 8,-180 -1,-60 -6,-119 -15,-177 -1,-40 -5,-79 -11,-118 7,-203 -2,-437 -83,-621 -17,-37 -36,-72 -59,-104 -125,-156 -319,-267 -514,-212 -255,61 -489,196 -751,233 -38,6 -76,9 -114,10 -52,-6 -93,7 -149,-6 -81,-7 -167,-27 -256,-51 -44,-13 -89,-27 -135,-41 -248,-75 -484,-172 -748,-145 -291,42 -458,334 -483,592 -8,47 -16,93 -23,140 -40,281 -55,568 -116,842 -10,45 -21,91 -34,136 -11,43 -22,88 -31,133 -83,411 -59,898 366,1095 48,25 98,47 150,65 156,54 323,77 475,63 35,0 72,11 110,27 39,16 78,36 115,54 41,15 82,30 124,44 293,94 603,131 911,145 124,5 248,7 371,-8 41,-5 82,-12 122,-20 128,-48 269,-66 404,-93 45,-10 90,-20 133,-32 269,-79 451,-306 516,-564 13,-52 21,-105 25,-158 -1,-36 -5,-72 -11,-108z"/>
   </g>
   <g>
    <path class="fil1" d="M3867 3599c98,-117 165,-254 126,-410 -16,-65 -32,-118 8,-178 19,-28 43,-53 56,-84 39,-90 0,-181 -42,-262 -31,-59 -65,-120 -80,-186 -15,-70 0,-141 -9,-212 -8,-69 -48,-143 -116,-154 -45,-8 -91,15 -124,46 -38,36 -64,85 -73,137 -12,71 7,148 -21,214 -25,58 -82,96 -119,148 -39,55 -54,126 -41,192 11,55 41,106 50,161 19,125 -68,247 -52,373 10,72 56,138 115,180 68,49 166,83 250,67 45,-8 85,-34 110,-73l-38 41z"/>
   </g>
   <g>
    <path class="fil2" d="M3725 3546c6,-30 6,-58 0,-80 -24,-73 -94,-122 -144,-177 -59,-64 -102,-148 -102,-235 -1,-72 -16,-131 -66,-186 -49,-53 -110,-92 -162,-142 -54,-53 -102,-110 -145,-173 -36,-53 -103,-132 -155,-44 -20,35 -27,77 -18,117 23,104 118,172 158,267 21,49 23,100 28,152 5,46 14,98 47,133 19,21 44,36 61,58 25,31 32,70 40,107 9,41 24,76 41,113 43,94 106,202 204,244 29,12 61,19 91,11 67,-18 109,-102 122,-165z"/>
   </g>
   <g>
    <g>
     <path class="fil0" d="M3575 2753c5,-3 10,-2 13,2l147 217 32 -564c0,-5 5,-8 10,-8 5,0 9,4 9,9l-24 412 180 -100c5,-2 10,0 13,4 2,5 1,10 -4,13l-189 103c0,1 -1,1 -1,1l-22 380 145 -74c5,-2 10,0 12,4 3,5 1,10 -4,13l-155 78 -17 308c-1,4 -4,8 -9,8 0,0 -1,0 -1,0 -5,0 -9,-4 -9,-9l32 -548 -160 -236c-3,-5 -2,-10 2,-13z"/>
    </g>
    <g>
     <path class="fil0" d="M4111 2897c30,-80 48,-138 57,-170 -14,-68 -36,-248 96,-275 72,38 94,173 -61,283 -10,35 -31,104 -67,199 110,-164 253,-146 296,-72 -25,161 -266,123 -313,114 -21,51 -46,109 -75,172 116,-118 239,-87 274,-15 -36,148 -245,107 -310,91 -29,57 -61,119 -98,184 151,-142 299,-95 335,-5 -56,175 -308,103 -378,79 -108,184 -248,389 -427,601l-27 -23c179,-213 318,-418 426,-602 -79,-47 -262,-175 -178,-322 90,-34 223,43 222,246 32,-57 61,-112 87,-164 -61,-37 -207,-138 -140,-254 69,-26 171,32 173,185 35,-72 63,-137 86,-195 -53,-29 -223,-136 -151,-259 71,-27 178,36 173,202z"/>
    </g>
    <g>
     <path class="fil0" d="M3212 3141c3,-4 8,-5 13,-3l165 97 -156 -340c-2,-4 0,-10 4,-12 5,-2 10,0 13,5l114 248 12 -210c0,-5 5,-9 10,-9 5,0 9,5 9,10l-14 239c0,1 -1,2 -2,4l150 324 31 -126c1,-5 6,-8 11,-7 5,1 8,6 7,11l-35 141c-1,2 -2,4 -3,5l28 62c2,4 0,10 -4,12 -1,0 -2,1 -4,1 -3,0 -7,-2 -9,-6l-149 -325c-2,0 -4,0 -5,-1l-183 -107c-4,-2 -6,-8 -3,-13z"/>
    </g>
   </g>
   <g>
    <path class="fil1" d="M3833 3614c-2,-21 -1,-41 6,-55 21,-49 73,-79 110,-113 46,-41 81,-96 87,-157 5,-49 20,-90 58,-124 37,-33 83,-56 122,-88 41,-33 78,-69 111,-109 29,-35 81,-85 111,-21 12,26 13,56 5,82 -23,71 -93,111 -128,175 -17,32 -22,68 -29,103 -7,32 -16,67 -42,89 -14,13 -32,22 -46,36 -19,20 -26,46 -35,72 -9,27 -21,51 -36,75 -35,62 -86,133 -157,155 -21,7 -43,9 -64,2 -45,-17 -68,-78 -73,-122z"/>
   </g>
   <g>
    <path class="fil3" d="M3921 3644l23 -40c-1,-1 -1,-2 -1,-3l-15 -100c-1,-5 3,-10 8,-11 5,0 10,3 10,8l12 82 121 -207c-1,-1 -1,-1 -1,-2l7 -166c0,-6 4,-10 9,-9 5,0 9,4 9,9l-5 135 90 -154c3,-5 8,-6 13,-4 4,3 6,9 3,13l-126 217 112 -52c5,-2 11,0 13,4 2,5 0,10 -5,13l-133 61c-1,1 -2,1 -3,1l-125 214c-1,3 -4,4 -7,4 -2,1 -4,0 -5,-1 -5,-2 -6,-8 -4,-12z"/>
   </g>
   <g>
    <g>
     <g>
      <g>
       <path class="fil4" d="M3203 2507l-1402 0 0 -737c0,-386 314,-701 701,-701 387,0 701,315 701,701l0 737zm-1169 -234l0 0 935 0 0 -503c0,-257 -209,-467 -467,-467 -258,0 -468,210 -468,467l0 503z"/>
      </g>
     </g>
     <polygon class="fil4" points="2793,3148 2196,3148 2196,2486 2793,2486 "/>
     <g>
      <g>
       <path class="fil5" d="M3405 1966l-1806 0c-61,0 -110,49 -110,109l0 1418c0,60 49,109 110,109l1806 0c61,0 110,-49 110,-109l0 -1418c0,-60 -49,-109 -110,-109zm-986 804l0 0 0 -121c0,-45 37,-82 83,-82 46,0 82,37 82,82l0 121c51,29 85,84 85,146 0,99 -86,177 -188,165 -72,-8 -132,-65 -144,-136 -12,-74 24,-141 82,-175z"/>
      </g>
     </g>
    </g>
    <g>
     <path class="fil6" d="M3515 2075l0 1418c0,60 -49,109 -110,109l-1806 0c-61,0 -110,-49 -110,-109l0 -71c430,6 1069,-13 1415,-153 496,-201 496,-1038 478,-1303l23 0c61,0 110,49 110,109z"/>
    </g>
   </g>
   <g>
    <g>
     <g>
      <g>
       <g>
        <g>
         <g>
          <g>
           <polygon class="fil7" points="977,3456 926,3456 926,3021 977,3021 "/>
          </g>
          <g>
           <g>
            <polygon class="fil7" points="958,3576 942,3576 944,3449 961,3450 "/>
           </g>
          </g>
          <g>
           <g>
            <path class="fil7" d="M975 3593c0,14 -12,26 -26,26 -14,0 -25,-12 -25,-26 0,-14 11,-25 25,-25 14,0 26,11 26,25z"/>
           </g>
          </g>
          <g>
           <g>
            <g>
             <g>
              <path class="fil7" d="M1079 3593c0,14 -12,26 -26,26 -14,0 -25,-12 -25,-26 0,-14 11,-25 25,-25 14,0 26,11 26,25z"/>
             </g>
             <g>
              <polygon class="fil7" points="1063,3579 1046,3579 1046,3544 954,3452 966,3440 1063,3537 "/>
             </g>
            </g>
            <g>
             <g>
              <path class="fil7" d="M824 3593c0,14 12,26 26,26 14,0 25,-12 25,-26 0,-14 -11,-25 -25,-25 -14,0 -26,11 -26,25z"/>
             </g>
             <g>
              <polygon class="fil7" points="857,3579 840,3579 840,3537 937,3440 949,3452 857,3544 "/>
             </g>
            </g>
           </g>
          </g>
         </g>
        </g>
        <g>
         <path class="fil8" d="M1171 2381l0 650 -474 0c-57,0 -103,-46 -103,-103l0 -547c0,-102 82,-184 184,-184l209 0c101,0 184,82 184,184z"/>
        </g>
        <g>
         <path class="fil7" d="M919 2912l0 119 -222 0c-57,0 -103,-46 -103,-103l0 -16 325 0z"/>
        </g>
        <g>
         <polygon class="fil8" points="1315,3031 771,3031 771,2912 1315,2912 "/>
        </g>
       </g>
       <g>
        <g>
         <path class="fil9" d="M1103 2924c180,30 332,21 338,-19 7,-40 -134,-97 -314,-127 -180,-29 -331,-21 -338,20 -6,40 134,97 314,126z"/>
         <g>
          <path class="fil9" d="M1409 2894c127,-59 173,496 145,617 -28,121 -102,-86 -139,-282 -36,-196 -56,-311 -6,-335z"/>
          <path class="fil4" d="M1553 3518c0,0 17,23 54,51 37,29 47,23 48,34 1,11 -156,0 -156,0l3 -88c0,0 51,1 51,3z"/>
         </g>
        </g>
        <g>
         <path class="fil9" d="M1264 2864c176,56 329,70 341,31 13,-39 -120,-116 -297,-172 -176,-56 -329,-69 -341,-30 -13,39 120,115 297,171z"/>
         <g>
          <path class="fil9" d="M1562 2874c148,43 -232,502 -342,581 -111,80 -8,-111 104,-299 112,-189 179,-298 238,-282z"/>
          <path class="fil4" d="M1213 3460c0,0 -2,31 8,82 10,51 22,53 15,63 -7,9 -129,-114 -129,-114l66 -70c0,0 42,38 40,39z"/>
         </g>
        </g>
        <g>
         <path class="fil10" d="M889 2699c11,77 133,135 253,176 120,41 240,65 244,73 8,15 -182,372 -202,409 -1,2 -1,4 -1,4l80 72c0,0 361,-401 349,-540 -11,-128 -485,-232 -485,-232 0,0 -259,-117 -238,38z"/>
        </g>
        <g>
         <path class="fil11" d="M1386 2948c8,15 -182,372 -202,409 120,-120 373,-391 310,-476 -82,-111 -406,-157 -406,-157l54 151c120,41 240,65 244,73z"/>
        </g>
        <g>
         <path class="fil10" d="M823 2940c114,37 497,29 510,45 13,16 146,499 146,499l102 0c-1,0 -29,-471 -101,-590 -72,-119 -494,-193 -494,-193l-232 -10c0,0 0,4 -1,10 -8,42 -31,206 70,239z"/>
        </g>
        <g>
         <path class="fil11" d="M823 2940c114,37 497,29 510,45 13,16 146,499 146,499l2 0c1,-125 -83,-490 -125,-537 -48,-52 -300,-46 -432,-55 -111,-7 -159,-147 -171,-191 -8,42 -31,206 70,239z"/>
        </g>
        <path class="fil4" d="M1062 2237c23,-35 40,-76 60,-112 13,-24 27,-49 25,-76 -2,-21 -14,-40 -19,-60 -4,-17 -3,-34 -3,-51 1,-23 1,-46 2,-70 0,-14 4,-29 -4,-40 -10,-14 -31,-26 -44,-37 -28,-23 -56,-47 -83,-70l-177 125 17 317c43,21 87,42 130,62 16,8 33,16 49,24 16,8 26,17 38,1 3,-5 6,-9 9,-13z"/>
        <g>
         <path class="fil9" d="M989 2182c10,38 22,89 37,139 13,44 27,86 43,115 15,29 31,46 47,41 6,-2 10,-5 14,-11 7,-10 9,-27 8,-47 -1,-17 -4,-37 -8,-58 -5,-23 -11,-48 -18,-73 -20,-68 -46,-137 -58,-175 -7,-20 -37,-10 -57,-12 -50,-4 -24,15 -8,81z"/>
         <g>
          <path class="fil9" d="M1074 2473c3,14 178,75 300,104 67,17 119,24 118,9 -2,-35 -265,-135 -354,-167 -3,-1 -6,-3 -9,-3 -11,-4 -23,-5 -34,-2 -6,2 -12,4 -16,8 -6,5 -9,9 -10,14 -4,12 1,26 5,37z"/>
          <path class="fil12" d="M1069 2436c-4,12 1,26 5,37 3,14 178,75 300,104 -78,-31 -190,-77 -244,-111 -17,-10 -28,-18 -31,-25 -5,-9 -6,-18 -4,-27 4,-21 22,-42 35,-53 -5,-23 -11,-48 -18,-73l-62 -5 -24 38c13,44 27,86 43,115z"/>
          <path class="fil9" d="M1441 2567c9,-28 55,-5 70,3 25,13 43,47 38,57 -5,10 -59,-24 -62,-22 -3,1 22,20 16,29 -6,9 -42,-12 -53,-26 -11,-14 -16,-24 -9,-41z"/>
         </g>
        </g>
        <g>
         <path class="fil13" d="M1009 2347l16 -2 78 -8 31 -3c0,0 -12,-244 -94,-233 -76,11 -31,246 -31,246z"/>
        </g>
        <g>
         <path class="fil14" d="M1009 2317c0,3 6,15 16,28l78 -8c4,-18 8,-38 10,-62 6,-93 -36,-145 -36,-145 0,0 -67,178 -68,187z"/>
        </g>
        <g>
         <path class="fil13" d="M754 2691c0,0 263,40 373,-30 0,0 -6,-13 -14,-34 -6,-16 -14,-38 -20,-62 -11,-39 -21,-86 -20,-128 2,-102 32,-118 35,-185 3,-66 -29,-139 -52,-160 -46,-43 -158,-44 -204,-22 -41,20 -57,46 -62,71 -6,26 -10,58 -14,93 -4,40 -7,85 -9,129 -2,43 -3,86 -4,126 -1,21 -2,40 -2,59 -2,62 -3,114 -7,143z"/>
        </g>
        <g>
         <path class="fil14" d="M767 2363c46,7 108,12 117,-6 16,-28 3,-162 3,-162l-111 39c-4,40 -7,85 -9,129z"/>
        </g>
        <g>
         <path class="fil14" d="M761 2548c5,20 13,38 23,44 21,14 244,30 329,35 -6,-16 -14,-38 -20,-62 -47,-3 -286,-22 -286,-22l-44 -54c-1,21 -2,40 -2,59z"/>
        </g>
        <path class="fil9" d="M1114 1915c-2,73 -14,92 -37,110 -22,17 -72,-1 -78,-3 0,0 0,0 0,0 0,0 0,0 0,0 0,0 0,16 0,31l0 28c0,4 15,36 -28,36 -43,0 -85,-34 -85,-34 0,-4 0,-103 0,-103 0,0 -76,-96 -46,-177 30,-80 181,-44 228,-27 47,17 48,68 46,139z"/>
        <polygon class="fil9" points="999,2022 942,2001 999,2055 "/>
        <g>
         <path class="fil9" d="M785 2564c3,2 5,3 8,3 13,0 25,-11 35,-30 6,-13 12,-29 17,-49 9,-35 16,-79 21,-124 1,-8 2,-15 2,-23 8,-74 11,-147 13,-184 0,-20 -10,-41 -28,-49 -45,-22 -69,71 -77,138 -2,22 -5,47 -8,74 -10,102 -16,227 17,244z"/>
         <g>
          <path class="fil9" d="M785 2564c0,1 1,1 1,2 10,18 337,41 452,25 26,-4 41,-10 39,-19 -12,-37 -322,-72 -432,-84 -5,0 -10,-1 -14,-1 -16,-2 -33,3 -45,13 -4,2 -6,5 -9,9 -16,21 -1,39 8,55z"/>
          <path class="fil12" d="M785 2564c0,1 1,1 1,2 10,18 337,41 452,25 1,-1 1,-3 0,-4 -16,-18 -315,-35 -410,-50 -15,-2 -24,-4 -28,-6 -8,-4 -12,-16 -14,-31 -6,-41 4,-106 6,-125 4,-24 63,-13 74,-11 1,0 2,0 2,0l9 -15 -9 -8 -21 -19 -79 -2c-10,102 -16,227 17,244z"/>
          <path class="fil9" d="M1215 2566c3,-33 59,-21 78,-16 31,7 61,40 58,52 -3,12 -72,-9 -75,-7 -3,2 30,16 26,27 -4,11 -49,-1 -65,-13 -17,-12 -24,-22 -22,-43z"/>
         </g>
        </g>
        <g>
         <path class="fil13" d="M756 2336c0,0 5,-239 81,-234 83,6 40,247 40,247l-121 -13z"/>
        </g>
        <path class="fil4" d="M1126 1878c10,-56 13,-91 -2,-126 -36,-77 -230,-126 -297,20 -5,10 -9,20 -13,31 -31,76 -50,158 -60,240 -4,35 -6,70 -6,105 1,14 1,27 3,41 2,13 2,34 10,44 6,7 14,12 22,17 6,4 13,8 20,8 7,0 14,-4 21,-8 27,-16 53,-38 70,-65 17,-28 25,-62 17,-94 -2,-9 -6,-18 -9,-28 -7,-24 -7,-51 0,-75 3,-13 11,-23 14,-36 2,-10 3,-23 2,-33 0,-6 -1,-12 -1,-17 1,-5 2,-10 3,-15 3,-8 5,-17 8,-25 2,-10 5,-19 12,-26 5,-4 11,-6 17,-9 24,-11 42,-28 49,-54 33,40 66,93 121,105l-1 0z"/>
       </g>
      </g>
     </g>
    </g>
    <g>
     <g>
      <path class="fil15" d="M1881 2313l-151 309c0,0 -313,-2 -316,0l151 -309c0,0 321,0 316,0z"/>
      <g>
       <polygon class="fil16" points="1187,2622 1415,2621 1424,2603 1435,2582 1193,2580 1190,2601 "/>
      </g>
      <polygon class="fil16" points="1565,2313 1554,2313 1406,2620 1415,2621 "/>
      <path class="fil16" d="M1187 2622l228 -1 9 -18c0,1 -234,-2 -234,-2l-3 21z"/>
     </g>
     <path class="fil16" d="M1681 2488c-13,15 -32,20 -44,11 -12,-9 -11,-29 2,-45 12,-16 32,-21 43,-11 12,9 11,29 -1,45z"/>
    </g>
    <g>
     <g>
      <g>
       <polygon class="fil17" points="628,3612 664,3612 664,2633 628,2633 "/>
      </g>
     </g>
     <g>
      <g>
       <polygon class="fil17" points="1874,3612 1910,3612 1910,2633 1874,2633 "/>
      </g>
     </g>
    </g>
    <g>
     <g>
      <polygon class="fil4" points="435,2689 2102,2689 2102,2617 435,2617 "/>
     </g>
    </g>
   </g>
   <g>
    <g>
     <g>
      <g>
       <path class="fil18" d="M3426 2771l2 0c0,0 28,-4 54,-19l1 0 0 40c0,0 -8,37 -54,47 -45,-10 -53,-48 -53,-48l0 -36 1 0c25,12 49,16 49,16z"/>
       <path class="fil9" d="M3428 2771l-2 0c0,0 -24,-4 -49,-16 -24,-12 -49,-32 -54,-65 0,0 -28,-12 -27,-35 0,-23 25,-17 25,-17 0,0 -21,-72 17,-125 38,-53 87,-37 87,-37l4 0c0,0 49,-16 87,37 38,53 17,125 17,125 0,0 25,-6 25,17 1,23 -27,35 -27,35 -5,30 -26,50 -49,62 -26,15 -54,19 -54,19z"/>
       <path class="fil19" d="M3662 3341l1 2c-109,42 -224,112 -234,118 -9,-6 -124,-76 -232,-118l0 -2 0 -102 0 -58 25 0 206 0 3 0 206 0 25 0 0 58 0 102z"/>
       <path class="fil9" d="M3197 3239l0 102 0 2c-21,-8 -41,-15 -60,-21 -49,-40 -116,-97 -124,-122 -6,-19 21,-76 54,-138l0 0 83 46 27 15c-15,27 -28,53 -25,59 5,16 44,57 44,57l1 0z"/>
       <path class="fil9" d="M3846 3200c-8,25 -74,82 -123,122 -19,5 -40,12 -61,21l0 -2 0 -102 1 0c0,0 39,-41 44,-57 3,-6 -10,-32 -25,-59l27 -14 83 -47 0 0c34,62 60,119 54,138z"/>
       <path class="fil18" d="M3745 3189c-11,18 -52,66 -83,102l0 -52 1 0c0,0 39,-41 44,-57 3,-6 -10,-32 -25,-59l33 -18c15,21 43,62 30,84z"/>
       <g>
        <path class="fil13" d="M3792 3062l0 0 -77 43 -6 4 0 0 -27 14c-4,-7 -8,-14 -12,-21 -14,-24 -27,-46 -30,-49 0,-1 0,-1 0,-1l0 0c0,0 -5,85 -3,125l0 4 -415 0 0 -4c3,-40 -3,-125 -3,-125 0,0 0,0 0,0 -3,5 -24,39 -42,71l-27 -15 -83 -46 0 0c34,-65 76,-135 98,-175 35,-65 153,-88 196,-94 10,-1 15,-2 15,-2 0,0 8,38 53,48 46,-10 54,-47 54,-47 0,0 5,0 15,1 43,6 161,29 197,94 19,36 54,95 86,153 4,7 8,14 11,22z"/>
       </g>
       <g>
        <path class="fil14" d="M3715 3105l-6 4 0 0 -27 14c-17,-31 -39,-65 -42,-70 0,-1 0,-1 0,-1l0 -56c0,0 46,57 75,109z"/>
       </g>
       <g>
        <path class="fil14" d="M3219 2999l0 53c0,0 0,0 0,0 -3,5 -24,39 -42,71l-27 -15c29,-53 69,-109 69,-109z"/>
       </g>
       <path class="fil18" d="M3197 3239l0 37c-36,-29 -74,-64 -75,-90 -1,-18 12,-47 28,-78l27 15c-15,27 -28,53 -25,59 5,16 44,57 44,57l1 0z"/>
      </g>
     </g>
     <path class="fil4" d="M3306 2609c-2,-2 -8,-12 -7,-25 1,-17 13,-27 14,-28 -1,-1 -3,-7 -1,-14 1,-6 6,-11 12,-12 -1,-2 -5,-16 3,-29 6,-11 19,-16 30,-11 1,-15 9,-28 20,-34 15,-8 29,2 30,3 0,0 4,-9 11,-10 5,-1 10,2 13,6 3,-4 8,-7 13,-6 7,1 10,10 10,10 1,-1 15,-11 31,-3 11,6 18,19 19,34 12,-5 24,0 31,11 7,13 3,27 3,29 6,1 10,6 12,12 2,7 -1,13 -1,14 1,1 12,11 13,28 1,13 -5,23 -6,25 4,4 6,11 4,17 -1,6 -6,9 -11,9 -2,1 -3,3 -6,4 -1,1 -3,2 -4,2 -2,-1 -5,-2 -8,-7 -5,-9 -1,-20 -1,-21 -2,-2 -12,-14 -10,-31 1,-3 2,-6 3,-9 -2,-1 -15,-6 -19,-21 -1,-5 -1,-9 -1,-12 -4,3 -8,3 -12,0 -2,-2 -3,-6 -4,-7 -3,2 -10,6 -19,5 -10,-1 -17,-7 -19,-9 0,0 -3,10 -18,10l0 0c0,0 0,0 0,0 0,0 0,0 0,0l0 0c-15,0 -18,-10 -18,-10 -3,2 -9,8 -19,9 -10,1 -17,-3 -20,-5 0,1 -1,5 -4,7 -3,3 -8,3 -12,0 1,3 0,7 -1,12 -4,15 -16,20 -19,21 2,3 3,6 3,9 2,17 -8,29 -10,31 1,1 5,12 0,21 -3,5 -7,6 -8,7 -2,0 -3,-1 -5,-2 -2,-1 -4,-3 -5,-4 -5,0 -10,-3 -12,-9 -2,-6 0,-13 5,-17z"/>
    </g>
    <g>
     <path class="fil17" d="M3630 3536l0 34 -1 48c0,0 -47,-5 -115,-13 -88,-12 -210,-31 -312,-59 -93,-26 -170,-58 -189,-100 -42,-89 47,-161 149,-126 40,15 124,52 209,91 127,60 259,125 259,125z"/>
     <path class="fil20" d="M3630 3536l0 34 -116 35c-88,-12 -210,-31 -312,-59 51,-31 123,-94 169,-135 127,60 259,125 259,125z"/>
     <path class="fil17" d="M3665 3550l0 72c0,0 95,7 101,-4 7,-11 14,-50 -10,-68 -25,-19 -84,-19 -91,0z"/>
     <polygon class="fil9" points="3628,3536 3665,3549 3665,3621 3626,3618 "/>
     <path class="fil17" d="M3230 3618c0,0 559,-50 616,-172 42,-89 -47,-161 -149,-126 -101,36 -468,216 -468,216l1 82z"/>
     <polygon class="fil9" points="3230,3536 3193,3549 3193,3621 3232,3618 "/>
     <path class="fil17" d="M3194 3550l0 72c0,0 -96,7 -102,-4 -6,-11 -14,-50 10,-68 25,-19 84,-19 92,0z"/>
    </g>
   </g>
   <g>
    <g>
     <g>
      <g>
       <path class="fil2" d="M1090 1068l-144 0c-23,0 -42,-19 -42,-43l0 -144c0,-23 19,-42 42,-42l144 0c24,0 43,19 43,42l0 144c0,24 -19,43 -43,43z"/>
      </g>
     </g>
     <g>
      <g>
       <path class="fil3" d="M1173 1157l-157 0c-25,0 -46,-21 -46,-46l0 -157c0,-25 21,-46 46,-46l157 0c25,0 45,21 45,46l0 157c0,25 -20,46 -45,46zm-157 -213l0 0c-6,0 -10,5 -10,10l0 157c0,5 4,10 10,10l157 0c5,0 9,-5 9,-10l0 -157c0,-5 -4,-10 -9,-10l-157 0z"/>
      </g>
     </g>
    </g>
    <g>
     <g>
      <g>
       <path class="fil2" d="M3562 1466l109 0c18,0 32,-15 32,-32l0 -110c0,-17 -14,-32 -32,-32l-109 0c-18,0 -33,15 -33,32l0 110c0,17 15,32 33,32z"/>
      </g>
     </g>
     <g>
      <g>
       <g>
        <path class="fil3" d="M3618 1533l-119 0c-19,0 -35,-15 -35,-34l0 -120c0,-19 16,-34 35,-34l119 0c19,0 35,15 35,34l0 120c0,19 -16,34 -35,34zm-119 -161l0 0c-4,0 -7,3 -7,7l0 120c0,4 3,7 7,7l119 0c4,0 8,-3 8,-7l0 -120c0,-4 -4,-7 -8,-7l-119 0z"/>
       </g>
      </g>
     </g>
    </g>
    <g>
     <g>
      <g>
       <path class="fil3" d="M3475 422c-4,0 -9,-2 -12,-5l-41 -41c-7,-7 -7,-18 0,-25l41 -42c7,-6 18,-6 25,0l41 42c3,3 5,8 5,12 0,5 -2,9 -5,13l-41 41c-4,3 -8,5 -13,5zm0 -104l0 0c-1,0 -1,1 -2,1l-41 42c-2,1 -2,3 0,5l41 41c2,2 3,2 5,0l41 -41c1,-1 1,-2 1,-3 0,0 0,-1 -1,-2l-41 -42c-1,0 -2,-1 -3,-1z"/>
      </g>
     </g>
    </g>
    <g>
     <g>
      <g>
       <path class="fil3" d="M3680 2124c-5,0 -9,-2 -13,-5l-41 -42c-7,-7 -7,-18 0,-25l41 -41c7,-7 18,-7 25,0l41 41c7,7 7,18 0,25l-41 42c-3,3 -8,5 -12,5zm-3 -15l0 0c2,1 3,1 5,0l41 -42c1,-1 1,-2 1,-2 0,-1 0,-2 -1,-3l-41 -41c-2,-2 -3,-2 -5,0l-41 41c-1,1 -1,2 -1,3 0,0 0,1 1,2l41 42z"/>
      </g>
     </g>
    </g>
    <g>
     <g>
      <g>
       <path class="fil3" d="M1594 299c-4,0 -9,-1 -12,-5l-42 -41c-3,-3 -5,-8 -5,-12 0,-5 2,-9 5,-13l42 -41c7,-7 18,-7 24,0l42 41c3,4 5,8 5,13 0,4 -2,9 -5,12l-42 41c-3,4 -7,5 -12,5zm0 -103l0 0c0,0 -1,0 -2,1l-42 41c0,1 -1,2 -1,3 0,0 1,1 1,2l42 41c2,2 3,2 4,0l42 -41c1,-1 1,-2 1,-2 0,-1 0,-2 -1,-3l-42 -41c0,-1 -1,-1 -2,-1z"/>
      </g>
     </g>
    </g>
    <g>
     <g>
      <g>
       <path class="fil3" d="M595 2038c-4,0 -9,-2 -12,-5l-41 -42c-4,-3 -6,-7 -6,-12 0,-5 2,-9 6,-12l41 -42c3,-3 8,-5 12,-5l0 0c5,0 9,2 13,5l41 42c7,6 7,17 0,24l-41 42c-4,3 -8,5 -13,5zm0 -104l0 0c0,0 -1,0 -2,1l-41 42c-1,0 -1,1 -1,2 0,0 0,1 1,2l41 42c1,1 3,1 5,0l41 -42c1,-1 1,-2 1,-2 0,-1 0,-2 -1,-2l-41 -42c-1,-1 -2,-1 -3,-1z"/>
      </g>
     </g>
    </g>
    <g>
     <g>
      <g>
       <path class="fil3" d="M4162 2336c-5,0 -9,-2 -13,-6l-48 -48c-7,-7 -7,-19 0,-26l40 -40c7,-7 19,-7 26,0l48 48c8,8 8,19 0,27l-40 39c-3,4 -8,6 -13,6zm-2 -16l0 0c1,1 3,1 5,0l40 -40c1,-1 1,-4 0,-5l-48 -48c-2,-2 -4,-2 -5,0l-40 40c-2,1 -2,3 0,5l48 48z"/>
      </g>
     </g>
    </g>
    <g>
     <path class="fil2" d="M1444 1495c0,16 -13,28 -28,28 -16,0 -28,-12 -28,-28 0,-15 12,-28 28,-28 15,0 28,13 28,28z"/>
    </g>
    <g>
     <path class="fil2" d="M3969 942c0,16 -13,30 -30,30 -16,0 -30,-14 -30,-30 0,-17 14,-30 30,-30 17,0 30,13 30,30z"/>
    </g>
    <g>
     <path class="fil2" d="M2476 310c0,17 -14,30 -30,30 -17,0 -30,-13 -30,-30 0,-17 13,-30 30,-30 16,0 30,13 30,30z"/>
    </g>
    <g>
     <g>
      <path class="fil2" d="M1795 1088c0,19 -15,34 -34,34 -19,0 -35,-15 -35,-34 0,-19 16,-35 35,-35 19,0 34,16 34,35z"/>
     </g>
    </g>
    <g>
     <path class="fil2" d="M788 1440c0,13 -11,25 -25,25 -13,0 -25,-12 -25,-25 0,-14 12,-25 25,-25 14,0 25,11 25,25z"/>
    </g>
    <g>
     <path class="fil2" d="M1397 1879c0,14 -11,25 -25,25 -14,0 -25,-11 -25,-25 0,-13 11,-25 25,-25 14,0 25,12 25,25z"/>
    </g>
    <g>
     <g>
      <path class="fil2" d="M614 1637c0,6 -5,11 -11,11 -6,0 -11,-5 -11,-11 0,-6 5,-11 11,-11 6,0 11,5 11,11z"/>
     </g>
    </g>
   </g>
   <g>
    <g>
     <g>
      <path class="fil13" d="M3151 399c-28,-10 -59,-15 -90,-15 -125,1 -230,85 -262,200 0,0 0,0 0,0l-891 0 -366 0c-30,0 -55,25 -56,56l0 94 1 0 0 82c0,26 21,47 47,47l8 0c26,0 47,-21 47,-47l0 -82 60 0 0 82c0,26 21,47 47,47l11 0c26,0 47,-21 47,-47l0 -82 60 0 0 79c0,25 18,47 42,50 29,3 52,-19 52,-47l0 -82 891 0c10,34 26,66 48,94 51,64 129,105 216,105 156,0 282,-130 274,-287 -5,-115 -82,-211 -186,-247zm85 318l0 0c-11,8 -25,12 -39,12 -39,0 -70,-32 -70,-70 0,-39 31,-71 70,-71 15,0 28,5 39,12l0 0c19,13 31,34 31,59 0,24 -12,46 -31,58z"/>
     </g>
    </g>
    <g>
     <path class="fil14" d="M3337 646c8,157 -118,287 -274,287 -87,0 -165,-41 -216,-105 91,44 195,64 291,10 56,-32 85,-74 98,-121 19,-12 31,-34 31,-58 0,-25 -12,-46 -31,-59l0 0c-15,-79 -57,-156 -85,-201 104,36 181,132 186,247z"/>
    </g>
   </g>
   <path class="fil12" d="M999 2022c0,0 0,0 0,0 0,0 0,0 0,0 0,0 0,16 0,31 -23,-18 -46,-52 -48,-54l48 23c0,0 0,0 0,0z"/>
   <g>
    <g>
     <path class="fil3" d="M1956 2548c-4,-10 -22,-49 -26,-73 -5,-25 -18,-45 -18,-57 -1,-12 20,-20 25,-45 5,-25 16,-66 22,-65 7,2 11,47 17,58 7,11 23,25 10,41 -13,16 -6,35 6,52 12,16 -22,37 -18,60 3,23 -3,53 -3,53l-15 -24z"/>
    </g>
    <g>
     <g>
      <path class="fil2" d="M1962 2499c-1,0 -2,0 -2,-1 -2,-15 -6,-27 -10,-36 -3,-7 -5,-13 -5,-19 -1,-7 3,-13 7,-18 4,-5 8,-11 8,-17 2,-15 -11,-46 -11,-47 0,-1 0,-2 1,-2 1,-1 3,0 3,1 1,1 13,33 11,48 -1,8 -5,14 -9,19 -3,5 -7,10 -6,16 0,5 2,10 5,18 4,9 8,21 10,36 0,1 -1,2 -2,2 0,0 0,0 0,0z"/>
     </g>
    </g>
    <g>
     <path class="fil2" d="M1923 2540c-5,-2 -7,-28 -16,-32 -9,-4 -15,-17 -18,-29 -3,-13 -29,-19 -34,-33 -5,-14 10,-23 9,-36 -1,-13 -12,-32 -4,-40 8,-8 21,21 29,27 7,6 22,12 18,23 -4,11 1,29 27,39 26,10 43,106 -11,81z"/>
    </g>
    <g>
     <g>
      <path class="fil3" d="M1927 2495c-1,0 -2,-1 -2,-1 -5,-16 -13,-22 -23,-29 -4,-4 -9,-8 -14,-13 -14,-16 -8,-44 -7,-45 0,-1 1,-1 2,-1 1,0 2,1 1,2 0,0 -6,27 7,41 4,6 9,9 14,13 9,7 18,14 23,30 1,1 0,2 -1,3 0,0 0,0 0,0z"/>
     </g>
    </g>
    <g>
     <path class="fil2" d="M1971 2543c1,-4 2,-21 12,-25 9,-4 18,-6 25,-18 8,-12 0,-31 8,-43 8,-13 26,-1 35,-13 9,-13 -11,-35 -4,-44 8,-9 17,-34 8,-38 -10,-3 -38,15 -45,31 -8,16 -22,25 -25,37 -4,13 -14,20 -17,32 -3,13 1,32 -3,46 -5,14 6,35 6,35z"/>
    </g>
    <g>
     <path class="fil13" d="M1994 2615l-83 0c-6,0 -11,-5 -11,-11l-3 -88 112 0 -4 88c0,6 -5,11 -11,11z"/>
    </g>
    <g>
     <g>
      <path class="fil3" d="M1989 2497c0,0 0,0 0,0 -1,0 -2,-1 -2,-2 3,-34 15,-53 27,-68 10,-11 15,-33 16,-33 0,-1 1,-2 2,-2 1,1 2,2 1,3 0,1 -6,23 -16,35 -12,14 -23,32 -26,65 0,1 -1,2 -2,2z"/>
     </g>
    </g>
   </g>
   <g>
    <g>
     <polygon class="fil15" points="1385,2470 1383,2518 1380,2571 1377,2616 1290,2616 1288,2571 1285,2518 1283,2470 "/>
     <g>
      <polygon class="fil21" points="1379,2456 1289,2456 1289,2472 1379,2472 "/>
     </g>
     <g>
      <polygon class="fil21" points="1391,2490 1277,2490 1277,2470 1391,2470 "/>
     </g>
     <g>
      <polygon class="fil13" points="1383,2518 1380,2571 1288,2571 1285,2518 "/>
     </g>
    </g>
    <path class="fil15" d="M1348 2545c0,7 -6,14 -14,14 -8,0 -14,-7 -14,-14 0,-8 6,-14 14,-14 8,0 14,6 14,14z"/>
   </g>
  </g>
 </g>
</svg>
