<?xml version="1.0" encoding="UTF-8"?>
<!DOCTYPE svg PUBLIC "-//W3C//DTD SVG 1.1//EN" "http://www.w3.org/Graphics/SVG/1.1/DTD/svg11.dtd">
<!-- Creator: CorelDRAW X7 -->
<svg xmlns="http://www.w3.org/2000/svg" xml:space="preserve" width="4.64333in" height="3.85666in" version="1.1" style="shape-rendering:geometricPrecision; text-rendering:geometricPrecision; image-rendering:optimizeQuality; fill-rule:evenodd; clip-rule:evenodd"
viewBox="0 0 4643 3857"
 xmlns:xlink="http://www.w3.org/1999/xlink">
 <defs>
  <style type="text/css">
   <![CDATA[
    .fil16 {fill:black;fill-rule:nonzero}
    .fil19 {fill:#59A1F9;fill-rule:nonzero}
    .fil1 {fill:#6CB753;fill-rule:nonzero}
    .fil4 {fill:#7EB669;fill-rule:nonzero}
    .fil20 {fill:#BBBBBB;fill-rule:nonzero}
    .fil0 {fill:#BFE2EC;fill-rule:nonzero}
    .fil22 {fill:#CCE1FC;fill-rule:nonzero}
    .fil17 {fill:#D8D4D2;fill-rule:nonzero}
    .fil18 {fill:#E6E6E6;fill-rule:nonzero}
    .fil12 {fill:#E9AB0C;fill-rule:nonzero}
    .fil7 {fill:#ECBA2E;fill-rule:nonzero}
    .fil10 {fill:#F8CF4B;fill-rule:nonzero}
    .fil8 {fill:#F8D367;fill-rule:nonzero}
    .fil24 {fill:#FF531E;fill-rule:nonzero}
    .fil23 {fill:white;fill-rule:nonzero}
    .fil25 {fill:black;fill-rule:nonzero;fill-opacity:0.090196}
    .fil5 {fill:black;fill-rule:nonzero;fill-opacity:0.109804}
    .fil13 {fill:black;fill-rule:nonzero;fill-opacity:0.121569}
    .fil6 {fill:black;fill-rule:nonzero;fill-opacity:0.168627}
    .fil14 {fill:black;fill-rule:nonzero;fill-opacity:0.200000}
    .fil27 {fill:white;fill-rule:nonzero;fill-opacity:0.278431}
    .fil2 {fill:black;fill-rule:nonzero;fill-opacity:0.301961}
    .fil26 {fill:white;fill-rule:nonzero;fill-opacity:0.349020}
    .fil15 {fill:black;fill-rule:nonzero;fill-opacity:0.419608}
    .fil11 {fill:black;fill-rule:nonzero;fill-opacity:0.450980}
    .fil21 {fill:white;fill-rule:nonzero;fill-opacity:0.639216}
    .fil3 {fill:white;fill-rule:nonzero;fill-opacity:0.741176}
    .fil9 {fill:black;fill-rule:nonzero;fill-opacity:0.760784}
   ]]>
  </style>
 </defs>
 <g id="Layer_x0020_1">
  <metadata id="CorelCorpID_0Corel-Layer"/>
  <g id="_992806928">
   <g>
    <g>
     <path class="fil0" d="M4644 3580c0,-153 -1040,-277 -2322,-277 -1283,0 -2323,124 -2323,277 0,153 1040,277 2323,277 1282,0 2322,-124 2322,-277z"/>
    </g>
    <g>
     <g>
      <g>
       <g>
        <g>
         <path class="fil1" d="M4053 3312c-1,1 -1,2 -2,4 -4,11 -19,45 -44,60 -20,11 -40,9 -53,6 -3,-1 -5,-2 -7,-3 0,0 0,0 0,0 -3,-1 -4,-1 -5,-2 0,0 0,0 0,0 0,0 5,-13 14,-29 0,0 0,0 0,-1 8,-12 19,-26 32,-34 4,-2 8,-4 12,-5 27,-9 53,4 53,4z"/>
        </g>
        <path class="fil2" d="M4051 3316c-4,11 -19,45 -44,60 -20,11 -40,9 -53,6 -3,-1 -5,-2 -7,-3 4,-1 87,-26 104,-63z"/>
        <g>
         <path class="fil3" d="M3970 3350c5,-10 14,-18 24,-25 10,-5 23,-10 35,-6 -12,4 -21,8 -30,14 -10,5 -19,12 -29,17z"/>
        </g>
       </g>
       <g>
        <g>
         <path class="fil1" d="M4088 3170c0,1 0,2 -1,4 -3,11 -15,47 -40,66 -18,13 -38,14 -51,13 -4,-1 -6,-1 -8,-2 -1,0 -1,0 -1,0 -2,0 -3,-1 -4,-1 0,0 0,0 0,0 0,0 3,-14 11,-31 0,0 0,0 0,0 7,-14 16,-29 30,-39 3,-3 7,-5 10,-7 27,-12 54,-3 54,-3z"/>
        </g>
        <path class="fil2" d="M4087 3174c-3,11 -15,47 -40,66 -18,13 -38,14 -51,13 -4,-1 -6,-1 -8,-2 4,-2 85,-38 99,-77z"/>
        <g>
         <path class="fil3" d="M4008 3220c5,-12 13,-21 22,-29 10,-7 22,-13 35,-11 -11,5 -20,11 -29,18 -10,7 -18,15 -28,22z"/>
        </g>
       </g>
       <g>
        <g>
         <path class="fil1" d="M4122 3021c0,2 0,3 -1,4 -3,12 -14,49 -38,68 -18,14 -39,16 -52,15 -3,0 -6,-1 -8,-1 0,0 0,0 0,0 -2,-1 -4,-1 -4,-1 -1,0 -1,0 -1,0 0,0 3,-14 11,-31 0,0 0,0 0,-1 6,-14 16,-29 29,-40 3,-2 7,-5 10,-7 26,-13 54,-6 54,-6z"/>
        </g>
        <path class="fil2" d="M4121 3025c-3,12 -14,49 -38,68 -18,14 -39,16 -52,15 -3,0 -6,-1 -8,-1 4,-2 85,-42 98,-82z"/>
        <g>
         <path class="fil3" d="M4043 3075c4,-12 12,-21 22,-30 9,-7 21,-14 34,-12 -11,6 -20,12 -29,19 -9,7 -17,15 -27,23z"/>
        </g>
       </g>
       <g>
        <g>
         <path class="fil1" d="M4139 2894c0,1 0,3 -1,4 -3,12 -14,48 -38,67 -18,15 -39,16 -52,15 -3,0 -6,0 -8,-1 0,0 0,0 0,0 -2,0 -4,0 -4,0 -1,-1 -1,-1 -1,-1 0,0 3,-14 11,-30 0,-1 0,-1 0,-1 6,-14 16,-30 29,-40 3,-3 7,-5 10,-7 27,-14 54,-6 54,-6z"/>
        </g>
        <path class="fil2" d="M4138 2898c-3,12 -14,48 -38,67 -18,15 -39,16 -52,15 -3,0 -6,0 -8,-1 5,-2 85,-41 98,-81z"/>
        <g>
         <path class="fil3" d="M4060 2947c4,-12 13,-21 22,-29 9,-7 21,-14 34,-13 -11,6 -20,12 -29,20 -9,7 -17,15 -27,22z"/>
        </g>
       </g>
       <g>
        <g>
         <path class="fil1" d="M4122 2779c0,1 0,2 0,3 -1,11 -6,43 -24,64 -14,16 -32,22 -43,24 -3,0 -5,0 -7,0 0,1 0,1 0,1 -2,0 -4,0 -4,0 -1,0 -1,0 -1,0 0,0 1,-13 5,-28 1,0 1,0 1,-1 3,-12 9,-27 19,-39 3,-3 6,-6 8,-8 21,-17 46,-16 46,-16z"/>
        </g>
        <path class="fil2" d="M4122 2782c-1,11 -6,43 -24,64 -14,16 -32,22 -43,24 -3,0 -5,0 -7,0 3,-2 67,-52 74,-88z"/>
        <g>
         <path class="fil3" d="M4061 2840c1,-12 7,-21 14,-30 8,-8 17,-16 28,-17 -8,8 -15,15 -21,23 -7,7 -13,16 -21,24z"/>
        </g>
       </g>
       <g>
        <g>
         <path class="fil1" d="M4048 2662c0,0 1,1 1,2 6,7 20,32 19,61 -1,23 -12,43 -19,55 -2,3 -4,5 -5,7 0,0 0,0 0,0 -1,2 -2,4 -3,4 0,1 0,1 0,1 0,0 -7,-9 -12,-22 0,0 0,0 -1,0 -4,-11 -8,-26 -7,-42 0,-5 1,-9 1,-13 6,-30 26,-53 26,-53z"/>
        </g>
        <path class="fil2" d="M4049 2664c6,7 20,32 19,61 -1,23 -12,43 -19,55 -2,3 -4,5 -5,7 1,-5 21,-95 5,-123z"/>
        <g>
         <path class="fil3" d="M4036 2757c-5,-11 -6,-23 -6,-35 1,-12 4,-25 12,-34 -1,12 -3,23 -3,34 -1,11 -1,23 -3,35z"/>
        </g>
       </g>
       <g>
        <g>
         <path class="fil1" d="M3954 2805c0,2 1,3 1,4 1,10 7,41 25,56 14,11 32,12 43,10 3,-1 5,-1 7,-1 0,0 0,0 0,0 3,-1 4,-1 4,-1 1,-1 1,-1 1,-1 0,0 -1,-12 -6,-26 0,0 0,0 0,0 -4,-12 -10,-25 -20,-33 -3,-2 -6,-4 -9,-6 -21,-10 -46,-2 -46,-2z"/>
        </g>
        <path class="fil2" d="M3955 2809c1,10 7,41 25,56 14,11 32,12 43,10 3,-1 5,-1 7,-1 -3,-2 -68,-32 -75,-65z"/>
        <g>
         <path class="fil3" d="M4017 2847c-8,-6 -14,-12 -21,-18 -7,-6 -14,-10 -23,-15 5,-1 10,-1 15,1 5,2 9,5 13,7 7,7 14,15 16,25z"/>
        </g>
       </g>
       <g>
        <g>
         <path class="fil1" d="M3948 2908c0,1 0,3 0,4 2,10 7,41 26,56 14,11 31,11 43,10 3,-1 5,-1 7,-2 0,1 0,1 0,1 2,-1 3,-1 4,-2 0,0 0,0 0,0 0,0 -1,-12 -5,-26 -1,0 -1,0 0,0 -4,-12 -11,-25 -21,-33 -2,-3 -5,-4 -8,-6 -21,-10 -46,-2 -46,-2z"/>
        </g>
        <path class="fil2" d="M3948 2912c2,10 7,41 26,56 14,11 31,11 43,10 3,-1 5,-1 7,-2 -4,-1 -68,-31 -76,-64z"/>
        <g>
         <path class="fil3" d="M4010 2950c-8,-6 -14,-13 -21,-18 -6,-6 -13,-10 -22,-15 5,-1 10,-1 15,1 5,1 9,4 13,7 7,7 13,15 15,25z"/>
        </g>
       </g>
       <g>
        <g>
         <path class="fil1" d="M3924 3018c0,1 0,2 0,4 1,11 4,44 22,63 14,15 32,17 45,17 3,0 5,0 7,0 0,0 0,0 0,0 2,0 4,-1 4,-1 1,0 1,0 1,0 0,0 0,-13 -4,-29 0,0 0,0 0,0 -3,-13 -8,-28 -18,-39 -3,-2 -6,-5 -9,-7 -21,-14 -48,-8 -48,-8z"/>
        </g>
        <path class="fil2" d="M3924 3022c1,11 4,44 22,63 14,15 32,17 45,17 3,0 5,0 7,0 -3,-2 -69,-43 -74,-80z"/>
        <g>
         <path class="fil3" d="M3986 3071c-8,-7 -13,-15 -20,-22 -7,-7 -14,-13 -23,-19 11,-1 22,6 29,13 7,8 13,17 14,28z"/>
        </g>
       </g>
       <g>
        <g>
         <path class="fil1" d="M3886 3122c0,2 0,3 0,5 -1,13 0,53 19,78 15,19 36,25 50,27 3,0 6,1 8,1 0,0 0,0 0,0 3,0 5,0 5,0 1,0 1,0 1,0 0,0 1,-16 -2,-35 0,0 0,0 0,-1 -2,-15 -7,-34 -17,-47 -3,-4 -6,-7 -9,-10 -24,-20 -55,-18 -55,-18z"/>
        </g>
        <path class="fil2" d="M3886 3127c-1,13 0,53 19,78 15,19 36,25 50,27 3,0 6,1 8,1 -3,-3 -75,-62 -77,-106z"/>
        <g>
         <path class="fil3" d="M3953 3195c-8,-10 -14,-20 -22,-30 -6,-10 -14,-18 -24,-26 13,2 24,11 31,21 8,11 13,22 15,35z"/>
        </g>
       </g>
       <g>
        <g>
         <path class="fil1" d="M3845 3244c0,1 0,3 0,4 -1,13 0,54 18,79 15,19 36,26 50,28 3,0 6,0 8,1 0,0 0,0 0,0 3,0 5,0 5,0 1,0 1,0 1,0 0,0 1,-16 -1,-35 -1,0 -1,0 0,-1 -3,-16 -7,-34 -18,-48 -2,-4 -5,-7 -8,-10 -23,-20 -55,-18 -55,-18z"/>
        </g>
        <path class="fil2" d="M3845 3248c-1,13 0,54 18,79 15,19 36,26 50,28 3,0 6,0 8,1 -4,-4 -74,-63 -76,-108z"/>
        <g>
         <path class="fil3" d="M3911 3317c-8,-10 -14,-20 -21,-29 -7,-10 -14,-19 -24,-27 13,2 23,11 31,21 7,11 13,23 14,35z"/>
        </g>
       </g>
       <g>
        <path class="fil1" d="M3886 3426c23,-49 43,-101 61,-153 18,-53 34,-107 48,-161 14,-54 24,-109 32,-165 7,-55 9,-111 8,-166l0 0c0,-3 1,-6 4,-6 2,0 3,1 4,4 4,56 3,112 -2,169 -5,57 -14,113 -25,169 -12,56 -26,112 -43,167 -16,54 -34,108 -56,162 -5,11 -16,17 -24,12 -9,-5 -12,-18 -7,-30 0,0 0,-1 0,-1l0 -1z"/>
       </g>
      </g>
      <g>
       <g>
        <g>
         <path class="fil1" d="M3074 2283c-1,1 -2,2 -2,3 -6,11 -26,43 -53,54 -20,9 -40,4 -52,-1 -3,-2 -5,-3 -7,-4 -1,0 -1,0 -1,0 -2,-1 -3,-2 -3,-2 -1,0 -1,0 -1,0 0,0 7,-13 18,-27 0,0 0,0 0,-1 9,-11 22,-24 37,-30 4,-2 8,-3 11,-4 29,-5 53,12 53,12z"/>
        </g>
        <path class="fil2" d="M3072 2286c-6,11 -26,43 -53,54 -20,9 -40,4 -52,-1 -3,-2 -5,-3 -7,-4 4,0 89,-14 112,-49z"/>
        <g>
         <path class="fil3" d="M2986 2310c7,-10 17,-17 28,-22 11,-4 24,-7 35,-2 -12,3 -22,6 -32,10 -10,4 -20,10 -31,14z"/>
        </g>
       </g>
       <g>
        <g>
         <path class="fil1" d="M3128 2146c-1,2 -1,3 -2,4 -5,11 -22,45 -48,60 -20,12 -41,10 -53,6 -3,-1 -6,-1 -8,-2 0,0 0,0 0,0 -2,-1 -4,-1 -4,-2 -1,0 -1,0 -1,0 0,0 5,-13 15,-29 1,0 1,0 1,0 8,-13 20,-27 34,-35 4,-2 8,-4 12,-5 28,-9 54,3 54,3z"/>
        </g>
        <path class="fil2" d="M3126 2150c-5,11 -22,45 -48,60 -20,12 -41,10 -53,6 -3,-1 -6,-1 -8,-2 5,-1 89,-27 109,-64z"/>
        <g>
         <path class="fil3" d="M3041 2185c6,-11 16,-18 26,-25 11,-5 24,-10 36,-6 -12,3 -22,8 -31,14 -10,5 -20,12 -31,17z"/>
        </g>
       </g>
       <g>
        <g>
         <path class="fil1" d="M3181 2004c-1,1 -1,2 -2,4 -4,11 -21,46 -47,61 -19,12 -40,11 -53,9 -3,-1 -6,-2 -8,-2 0,0 0,0 0,0 -2,-1 -3,-2 -4,-2 0,0 -1,0 -1,0 0,0 5,-14 15,-29 0,0 0,-1 0,-1 9,-13 20,-27 34,-36 4,-2 8,-4 12,-5 27,-11 54,1 54,1z"/>
        </g>
        <path class="fil2" d="M3179 2008c-4,11 -21,46 -47,61 -19,12 -40,11 -53,9 -3,-1 -6,-2 -8,-2 5,-2 89,-31 108,-68z"/>
        <g>
         <path class="fil3" d="M3095 2046c6,-11 15,-19 25,-26 11,-6 24,-11 36,-8 -11,4 -21,9 -31,16 -10,5 -19,12 -30,18z"/>
        </g>
       </g>
       <g>
        <g>
         <path class="fil1" d="M3215 1880c-1,1 -1,2 -2,4 -5,11 -21,46 -47,61 -19,12 -40,11 -53,8 -3,0 -6,-1 -8,-2 0,1 0,1 0,1 -2,-1 -4,-2 -4,-2 -1,0 -1,0 -1,0 0,0 5,-14 15,-29 0,0 0,-1 0,-1 8,-13 20,-27 34,-36 4,-2 7,-4 11,-5 28,-11 55,1 55,1z"/>
        </g>
        <path class="fil2" d="M3213 1884c-5,11 -21,46 -47,61 -19,12 -40,11 -53,8 -3,0 -6,-1 -8,-2 5,-1 89,-30 108,-67z"/>
        <g>
         <path class="fil3" d="M3129 1922c6,-11 15,-19 25,-26 11,-6 23,-11 36,-8 -12,4 -21,9 -31,16 -10,5 -19,12 -30,18z"/>
        </g>
       </g>
       <g>
        <g>
         <path class="fil1" d="M3213 1763c0,1 -1,2 -1,4 -2,10 -12,41 -32,60 -16,14 -34,17 -46,17 -3,1 -5,0 -7,0 0,1 0,1 0,1 -2,-1 -3,-1 -4,-1 0,0 0,0 0,0 0,0 2,-12 8,-27 1,0 1,0 1,0 5,-13 13,-27 24,-37 3,-2 6,-5 9,-7 23,-14 48,-10 48,-10z"/>
        </g>
        <path class="fil2" d="M3212 1767c-2,10 -12,41 -32,60 -16,14 -34,17 -46,17 -3,1 -5,0 -7,0 4,-2 74,-43 85,-77z"/>
        <g>
         <path class="fil3" d="M3144 1816c3,-11 10,-20 18,-28 9,-7 19,-13 30,-13 -9,7 -16,12 -24,20 -8,6 -15,14 -24,21z"/>
        </g>
       </g>
       <g>
        <g>
         <path class="fil1" d="M3155 1637c0,1 1,2 1,3 4,8 16,34 10,63 -4,22 -17,41 -26,52 -2,3 -4,5 -6,6 0,1 0,1 0,1 -2,1 -3,3 -3,3 0,0 -1,0 -1,0 0,0 -5,-9 -9,-23 0,0 0,0 0,0 -3,-12 -5,-27 -2,-43 1,-4 2,-8 3,-12 10,-29 33,-50 33,-50z"/>
        </g>
        <path class="fil2" d="M3156 1640c4,8 16,34 10,63 -4,22 -17,41 -26,52 -2,3 -4,5 -6,6 2,-4 34,-92 22,-121z"/>
        <g>
         <path class="fil3" d="M3130 1730c-4,-12 -3,-24 -1,-35 3,-12 7,-24 16,-32 -2,12 -6,22 -7,33 -3,11 -4,22 -8,34z"/>
        </g>
       </g>
       <g>
        <g>
         <path class="fil1" d="M3043 1768c0,1 0,2 0,3 0,10 2,41 18,59 12,13 30,16 41,16 3,0 5,-1 7,-1 0,0 0,0 0,0 2,0 4,0 4,0 1,0 1,0 1,0 0,0 0,-12 -2,-27 -1,0 0,0 0,-1 -3,-12 -7,-25 -16,-35 -2,-2 -5,-4 -8,-6 -19,-13 -45,-8 -45,-8z"/>
        </g>
        <path class="fil2" d="M3043 1771c0,10 2,41 18,59 12,13 30,16 41,16 3,0 5,-1 7,-1 -3,-2 -63,-40 -66,-74z"/>
        <g>
         <path class="fil3" d="M3100 1817c-8,-7 -13,-14 -19,-20 -6,-7 -12,-13 -20,-18 5,-1 10,0 14,3 5,2 9,5 12,9 7,7 12,16 13,26z"/>
        </g>
       </g>
       <g>
        <g>
         <path class="fil1" d="M3023 1869c0,1 0,2 0,3 0,10 2,42 18,59 12,13 30,16 41,16 3,0 5,-1 7,-1 0,0 0,0 0,0 2,0 4,0 4,0 1,0 1,0 1,0 0,0 0,-12 -2,-27 -1,0 0,0 0,0 -3,-12 -7,-26 -16,-36 -2,-2 -5,-4 -8,-6 -19,-13 -45,-8 -45,-8z"/>
        </g>
        <path class="fil2" d="M3023 1872c0,10 2,42 18,59 12,13 30,16 41,16 3,0 5,-1 7,-1 -3,-2 -63,-40 -66,-74z"/>
        <g>
         <path class="fil3" d="M3080 1918c-8,-7 -13,-14 -19,-20 -6,-7 -12,-12 -20,-18 5,-1 10,0 14,3 5,2 9,5 12,9 6,7 12,16 13,26z"/>
        </g>
       </g>
       <g>
        <g>
         <path class="fil1" d="M2985 1974c0,1 0,3 0,4 -1,11 -2,45 13,66 12,16 30,21 42,23 3,0 5,0 7,0 0,0 0,0 0,0 2,0 4,0 5,0 0,0 0,0 0,0 0,0 2,-13 0,-29 0,0 0,0 0,0 -1,-14 -5,-29 -13,-41 -2,-3 -5,-6 -8,-8 -19,-17 -46,-15 -46,-15z"/>
        </g>
        <path class="fil2" d="M2985 1978c-1,11 -2,45 13,66 12,16 30,21 42,23 3,0 5,0 7,0 -3,-2 -63,-52 -62,-89z"/>
        <g>
         <path class="fil3" d="M3040 2035c-7,-8 -12,-17 -18,-24 -6,-9 -12,-15 -20,-23 12,1 21,9 27,17 6,9 11,19 11,30z"/>
        </g>
       </g>
       <g>
        <g>
         <path class="fil1" d="M2933 2073c0,1 0,3 0,4 -3,13 -7,53 8,81 12,20 32,29 46,33 3,0 6,1 8,1 1,0 1,0 1,0 2,1 4,1 4,1 1,0 1,0 1,0 0,0 3,-15 3,-34 0,-1 0,-1 0,-1 0,-16 -3,-35 -11,-50 -3,-4 -5,-7 -8,-11 -20,-23 -52,-24 -52,-24z"/>
        </g>
        <path class="fil2" d="M2933 2077c-3,13 -7,53 8,81 12,20 32,29 46,33 3,0 6,1 8,1 -3,-3 -66,-71 -62,-115z"/>
        <g>
         <path class="fil3" d="M2990 2153c-7,-11 -11,-22 -17,-32 -6,-10 -12,-19 -21,-29 13,3 22,14 28,25 6,11 10,23 10,36z"/>
        </g>
       </g>
       <g>
        <g>
         <path class="fil1" d="M2877 2188c-1,1 -1,2 -1,4 -2,13 -7,53 8,81 11,21 31,30 45,34 3,0 6,1 8,2 1,0 1,0 1,0 2,0 4,0 4,0 1,0 1,0 1,0 0,0 3,-15 3,-34 0,0 0,0 0,-1 0,-16 -2,-35 -10,-50 -3,-4 -5,-7 -8,-11 -20,-23 -51,-25 -51,-25z"/>
        </g>
        <path class="fil2" d="M2876 2192c-2,13 -7,53 8,81 11,21 31,30 45,34 3,0 6,1 8,2 -3,-4 -65,-73 -61,-117z"/>
        <g>
         <path class="fil3" d="M2932 2269c-6,-11 -10,-22 -17,-32 -5,-11 -11,-20 -20,-29 13,3 22,14 28,25 6,11 10,23 9,36z"/>
        </g>
       </g>
       <g>
        <path class="fil1" d="M2894 2374c28,-46 55,-95 80,-144 25,-50 48,-101 69,-153 20,-52 38,-105 53,-159 14,-54 24,-109 30,-164l0 0c0,-3 2,-5 4,-5 3,0 4,2 4,4 -3,56 -11,112 -24,167 -13,56 -28,111 -47,165 -20,54 -41,107 -64,159 -24,52 -49,103 -78,153 -6,11 -17,15 -25,9 -8,-6 -10,-19 -3,-30 0,-1 0,-1 0,-1l1 -1z"/>
       </g>
      </g>
      <g>
       <g>
        <g>
         <path class="fil1" d="M3082 2568c-1,1 -2,2 -3,3 -8,9 -34,36 -63,41 -22,3 -40,-6 -51,-14 -2,-2 -4,-4 -6,-5 0,0 0,0 0,0 -2,-2 -3,-3 -3,-4 -1,0 -1,0 -1,0 0,0 9,-11 23,-22 1,0 1,0 1,-1 12,-9 27,-18 43,-20 4,-1 8,-1 12,-1 29,1 48,23 48,23z"/>
        </g>
        <path class="fil2" d="M3079 2571c-8,9 -34,36 -63,41 -22,3 -40,-6 -51,-14 -2,-2 -4,-4 -6,-5 4,0 90,7 120,-22z"/>
        <g>
         <path class="fil3" d="M2991 2574c9,-8 20,-12 31,-14 12,-2 25,-2 35,6 -12,-1 -22,0 -33,2 -11,2 -22,5 -33,6z"/>
        </g>
       </g>
       <g>
        <g>
         <path class="fil1" d="M3166 2448c0,1 -1,2 -2,3 -7,10 -32,39 -61,48 -22,6 -41,-1 -53,-7 -3,-1 -5,-3 -7,-4 0,0 0,0 0,0 -2,-1 -3,-2 -4,-3 0,0 0,0 0,0 0,0 8,-12 21,-24 1,0 1,0 1,-1 11,-10 25,-21 41,-26 5,-1 9,-1 13,-2 29,-2 51,16 51,16z"/>
        </g>
        <path class="fil2" d="M3164 2451c-7,10 -32,39 -61,48 -22,6 -41,-1 -53,-7 -3,-1 -5,-3 -7,-4 5,0 93,-5 121,-37z"/>
        <g>
         <path class="fil3" d="M3073 2466c9,-9 20,-14 32,-18 11,-3 25,-5 36,1 -13,2 -23,3 -34,7 -11,3 -22,7 -34,10z"/>
        </g>
       </g>
       <g>
        <g>
         <path class="fil1" d="M3251 2322c0,1 -1,2 -2,4 -7,10 -31,39 -60,49 -22,7 -42,1 -54,-5 -2,-1 -5,-3 -7,-4 0,0 0,0 0,0 -2,-1 -3,-2 -4,-2 0,0 0,-1 0,-1 0,0 8,-12 21,-25 0,0 0,0 0,0 11,-11 26,-22 41,-27 5,-1 9,-2 13,-3 29,-3 52,14 52,14z"/>
        </g>
        <path class="fil2" d="M3249 2326c-7,10 -31,39 -60,49 -22,7 -42,1 -54,-5 -2,-1 -5,-3 -7,-4 5,0 94,-8 121,-40z"/>
        <g>
         <path class="fil3" d="M3158 2343c8,-9 20,-15 31,-19 12,-3 25,-5 36,0 -12,2 -22,4 -33,8 -11,3 -22,8 -34,11z"/>
        </g>
       </g>
       <g>
        <g>
         <path class="fil1" d="M3313 2210c0,1 -1,2 -2,3 -7,10 -31,40 -60,49 -22,7 -42,1 -54,-5 -3,-1 -5,-2 -7,-3 0,0 0,0 0,0 -2,-2 -3,-3 -4,-3 0,0 0,0 0,0 0,0 8,-12 21,-25 0,0 0,0 0,-1 11,-10 25,-22 41,-27 5,-1 9,-2 13,-2 29,-4 52,14 52,14z"/>
        </g>
        <path class="fil2" d="M3311 2213c-7,10 -31,40 -60,49 -22,7 -42,1 -54,-5 -3,-1 -5,-2 -7,-3 5,-1 94,-9 121,-41z"/>
        <g>
         <path class="fil3" d="M3220 2231c8,-10 19,-16 31,-20 12,-3 25,-5 36,1 -12,1 -22,4 -33,8 -11,3 -22,7 -34,11z"/>
        </g>
       </g>
       <g>
        <g>
         <path class="fil1" d="M3339 2096c0,1 -1,2 -2,3 -4,9 -21,38 -45,51 -19,10 -37,9 -49,6 -2,0 -5,-1 -6,-1 -1,0 -1,0 -1,0 -2,-1 -3,-1 -3,-2 -1,0 -1,0 -1,0 0,0 5,-11 15,-24 0,0 0,0 0,0 8,-11 19,-23 33,-30 3,-2 7,-3 10,-4 26,-9 49,1 49,1z"/>
        </g>
        <path class="fil2" d="M3337 2099c-4,9 -21,38 -45,51 -19,10 -37,9 -49,6 -2,0 -5,-1 -6,-1 4,-2 81,-25 100,-56z"/>
        <g>
         <path class="fil3" d="M3260 2130c5,-9 14,-16 24,-22 10,-5 21,-9 32,-6 -10,5 -19,9 -28,14 -9,4 -18,10 -28,14z"/>
        </g>
       </g>
       <g>
        <g>
         <path class="fil1" d="M3312 1960c0,1 0,2 0,3 3,8 8,36 -5,63 -9,21 -26,36 -37,45 -3,2 -5,3 -7,5 0,0 0,0 0,0 -2,1 -4,2 -4,2 -1,0 -1,0 -1,0 0,0 -3,-9 -3,-24 0,0 0,0 0,0 0,-12 1,-27 8,-42 1,-4 4,-8 6,-12 16,-25 43,-40 43,-40z"/>
        </g>
        <path class="fil2" d="M3312 1963c3,8 8,36 -5,63 -9,21 -26,36 -37,45 -3,2 -5,3 -7,5 3,-5 54,-82 49,-113z"/>
        <g>
         <path class="fil3" d="M3267 2044c-2,-12 2,-24 7,-35 5,-10 12,-21 23,-27 -6,11 -11,21 -15,31 -6,10 -10,21 -15,31z"/>
        </g>
       </g>
       <g>
        <g>
         <path class="fil1" d="M3173 2060c-1,1 -1,2 -1,4 -2,10 -8,40 3,61 9,16 26,22 37,25 3,1 5,1 7,1 0,0 0,0 0,0 2,1 4,1 4,1 1,0 1,0 1,0 0,0 3,-12 4,-27 0,0 0,0 0,0 0,-12 -1,-27 -7,-38 -2,-3 -4,-6 -6,-8 -16,-18 -42,-19 -42,-19z"/>
        </g>
        <path class="fil2" d="M3172 2064c-2,10 -8,40 3,61 9,16 26,22 37,25 3,1 5,1 7,1 -3,-2 -52,-54 -47,-87z"/>
        <g>
         <path class="fil3" d="M3216 2121c-5,-8 -9,-16 -13,-24 -4,-8 -9,-14 -16,-22 5,1 10,3 14,6 4,4 7,8 9,12 5,9 8,18 6,28z"/>
        </g>
       </g>
       <g>
        <g>
         <path class="fil1" d="M3130 2154c-1,1 -1,2 -1,3 -3,10 -8,41 3,62 9,15 26,22 37,25 3,0 5,1 7,1 0,0 0,0 0,0 2,0 3,0 4,0 0,0 1,0 1,0 0,0 3,-11 4,-26 -1,0 0,0 0,-1 0,-12 -1,-26 -7,-38 -2,-3 -4,-5 -6,-8 -16,-17 -42,-18 -42,-18z"/>
        </g>
        <path class="fil2" d="M3129 2157c-3,10 -8,41 3,62 9,15 26,22 37,25 3,0 5,1 7,1 -3,-3 -52,-54 -47,-88z"/>
        <g>
         <path class="fil3" d="M3173 2215c-5,-8 -9,-17 -13,-24 -4,-8 -9,-15 -16,-22 5,0 10,3 14,6 4,3 7,7 9,12 5,8 8,18 6,28z"/>
        </g>
       </g>
       <g>
        <g>
         <path class="fil1" d="M3068 2247c0,2 -1,3 -1,4 -4,11 -13,43 -3,67 8,19 24,28 36,32 2,1 5,2 7,3 0,0 0,0 0,0 2,0 3,0 4,1 0,0 1,0 1,0 0,0 4,-13 6,-29 0,0 0,0 1,0 1,-13 2,-29 -4,-43 -1,-3 -3,-6 -5,-9 -15,-21 -42,-26 -42,-26z"/>
        </g>
        <path class="fil2" d="M3067 2251c-4,11 -13,43 -3,67 8,19 24,28 36,32 2,1 5,2 7,3 -3,-4 -49,-66 -40,-102z"/>
        <g>
         <path class="fil3" d="M3107 2320c-5,-10 -7,-20 -12,-28 -3,-10 -7,-18 -13,-27 10,4 17,14 22,23 3,10 5,21 3,32z"/>
        </g>
       </g>
       <g>
        <g>
         <path class="fil1" d="M2995 2331c-1,2 -1,3 -2,4 -5,12 -19,50 -10,81 6,22 24,36 36,42 3,2 6,3 8,4 0,0 0,0 0,0 3,1 4,2 5,2 0,0 0,0 0,0 0,0 7,-14 11,-33 0,0 0,0 1,0 3,-16 5,-35 0,-51 -1,-5 -3,-9 -5,-13 -14,-27 -44,-36 -44,-36z"/>
        </g>
        <path class="fil2" d="M2993 2335c-5,12 -19,50 -10,81 6,22 24,36 36,42 3,2 6,3 8,4 -2,-4 -48,-85 -34,-127z"/>
        <g>
         <path class="fil3" d="M3031 2423c-4,-12 -6,-24 -9,-35 -3,-12 -8,-22 -14,-33 12,6 18,18 22,30 3,13 4,25 1,38z"/>
        </g>
       </g>
       <g>
        <g>
         <path class="fil1" d="M2913 2430c-1,1 -1,2 -2,4 -5,12 -19,50 -11,80 6,23 23,37 36,44 3,1 5,2 8,3 0,1 0,1 0,1 2,1 4,1 4,1 1,1 1,1 1,1 0,0 6,-14 11,-33 0,0 0,-1 0,-1 4,-15 6,-34 2,-51 -2,-5 -3,-9 -5,-12 -14,-28 -44,-37 -44,-37z"/>
        </g>
        <path class="fil2" d="M2911 2434c-5,12 -19,50 -11,80 6,23 23,37 36,44 3,1 5,2 8,3 -3,-4 -47,-85 -33,-127z"/>
        <g>
         <path class="fil3" d="M2948 2522c-4,-12 -6,-24 -9,-35 -3,-12 -7,-22 -13,-34 12,7 18,19 22,31 2,13 3,26 0,38z"/>
        </g>
       </g>
       <g>
        <path class="fil1" d="M2886 2615c38,-38 76,-79 111,-122 36,-42 71,-86 103,-132 32,-46 62,-93 89,-142 27,-50 49,-100 67,-153l1 0c0,-2 3,-4 5,-4 2,1 3,3 3,5 -17,54 -37,106 -62,158 -26,50 -54,100 -85,148 -32,48 -65,95 -100,140 -35,45 -71,89 -111,131 -8,9 -21,10 -27,3 -6,-8 -4,-21 4,-31 1,0 1,0 1,-1l1 0z"/>
       </g>
      </g>
      <g>
       <g>
        <path class="fil4" d="M1675 3147c59,151 53,362 48,438 -1,15 -2,25 -2,27 0,1 0,1 0,1 0,0 -7,-2 -18,-5 -81,-24 -403,-132 -481,-367 -89,-271 -57,-553 -54,-639 0,0 6,6 19,17 15,13 40,31 77,51 70,38 337,291 411,477z"/>
       </g>
       <path class="fil5" d="M1210 2731c29,82 66,160 102,238 37,78 76,156 117,231 41,76 94,144 147,212 48,59 97,116 147,173 -1,17 -2,28 -2,28 0,0 -7,-2 -18,-5 -50,-60 -99,-120 -145,-182 -52,-70 -103,-140 -142,-218 -40,-78 -76,-156 -111,-236 -34,-79 -69,-159 -95,-241z"/>
       <g>
        <path class="fil6" d="M1581 3387c20,-40 36,-81 48,-124 12,-42 19,-87 12,-131 9,44 3,89 -7,133 -10,43 -25,85 -44,126 -1,3 -4,4 -7,3 -2,-1 -3,-4 -2,-7 0,0 0,0 0,0l0 0z"/>
       </g>
       <g>
        <path class="fil6" d="M1499 3263c20,-40 36,-81 48,-124 11,-42 19,-87 12,-131 9,44 3,89 -7,133 -11,43 -25,85 -44,126 -1,3 -4,4 -7,3 -2,-1 -3,-4 -2,-7 0,0 0,0 0,0l0 0z"/>
       </g>
       <g>
        <path class="fil6" d="M1405 3117c19,-40 36,-81 47,-124 12,-42 20,-87 12,-131 9,44 3,89 -7,133 -10,43 -25,85 -43,126 -2,3 -5,4 -7,3 -3,-1 -4,-4 -3,-7 0,0 0,0 0,0l1 0z"/>
       </g>
       <g>
        <path class="fil6" d="M1316 2945c10,-35 16,-71 18,-108 3,-36 1,-74 -12,-108 15,34 18,72 17,108 0,37 -5,74 -13,111 0,2 -3,4 -6,4 -3,-1 -4,-4 -4,-6 0,-1 0,-1 0,-1l0 0z"/>
       </g>
       <g>
        <path class="fil6" d="M1532 3434c-34,-2 -68,-8 -101,-17 -32,-9 -65,-22 -91,-44 27,21 60,32 93,39 32,7 66,11 99,12l0 0c3,0 5,2 5,5 0,3 -2,5 -5,5 0,0 0,0 0,0z"/>
       </g>
       <g>
        <path class="fil6" d="M1443 3308c-34,-3 -67,-9 -100,-17 -33,-10 -65,-22 -91,-44 27,20 60,31 92,39 33,7 67,11 100,11l0 0c3,1 5,3 5,6 0,2 -2,5 -5,5 0,0 0,0 -1,0z"/>
       </g>
       <g>
        <path class="fil6" d="M1353 3164c-32,-13 -62,-28 -91,-46 -28,-18 -56,-40 -74,-69 20,28 48,48 77,65 29,16 60,30 92,40l0 0c2,1 4,4 3,7 -1,2 -4,4 -7,3 0,0 0,0 0,0z"/>
       </g>
       <g>
        <path class="fil6" d="M1275 2991c-22,-18 -43,-38 -61,-59 -18,-22 -34,-46 -42,-73 9,27 27,49 46,70 19,20 40,38 63,54l0 0c2,1 3,4 1,7 -2,2 -5,3 -7,1 0,0 0,0 0,0z"/>
       </g>
       <path class="fil5" d="M1675 3147c59,151 53,362 48,438 -1,15 -2,25 -2,27 -37,-189 -100,-372 -205,-535 -74,-114 -169,-213 -245,-325 -26,-38 -52,-77 -76,-116 -2,-4 -5,-10 -8,-17 15,13 40,31 77,51 70,38 337,291 411,477z"/>
      </g>
      <g>
       <g>
        <path class="fil1" d="M1803 3146c0,162 -83,357 -115,425 -7,14 -11,23 -12,25 0,1 0,1 0,1 0,0 -6,-4 -15,-12 -67,-51 -327,-269 -314,-517 16,-284 149,-535 183,-614 0,0 3,8 11,23 10,17 26,43 53,75 51,61 208,394 209,594z"/>
       </g>
       <path class="fil5" d="M1522 2589c-3,87 2,173 8,259 6,87 13,173 25,258 10,86 35,168 60,251 22,72 47,144 73,214 -8,17 -12,26 -12,26 0,0 -6,-4 -15,-12 -25,-73 -48,-147 -69,-222 -22,-83 -45,-168 -52,-255 -9,-86 -14,-173 -18,-259 -2,-87 -6,-173 0,-260z"/>
       <g>
        <path class="fil6" d="M1628 3335c33,-29 63,-62 90,-97 26,-35 49,-74 59,-118 -8,44 -30,84 -55,121 -26,37 -55,70 -87,102 -2,2 -5,2 -7,0 -2,-2 -2,-5 0,-7 0,0 0,-1 0,-1l0 0z"/>
       </g>
       <g>
        <path class="fil6" d="M1597 3190c32,-30 63,-62 89,-98 27,-35 50,-74 59,-117 -7,44 -29,84 -54,120 -26,37 -55,71 -87,102 -2,2 -6,2 -8,0 -1,-2 -1,-5 1,-7 0,0 0,0 0,0l0 0z"/>
       </g>
       <g>
        <path class="fil6" d="M1562 3020c33,-30 63,-63 90,-98 26,-35 49,-74 59,-118 -8,44 -30,84 -55,121 -26,37 -55,71 -87,102 -2,2 -5,2 -7,0 -2,-2 -2,-5 0,-7 0,0 0,0 0,0l0 0z"/>
       </g>
       <g>
        <path class="fil6" d="M1543 2828c21,-30 40,-61 56,-94 15,-33 28,-69 28,-106 1,37 -10,74 -23,108 -15,34 -32,66 -53,98 -2,2 -5,3 -7,1 -2,-2 -3,-5 -1,-7 0,0 0,0 0,0l0 0z"/>
       </g>
       <g>
        <path class="fil6" d="M1565 3361c-31,-14 -60,-32 -87,-52 -27,-20 -53,-44 -69,-74 17,29 44,51 71,70 28,18 58,34 89,47l0 0c3,1 4,4 3,7 -1,2 -4,4 -7,3 0,0 0,0 0,-1z"/>
       </g>
       <g>
        <path class="fil6" d="M1529 3211c-31,-14 -60,-32 -88,-52 -27,-21 -52,-44 -68,-74 17,29 44,51 71,70 28,18 58,34 89,47l0 0c3,1 4,4 3,7 -1,2 -4,4 -7,3 0,-1 0,-1 0,-1z"/>
       </g>
       <g>
        <path class="fil6" d="M1497 3045c-25,-24 -48,-49 -68,-76 -20,-28 -37,-58 -44,-91 9,33 27,61 48,88 21,26 45,50 71,71l0 0c2,2 2,5 1,7 -2,2 -5,3 -8,1 0,0 0,0 0,0z"/>
       </g>
       <g>
        <path class="fil6" d="M1487 2855c-14,-25 -26,-50 -35,-77 -9,-27 -15,-55 -12,-83 -1,28 7,55 17,81 10,26 24,50 39,73l0 1c2,2 1,5 -1,7 -3,1 -6,0 -7,-2 -1,0 -1,0 -1,0z"/>
       </g>
       <g>
        <path class="fil4" d="M1803 3146c0,162 -83,357 -115,425 -7,14 -11,23 -12,25 35,-190 43,-383 4,-573 -27,-133 -79,-260 -109,-392 -10,-45 -20,-90 -28,-136 -1,-4 -1,-11 -2,-18 10,17 26,43 53,75 51,61 208,394 209,594z"/>
       </g>
      </g>
     </g>
     <g>
      <g>
       <polygon class="fil7" points="3982,3247 3982,3564 3600,3604 3600,3287 "/>
       <polygon class="fil8" points="3600,3287 3600,3604 1821,3604 1821,3287 "/>
       <path class="fil9" d="M1821 3287l0 132 813 0c16,-30 48,-50 84,-50 36,0 67,20 83,50l775 0 24 -132 -1779 0z"/>
       <path class="fil10" d="M1821 3287l-36 96 848 0c16,-30 47,-50 84,-50 36,0 67,20 83,50l776 0 24 -96 -1779 0z"/>
       <polygon class="fil11" points="3982,3271 3982,3387 3639,3417 3600,3287 "/>
       <polygon class="fil7" points="3600,3287 3657,3392 4021,3359 3982,3247 "/>
       <polygon class="fil7" points="3982,3247 3600,3287 1821,3287 2090,3247 "/>
       <path class="fil6" d="M3982 3247l-382 40 -829 0c8,-17 609,-11 639,-20 10,-3 6,-11 -3,-20l575 0z"/>
      </g>
      <g>
       <polygon class="fil8" points="3927,2983 3438,3013 3108,2954 3637,2920 "/>
       <polygon class="fil12" points="3404,3296 3143,3223 3062,3088 3053,3073 3387,3167 3388,3178 "/>
       <path class="fil13" d="M3404 3296l-261 -73c0,0 76,-9 138,4 63,13 106,-60 106,-60l17 129z"/>
       <polygon class="fil10" points="3979,3107 3975,3119 3935,3242 3404,3296 3388,3178 3387,3167 "/>
       <path class="fil14" d="M3979 3107l-44 135 -531 54c0,0 264,-56 361,-66 98,-10 214,-123 214,-123z"/>
       <polygon class="fil15" points="3388,3178 3062,3088 3053,3073 3387,3167 "/>
       <polygon class="fil7" points="3438,3013 3438,3013 3386,3167 3034,3068 3108,2954 "/>
       <path class="fil13" d="M3438 3013l-52 154 -352 -99c0,0 93,11 188,30 94,19 213,-82 216,-85z"/>
       <polygon class="fil9" points="3979,3107 3975,3119 3388,3178 3387,3167 "/>
       <polygon class="fil7" points="3438,3013 3386,3167 4008,3104 3927,2983 "/>
      </g>
      <g>
       <path class="fil16" d="M3002 2655c0,0 -20,4 -23,15 -5,18 29,21 29,21l-49 7 -10 -41 38 -8 15 6z"/>
       <polygon class="fil17" points="2831,3299 2769,3225 2813,2623 "/>
       <polygon class="fil18" points="2813,2623 2695,3228 2769,3225 "/>
       <polygon class="fil19" points="2695,3228 2831,3299 2769,3225 "/>
       <polygon class="fil20" points="2695,3228 2831,3299 2769,3225 "/>
       <path class="fil8" d="M3212 2899l-11 -274 -123 -1 -47 0 -218 -1 18 676c0,0 0,0 0,0l231 -26 165 -19 -15 -355zm-139 -214l0 0 -94 1c-7,0 -13,-5 -13,-11l0 -6c0,-6 6,-12 12,-12l94 -1c7,0 12,5 13,12l0 5c0,7 -6,12 -12,12z"/>
       <path class="fil14" d="M3227 3254l-396 45c1,-1 3,-1 6,-3 156,-74 266,-217 296,-385 30,-166 68,-286 68,-286l26 629z"/>
       <g>
        <path class="fil21" d="M2882 3180c-10,-76 -15,-153 -19,-229 -3,-76 -4,-153 1,-229 11,76 15,152 19,228 3,77 4,153 -1,230z"/>
       </g>
       <path class="fil14" d="M3227 3254c0,0 -165,19 -165,19 14,-2 110,-121 139,-300 2,-17 -7,-63 11,-74l15 355z"/>
       <g>
        <path class="fil21" d="M2951 3135c-2,0 -5,-1 -6,-2 -2,-2 -4,-5 -4,-7l-18 -362c0,-3 1,-6 3,-8 2,-1 4,-3 7,-3l198 -1c0,0 0,0 0,0 5,0 10,4 10,9l25 349c0,5 -4,10 -9,10l-205 15c0,0 -1,0 -1,0zm-8 -362l0 0 17 342 186 -14 -24 -330 -179 2z"/>
       </g>
      </g>
      <g>
       <path class="fil16" d="M3553 2309c0,0 -21,6 -24,18 -6,20 32,22 32,22l-53 9 -13 -45 42 -10 16 6z"/>
       <polygon class="fil17" points="3387,3020 3317,2941 3345,2280 "/>
       <polygon class="fil18" points="3345,2280 3236,2947 3317,2941 "/>
       <polygon class="fil19" points="3236,2947 3387,3020 3317,2941 "/>
       <polygon class="fil20" points="3236,2947 3387,3020 3317,2941 "/>
       <path class="fil8" d="M3792 2570l-21 -300 -135 3 -52 2 -239 5 42 740c0,0 0,0 0,0l252 -36 180 -26 -27 -388zm-160 -230l0 0 -103 4c-7,1 -14,-5 -14,-12l0 -6c-1,-7 5,-13 13,-13l102 -5c8,0 14,6 14,13l1 6c0,7 -6,13 -13,13z"/>
       <path class="fil14" d="M3819 2958l-432 62c1,-1 3,-2 6,-3 169,-86 285,-247 313,-431 27,-183 65,-316 65,-316l48 688z"/>
       <g>
        <path class="fil21" d="M3439 2888c-14,-83 -22,-167 -28,-250 -5,-84 -9,-167 -7,-251 14,83 22,166 28,249 6,84 10,168 7,252z"/>
       </g>
       <path class="fil14" d="M3819 2958c0,0 -180,26 -180,26 15,-2 116,-136 142,-332 3,-20 -9,-69 11,-82l27 388z"/>
       <g>
        <path class="fil21" d="M3513 2837c-3,0 -5,-1 -7,-3 -2,-2 -4,-4 -4,-7l-31 -396c0,-3 1,-6 3,-8 2,-2 4,-4 7,-4l217 -8c6,0 11,4 11,10l38 381c1,6 -3,11 -9,12l-224 23c0,0 -1,0 -1,0zm-20 -397l0 0 30 374 202 -20 -36 -361 -196 7z"/>
       </g>
      </g>
     </g>
     <g>
      <path class="fil16" d="M3024 3410c0,116 -80,212 -179,212l-1069 4c-49,0 -94,-23 -126,-61 -33,-38 -54,-91 -54,-150l-2 -400 -1 -229 -4 -1110 -3 -859c0,-116 79,-212 178,-212l1070 -4c54,-1 102,27 135,72 28,37 45,86 45,139l3 938 1 229 3 589 3 842z"/>
      <g>
       <path class="fil22" d="M2969 899l10 2497c0,88 -60,159 -134,160l-1070 4c-74,0 -134,-71 -134,-159l-10 -2497c0,-87 60,-159 134,-159l1070 -4c62,0 114,49 130,117 3,13 4,27 4,41z"/>
      </g>
      <g>
       <path class="fil9" d="M1843 3406c-77,0 -140,-73 -140,-161l-8 -2199c-1,-89 62,-162 139,-162l942 -4c64,0 119,49 136,120 3,13 4,27 4,41l9 2199c0,43 -14,83 -40,113 -26,32 -62,49 -100,49l-942 4z"/>
       <g>
        <path class="fil16" d="M2895 1041l8 2199c0,78 -52,140 -118,141l-942 3c-65,0 -118,-62 -118,-139l-9 -2199c0,-78 53,-140 118,-141l942 -3c55,0 101,43 115,103 2,11 4,24 4,36z"/>
       </g>
      </g>
      <g>
       <g>
        <polygon class="fil23" points="2042,3383 2499,903 2565,903 2108,3383 "/>
       </g>
       <g>
        <polygon class="fil23" points="2896,1475 1718,1380 1717,1336 2896,1432 "/>
       </g>
       <g>
        <polygon class="fil23" points="2899,2064 1720,1969 1720,1926 2898,2021 "/>
       </g>
       <g>
        <path class="fil23" d="M2896 1295l-1176 -285c3,-14 8,-28 15,-40l1161 281 0 44z"/>
       </g>
       <g>
        <polygon class="fil23" points="2901,2609 1722,2514 1722,2471 2900,2566 "/>
       </g>
       <g>
        <polygon class="fil23" points="2902,3104 1724,3008 1723,2965 2902,3060 "/>
       </g>
       <g>
        <path class="fil23" d="M2130 1981l-43 -4c19,-217 53,-220 68,-221 32,-2 197,18 216,20l-6 43c-64,-8 -171,-20 -202,-20 -12,20 -27,108 -33,182z"/>
       </g>
       <g>
        <path class="fil23" d="M2702 2587c0,0 -1,0 -1,0 -8,-1 -15,-8 -14,-17l10 -147c-100,-14 -237,-31 -264,-29 -8,15 -16,80 -19,135 -1,8 -7,14 -16,14 -8,0 -15,-7 -14,-16 8,-151 29,-159 37,-162 20,-7 193,16 295,30 7,2 13,9 13,17l-12 161c-1,8 -7,14 -15,14z"/>
       </g>
       <g>
        <path class="fil23" d="M1968 2527c0,0 0,0 0,0 -8,0 -15,-7 -15,-15 2,-119 14,-260 61,-260 0,0 0,0 0,0 42,0 146,12 151,13 8,1 14,8 13,16 -1,9 -8,15 -17,14 -1,0 -107,-13 -148,-13 -13,10 -28,116 -29,230 -1,9 -7,15 -16,15z"/>
       </g>
       <g>
        <path class="fil23" d="M1954 1988c-2,0 -3,0 -4,-1 -12,-2 -20,-13 -18,-25l78 -419 243 17c11,1 20,12 20,23 -1,12 -12,21 -23,21l-205 -15 -70 381c-2,11 -11,18 -21,18z"/>
       </g>
       <g>
        <path class="fil23" d="M2169 1420c0,0 -1,0 -1,0 -5,-1 -8,-5 -7,-10l75 -407 231 16c5,1 8,4 8,9 -1,4 -4,8 -9,7l-217 -15 -72 393c-1,4 -4,7 -8,7z"/>
       </g>
       <g>
        <path class="fil23" d="M2461 1873c-43,0 -86,-8 -94,-9 -8,-1 -13,-9 -12,-18 2,-8 10,-13 18,-12 27,5 105,16 137,2 22,-16 59,-216 81,-392 1,-8 8,-14 16,-13 9,1 15,8 14,17 -18,147 -55,398 -99,416 -16,7 -39,9 -61,9z"/>
       </g>
       <g>
        <path class="fil23" d="M2828 1876c-34,0 -78,-4 -98,-20 -9,-9 -12,-19 -12,-25 -2,-35 58,-330 71,-389l42 9c-33,160 -68,340 -70,373 13,8 61,11 105,7l3 44c-8,0 -23,1 -41,1z"/>
       </g>
       <g>
        <path class="fil23" d="M2620 3291c-1,0 -1,0 -2,0 -372,-54 -370,-65 -368,-83 2,-14 32,-171 33,-178 1,-8 9,-13 17,-12 9,2 14,10 13,18 -8,39 -26,134 -31,166 38,12 197,38 340,59 8,1 14,8 13,17 -1,7 -8,13 -15,13z"/>
       </g>
       <g>
        <path class="fil23" d="M2645 3069c-1,0 -1,0 -1,0 -5,0 -8,-5 -7,-9 4,-28 41,-260 55,-300 -28,-14 -229,-37 -251,-28 -9,13 -35,169 -54,309 -1,4 -5,7 -9,7 -5,-1 -8,-5 -7,-9 16,-115 45,-308 61,-320 20,-15 250,10 272,30 6,5 6,11 4,14 -8,14 -38,191 -55,299 -1,4 -4,7 -8,7z"/>
       </g>
       <g>
        <path class="fil23" d="M1780 3006c-1,0 -1,0 -2,0 -8,-1 -14,-8 -13,-17 35,-260 48,-270 54,-274 3,-2 8,-4 12,-3 3,0 11,1 22,1 157,6 213,20 216,54 4,43 -25,146 -28,158 -2,8 -11,13 -19,10 -8,-2 -13,-10 -10,-18 8,-30 30,-116 27,-147 -3,-6 -29,-21 -187,-27 -6,0 -11,0 -15,0 -10,30 -28,145 -42,250 -1,8 -8,13 -15,13z"/>
       </g>
       <g>
        <path class="fil23" d="M1985 3217l-8 0c-61,-7 -168,-20 -253,-31l0 -16c75,10 173,21 248,30l16 -87 -144 -23c-5,-1 -8,-5 -7,-10 1,-4 5,-7 9,-6l161 25 -22 118zm-263 -733l68 6c9,-55 66,-376 76,-412 11,-39 266,13 417,47 4,1 7,6 6,10 -1,4 -5,7 -9,6 -183,-41 -383,-74 -399,-57 -10,36 -76,412 -76,416l-2 7 -81 -7 0 -16z"/>
       </g>
       <g>
        <path class="fil23" d="M2260 2917c0,0 -1,0 -2,0 -9,-2 -14,-10 -12,-18l63 -343c1,-8 9,-14 17,-12 9,1 14,9 12,18l-63 343c-1,7 -7,12 -15,12z"/>
       </g>
       <g>
        <g>
         <path class="fil23" d="M2762 2298c-55,0 -174,-12 -353,-38l-16 -2 43 -234c2,-8 10,-13 18,-12 8,2 13,10 12,18l-37 202c157,22 325,41 351,36 10,-15 26,-123 35,-215 1,-8 9,-14 17,-13 8,1 14,8 13,16 -9,100 -26,223 -48,238 -4,3 -16,4 -35,4zm20 -30l0 0 0 0z"/>
        </g>
       </g>
      </g>
      <g>
       <g>
        <path class="fil19" d="M2331 2002c0,0 0,0 -1,0l-322 -26c-3,0 -6,-3 -5,-6 0,-3 2,-5 5,-5l318 26 106 -576c1,-2 3,-4 6,-4l372 30c2,0 3,1 4,2 1,1 1,3 1,4l-58 295c0,3 -3,5 -6,5 -3,-1 -5,-4 -4,-7l56 -289 -361 -29 -106 576c0,2 -3,4 -5,4z"/>
       </g>
       <g>
        <path class="fil24" d="M2739 1533c-14,-13 -33,-21 -54,-21 -43,0 -78,34 -78,76 0,4 1,8 1,12 2,24 22,61 42,89 7,11 14,21 20,29 6,9 19,9 26,0 17,-23 48,-65 59,-99 5,-9 8,-20 8,-31 0,-22 -9,-41 -24,-55zm-90 42l0 0c0,-20 16,-36 36,-36 7,0 14,3 20,6 0,0 0,0 0,1 10,6 16,17 16,29 0,20 -16,36 -36,36 -12,0 -23,-6 -29,-15 -5,-6 -7,-13 -7,-21z"/>
        <path class="fil16" d="M2721 1575c0,20 -16,36 -36,36 -12,0 -23,-6 -29,-15 5,4 12,7 20,7 20,0 36,-16 36,-36 0,-8 -2,-16 -7,-21 10,6 16,17 16,29z"/>
        <path class="fil25" d="M2763 1588c0,11 -3,22 -8,31 -11,34 -42,76 -59,99 -7,9 -20,9 -26,0 -6,-8 -13,-18 -20,-29 18,9 38,8 54,-10 26,-31 53,-82 43,-123 -2,-5 -4,-14 -8,-23 15,14 24,33 24,55z"/>
       </g>
       <g>
        <g>
         <g>
          <path class="fil19" d="M2077 1746c-14,-13 -33,-22 -54,-22 -43,0 -77,35 -77,77 0,4 0,8 1,12 1,24 22,61 41,89 7,11 14,21 20,29 6,9 20,9 26,0 18,-23 48,-65 60,-99 4,-9 7,-20 7,-31 0,-22 -9,-41 -24,-55zm-90 42l0 0c0,-20 16,-36 36,-36 8,0 15,3 20,6 1,0 1,0 1,1 9,6 15,17 15,29 0,20 -16,36 -36,36 -12,0 -23,-6 -29,-15 -4,-6 -7,-13 -7,-21z"/>
         </g>
        </g>
        <path class="fil16" d="M2059 1788c0,20 -16,36 -36,36 -12,0 -23,-6 -29,-15 6,4 13,7 20,7 20,0 37,-16 37,-36 0,-8 -3,-16 -7,-21 9,6 15,17 15,29z"/>
        <path class="fil25" d="M2101 1801c0,11 -3,22 -7,31 -12,34 -42,76 -60,99 -6,9 -20,9 -26,0 -6,-8 -13,-18 -20,-29 18,9 38,8 54,-10 27,-31 54,-82 43,-123 -2,-5 -4,-14 -8,-23 15,14 24,33 24,55z"/>
       </g>
      </g>
      <path class="fil26" d="M3017 1750l-1424 1036 -4 -1110 1380 -1003c28,37 45,86 45,139l3 938z"/>
      <path class="fil26" d="M3021 2568l-1371 997c-33,-38 -54,-91 -54,-150l-2 -400 1424 -1036 3 589z"/>
     </g>
     <g>
      <g>
       <g>
        <path class="fil22" d="M2554 254c0,132 -108,238 -242,238 -134,0 -243,-106 -243,-238 0,-132 109,-239 243,-239 134,0 242,107 242,239z"/>
       </g>
       <g>
        <path class="fil19" d="M2543 238c0,132 -107,238 -239,238 -68,0 -130,-28 -173,-74 -36,-39 -60,-89 -64,-145 -1,-6 -1,-13 -1,-19l0 -1c0,-131 107,-237 238,-237 37,0 72,8 103,23 5,2 10,5 14,7 47,27 85,69 104,120 1,1 1,2 2,3 10,26 16,55 16,85z"/>
       </g>
       <g>
        <g>
         <path class="fil23" d="M2468 238c0,90 -73,164 -164,164 -91,0 -164,-74 -164,-164 0,-91 73,-164 164,-164 91,0 164,73 164,164z"/>
        </g>
        <g>
         <path class="fil22" d="M2309 126l-2 111 136 1c0,0 -3,-111 -134,-112z"/>
        </g>
        <g>
         <path class="fil19" d="M2310 245c-3,0 -5,-1 -6,-2 -2,-2 -3,-4 -3,-6l0 -120c0,-4 4,-8 9,-8 4,0 8,4 8,8l0 111 127 0c4,0 8,4 8,9 0,4 -4,8 -8,8l-135 0z"/>
        </g>
        <path class="fil19" d="M2344 232c0,18 -14,32 -32,32 -17,0 -32,-14 -32,-32 0,-17 15,-32 32,-32 18,0 32,15 32,32z"/>
       </g>
       <g>
        <path class="fil19" d="M2325 237c0,10 -8,18 -18,18 -10,0 -18,-8 -18,-18 0,-10 8,-18 18,-18 10,0 18,8 18,18z"/>
       </g>
       <path class="fil27" d="M2527 153l-396 249c-36,-39 -60,-89 -64,-145 -1,-6 -1,-13 -1,-19l0 -1 341 -214c5,2 10,5 14,7 47,27 85,69 104,120 1,1 1,2 2,3z"/>
      </g>
      <g>
       <g>
        <path class="fil22" d="M1336 1176c0,132 -109,238 -243,238 -133,0 -242,-106 -242,-238 0,-132 109,-239 242,-239 134,0 243,107 243,239z"/>
       </g>
       <g>
        <path class="fil19" d="M1324 1160c0,132 -106,238 -238,238 -68,0 -130,-28 -173,-74 -37,-39 -60,-89 -65,-145 0,-6 -1,-13 -1,-19l0 -1c1,-131 108,-237 239,-237 37,0 72,8 103,23 5,2 10,5 14,7 47,27 84,69 104,120 1,1 1,2 2,3 10,26 15,55 15,85z"/>
       </g>
       <g>
        <g>
         <path class="fil23" d="M1250 1160c0,91 -74,164 -164,164 -91,0 -164,-73 -164,-164 0,-91 73,-164 164,-164 90,0 164,73 164,164z"/>
        </g>
        <g>
         <path class="fil19" d="M1181 1128c0,21 -15,38 -34,44l0 78 0 14 -122 0 0 -14 -1 -78c-19,-6 -33,-23 -33,-44 0,-26 21,-38 47,-38 1,0 3,0 4,0 7,-20 24,-34 44,-34 19,0 36,14 43,34 2,0 3,0 4,0 26,0 48,12 48,38z"/>
        </g>
       </g>
       <g>
        <path class="fil19" d="M1107 1159c0,10 -8,18 -18,18 -10,0 -18,-8 -18,-18 0,-10 8,-18 18,-18 10,0 18,8 18,18z"/>
       </g>
       <path class="fil27" d="M1309 1075l-396 249c-37,-39 -60,-89 -65,-145 0,-6 -1,-13 -1,-19l0 -1 342 -214c5,2 10,5 14,7 47,27 84,69 104,120 1,1 1,2 2,3z"/>
      </g>
      <g>
       <g>
        <path class="fil22" d="M3759 1176c0,132 -108,238 -242,238 -134,0 -242,-106 -242,-238 0,-132 108,-239 242,-239 134,0 242,107 242,239z"/>
       </g>
       <g>
        <path class="fil19" d="M3748 1160c0,132 -107,238 -239,238 -68,0 -129,-28 -173,-74 -36,-39 -60,-89 -64,-145 -1,-6 -1,-13 -1,-19l0 -1c0,-131 107,-237 238,-237 37,0 72,8 103,23 5,2 10,5 15,7 47,27 84,69 104,120 0,1 1,2 1,3 10,26 16,55 16,85z"/>
       </g>
       <g>
        <g>
         <path class="fil23" d="M3673 1160c0,91 -73,164 -164,164 -90,0 -164,-73 -164,-164 0,-91 74,-164 164,-164 91,0 164,73 164,164z"/>
        </g>
        <g>
         <g>
          <path class="fil19" d="M3572 1073c-14,-14 -34,-22 -55,-22 -44,0 -80,35 -80,78 0,4 1,8 2,13 1,24 22,61 42,91 7,11 14,21 20,29 7,9 20,9 27,0 18,-23 49,-67 61,-101 5,-10 7,-21 7,-32 0,-22 -9,-42 -24,-56zm-92 43l0 0c0,-20 16,-36 37,-36 8,0 15,2 21,6 0,0 0,0 0,0 9,7 16,18 16,30 0,21 -17,37 -37,37 -13,0 -23,-6 -30,-15 -4,-6 -7,-14 -7,-22z"/>
         </g>
        </g>
       </g>
       <path class="fil27" d="M3732 1075l-396 249c-36,-39 -60,-89 -64,-145 -1,-6 -1,-13 -1,-19l0 -1 341 -214c5,2 10,5 15,7 47,27 84,69 104,120 0,1 1,2 1,3z"/>
      </g>
      <g>
       <path class="fil19" d="M3467 829c-6,-13 -12,-26 -19,-39l10 -5c7,13 13,27 19,40l-10 4zm-40 -76l0 0c-7,-12 -15,-24 -23,-36l8 -6c9,12 17,24 24,36l-9 6zm-49 -70l0 0c-9,-11 -18,-22 -28,-33l8 -7c10,11 19,22 28,33l-8 7zm-57 -64l0 0c-10,-10 -21,-20 -31,-30l7 -8c11,10 21,20 31,30l-7 8zm-64 -58l0 0c-11,-9 -22,-18 -33,-27l6 -8c12,9 23,18 34,27l-7 8zm-68 -52l0 0c-12,-8 -24,-16 -36,-24l6 -9c12,8 24,16 36,24l-6 9zm-72 -46l0 0c-13,-8 -25,-15 -38,-21l5 -10c13,7 26,14 38,21l-5 10zm-76 -41l0 0c-13,-7 -26,-13 -39,-19l5 -10c13,6 26,13 39,19l-5 10zm-78 -36l0 0c-13,-6 -27,-11 -40,-17l4 -10c13,6 27,11 40,17l-4 10zm-80 -32l0 0c-14,-4 -27,-9 -41,-13l3 -11c14,5 28,9 41,14l-3 10zm-82 -26l0 0c-14,-4 -28,-8 -42,-12l3 -10c14,4 28,8 42,12l-3 10zm-84 -22l0 0c-14,-3 -28,-7 -42,-10l3 -10c14,3 28,6 42,9l-3 11zm-84 -18l0 0c-14,-2 -28,-5 -42,-7l1 -11c15,2 29,5 43,7l-2 11z"/>
      </g>
      <g>
       <path class="fil19" d="M1118 862l-10 -4c5,-14 10,-27 16,-41l10 5c-6,13 -11,26 -16,40zm35 -78l0 0 -9 -6c7,-12 14,-25 22,-37l9 6c-8,12 -15,24 -22,37zm46 -73l0 0 -9 -6c8,-12 17,-24 26,-35l9 7c-9,11 -18,23 -26,34zm54 -66l0 0 -8 -8c10,-10 20,-21 30,-31l8 8c-11,10 -21,20 -30,31zm61 -61l0 0 -7 -8c10,-9 21,-19 33,-28l6 8c-11,9 -22,19 -32,28zm66 -54l0 0 -6 -9c11,-9 23,-17 35,-25l6 9c-12,8 -23,16 -35,25zm71 -49l0 0 -6 -9c13,-8 25,-15 38,-23l5 10c-13,7 -25,14 -37,22zm75 -43l0 0 -6 -10c13,-6 26,-13 39,-20l5 10c-13,7 -26,13 -38,20zm77 -38l0 0 -5 -10c13,-6 27,-12 40,-17l4 10c-13,5 -26,11 -39,17zm79 -33l0 0 -4 -10c14,-6 27,-11 41,-15l4 10c-14,5 -27,10 -41,15zm81 -29l0 0 -3 -10c14,-4 28,-9 42,-13l3 11c-14,4 -28,8 -42,12zm83 -24l0 0 -2 -10c13,-4 27,-7 42,-10l2 10c-14,3 -28,7 -42,10zm84 -19l0 0 -2 -11c14,-3 28,-5 43,-8l1 11c-14,2 -28,5 -42,8z"/>
      </g>
      <g>
       <polygon class="fil19" points="3496,867 3492,786 3423,830 "/>
      </g>
      <g>
       <polygon class="fil19" points="2021,281 1945,251 1956,332 "/>
      </g>
     </g>
    </g>
   </g>
  </g>
 </g>
</svg>
