<?xml version="1.0" encoding="UTF-8"?>
<!DOCTYPE svg PUBLIC "-//W3C//DTD SVG 1.1//EN" "http://www.w3.org/Graphics/SVG/1.1/DTD/svg11.dtd">
<!-- Creator: CorelDRAW X7 -->
<svg xmlns="http://www.w3.org/2000/svg" xml:space="preserve" width="0.758614in" height="0.693622in" version="1.1" style="shape-rendering:geometricPrecision; text-rendering:geometricPrecision; image-rendering:optimizeQuality; fill-rule:evenodd; clip-rule:evenodd"
viewBox="0 0 759 694"
 xmlns:xlink="http://www.w3.org/1999/xlink">
 <defs>
  <style type="text/css">
   <![CDATA[
    .fil0 {fill:#00AFEF}
   ]]>
  </style>
 </defs>
 <g id="Layer_x0020_1">
  <metadata id="CorelCorpID_0Corel-Layer"/>
  <g id="_1016307792">
   <path class="fil0" d="M95 207c0,21 -2,12 23,42 10,11 24,26 31,37 -39,59 -84,74 -26,87 11,3 25,6 33,10l0 172c9,6 211,112 223,112 12,0 95,-46 112,-54 33,-17 81,-38 111,-58l0 -172c8,-4 23,-7 34,-10 58,-13 13,-28 -27,-87l45 -53c10,-12 9,-6 9,-26 -12,-3 -24,-8 -37,-10 -16,-4 -24,-6 -40,-10 -29,-7 -54,-14 -81,-20 -1,14 -3,9 -3,25 28,1 100,28 129,29 -10,15 -18,23 -28,37 -15,19 -14,16 -42,11 -39,-7 -78,-11 -113,-19l-19 21c28,3 60,12 87,15 -1,0 -2,0 -3,1l-134 23 -128 -21c-1,-1 -2,-1 -3,-1 -1,-1 -2,-1 -3,-1 0,0 -1,-1 -2,-1 27,-3 59,-12 86,-15l-19 -21c-34,8 -72,12 -109,19 -29,5 -31,15 -73,-48 28,-1 101,-28 129,-29 0,-16 -2,-11 -3,-25 -27,6 -51,13 -78,20l-81 20z"/>
   <path class="fil0" d="M329 153c0,37 -98,-30 -19,58 18,20 48,60 69,71 22,-12 20,-16 35,-33 6,-6 64,-69 65,-76 2,-24 -49,6 -49,-20l0 -126 -101 0 0 126z"/>
  </g>
 </g>
</svg>
