<?xml version="1.0" encoding="UTF-8"?>
<!DOCTYPE svg PUBLIC "-//W3C//DTD SVG 1.1//EN" "http://www.w3.org/Graphics/SVG/1.1/DTD/svg11.dtd">
<!-- Creator: CorelDRAW X7 -->
<svg xmlns="http://www.w3.org/2000/svg" xml:space="preserve" width="0.717047in" height="0.693622in" version="1.1" style="shape-rendering:geometricPrecision; text-rendering:geometricPrecision; image-rendering:optimizeQuality; fill-rule:evenodd; clip-rule:evenodd"
viewBox="0 0 717 694"
 xmlns:xlink="http://www.w3.org/1999/xlink">
 <defs>
  <style type="text/css">
   <![CDATA[
    .fil0 {fill:#00AFEF}
   ]]>
  </style>
 </defs>
 <g id="Layer_x0020_1">
  <metadata id="CorelCorpID_0Corel-Layer"/>
  <g id="_887800912">
   <path class="fil0" d="M389 216l0 -54 30 0 0 53c-1,-1 -13,-17 -13,-20 -5,1 -12,18 -17,21zm-20 81l164 0 0 -147 -164 0 0 147z"/>
   <path class="fil0" d="M205 215l0 -53 30 0 0 54c0,0 -1,-1 -2,-2l-5 -8c-4,-6 -6,-10 -9,-11 -1,3 -4,7 -6,10 -2,3 -6,9 -8,10zm-21 82l164 0 0 -147 -163 0 -1 147z"/>
   <path class="fil0" d="M185 150l163 0 0 147 -164 0 1 -147zm-2 148l166 0 0 -149 -166 0 0 149z"/>
   <path class="fil0" d="M369 150l164 0 0 147 -164 0 0 -147zm-1 148l166 0 0 -149 -166 0 0 149z"/>
   <g>
    <path class="fil0" d="M113 386l0 -54 30 0 0 54c-3,-2 -6,-8 -8,-11 -4,-5 -5,-9 -9,-10 -1,4 -4,7 -6,10l-5 8c-1,1 -1,2 -2,3zm-21 81l164 0 0 -147 -164 0 0 147z"/>
    <path class="fil0" d="M482 386l0 -54 30 0 0 54 -4 -5c-1,-2 -2,-3 -3,-6 -2,-3 -6,-8 -8,-10 -4,4 -11,18 -15,21zm143 81l0 -147 -164 0 0 147 164 0z"/>
    <path class="fil0" d="M298 386l0 -54 30 0 0 55 -8 -11c-2,-3 -5,-9 -8,-11l-14 21zm-21 81l163 0 0 -147 -163 0 0 147z"/>
    <path class="fil0" d="M277 320l163 0 0 147 -163 0 0 -147zm-1 149l165 0 0 -149 -165 0 0 149z"/>
    <path class="fil0" d="M625 467l-164 0 0 -147 164 0c-5,-2 -145,0 -164,0l0 149 144 0c3,0 6,0 9,0l2 0 7 -1c3,0 1,0 2,-1z"/>
    <path class="fil0" d="M92 467l1 1c1,0 1,0 2,1l161 0 0 0 0 -149c-19,0 -159,-2 -164,0l164 0 0 147 -164 0z"/>
   </g>
   <g>
    <path class="fil0" d="M22 565l0 -54 30 0 0 54c-3,-2 -6,-8 -8,-11 -4,-5 -5,-8 -9,-10 -1,4 -4,7 -6,10l-5 8c-1,1 -1,2 -2,3zm-21 82l164 0 0 -148 -164 0 0 148z"/>
    <path class="fil0" d="M207 565l0 -54 30 0 0 55 -8 -11c-2,-3 -5,-9 -8,-11l-14 21zm-21 82l163 0 0 -148 -163 0 0 148z"/>
    <path class="fil0" d="M186 499l163 0 0 148 -163 0 0 -148zm-1 149l165 0 0 -149 -165 0 0 149z"/>
    <g>
     <path class="fil0" d="M391 565l0 -54 30 0 0 54 -4 -5c-1,-2 -2,-3 -3,-6 -2,-2 -6,-8 -8,-10 -4,4 -11,18 -15,21zm143 81l0 -147 -164 0 0 147 164 0z"/>
     <path class="fil0" d="M534 646l-164 0 0 -147 164 0c-5,-2 -145,0 -164,0l0 149 144 0c3,0 6,0 9,0l2 0 7 -1c2,0 1,0 2,-1z"/>
    </g>
    <g>
     <path class="fil0" d="M573 565l0 -54 30 0 0 54 -4 -5c-1,-2 -2,-3 -3,-6 -2,-2 -6,-8 -8,-10 -4,4 -11,18 -15,21zm143 81l0 -147 -164 0 0 147 164 0z"/>
     <path class="fil0" d="M716 646l-164 0 0 -147 164 0c-5,-2 -145,0 -164,0l0 149 144 0c3,0 6,0 9,0l2 0 7 -1c3,0 1,0 2,-1z"/>
    </g>
    <path class="fil0" d="M1 647l1 0c1,0 1,1 2,1l161 0 0 0 0 -149c-19,0 -159,-2 -164,0l164 0 0 148 -164 0z"/>
   </g>
   <g>
    <path class="fil0" d="M199 80l36 0 0 23 -36 0 0 -23zm-15 40l66 0 0 -57 -66 0 0 57z"/>
    <path class="fil0" d="M482 80l36 0 0 23 -36 0 0 -23zm-15 40l66 0 0 -57 -66 0 0 57z"/>
    <path class="fil0" d="M329 80l0 23 -36 1c-1,-4 -1,-21 0,-25 3,0 34,-1 36,1zm-51 40l66 0 0 -57 -66 0 0 57z"/>
    <path class="fil0" d="M388 80l36 -1c1,4 1,21 0,25 -3,0 -34,1 -36,-1l0 -23zm-15 40l66 0 0 -57 -66 0 0 57z"/>
    <path class="fil0" d="M329 103l-35 0 0 -23 35 0c-2,-2 -33,-1 -36,-1 -1,4 -1,21 0,25l36 -1z"/>
    <path class="fil0" d="M388 103c2,2 33,1 36,1 1,-4 1,-21 0,-25l-36 1 35 0 0 23 -35 0z"/>
   </g>
  </g>
 </g>
</svg>
