<?xml version="1.0" encoding="UTF-8"?>
<!DOCTYPE svg PUBLIC "-//W3C//DTD SVG 1.1//EN" "http://www.w3.org/Graphics/SVG/1.1/DTD/svg11.dtd">
<!-- Creator: CorelDRAW X7 -->
<svg xmlns="http://www.w3.org/2000/svg" xml:space="preserve" width="0.758614in" height="0.693622in" version="1.1" style="shape-rendering:geometricPrecision; text-rendering:geometricPrecision; image-rendering:optimizeQuality; fill-rule:evenodd; clip-rule:evenodd"
viewBox="0 0 759 694"
 xmlns:xlink="http://www.w3.org/1999/xlink">
 <defs>
  <style type="text/css">
   <![CDATA[
    .fil0 {fill:#00AFEF}
   ]]>
  </style>
 </defs>
 <g id="Layer_x0020_1">
  <metadata id="CorelCorpID_0Corel-Layer"/>
  <path class="fil0" d="M188 219l0 68c-16,0 -25,0 -35,11 -6,5 -11,17 -11,28l0 291c0,18 15,39 29,39l417 0c13,0 29,-21 29,-39l0 -291c0,-10 -6,-22 -11,-28 -10,-11 -20,-11 -35,-11 0,-40 3,-69 -6,-106 -11,-44 -38,-80 -73,-107 -5,-4 -8,-6 -13,-9 -5,-3 -9,-5 -15,-8 -22,-11 -47,-17 -72,-19l-26 0c-25,2 -49,8 -71,19 -23,11 -35,20 -52,37 -14,14 -29,35 -37,53 -7,15 -14,35 -16,52 -1,7 -2,12 -2,20zm158 -104l66 0c29,0 52,24 52,52l0 52 -170 0 0 -52c0,-28 24,-52 52,-52zm23 244c31,0 57,26 57,57 0,18 -8,34 -21,45l0 165 -72 0 0 -165c-13,-11 -22,-27 -22,-45 0,-31 26,-57 58,-57z"/>
 </g>
</svg>
