<?xml version="1.0" encoding="UTF-8"?>
<!DOCTYPE svg PUBLIC "-//W3C//DTD SVG 1.1//EN" "http://www.w3.org/Graphics/SVG/1.1/DTD/svg11.dtd">
<!-- Creator: CorelDRAW X7 -->
<svg xmlns="http://www.w3.org/2000/svg" xml:space="preserve" width="0.691417in" height="0.693622in" version="1.1" style="shape-rendering:geometricPrecision; text-rendering:geometricPrecision; image-rendering:optimizeQuality; fill-rule:evenodd; clip-rule:evenodd"
viewBox="0 0 691 694"
 xmlns:xlink="http://www.w3.org/1999/xlink">
 <defs>
  <style type="text/css">
   <![CDATA[
    .fil0 {fill:#00AFEF}
   ]]>
  </style>
 </defs>
 <g id="Layer_x0020_1">
  <metadata id="CorelCorpID_0Corel-Layer"/>
  <g id="_1016299536">
   <g>
    <path class="fil0" d="M189 334l0 257c0,30 11,54 25,71 12,13 40,32 64,32l325 0c18,0 35,-9 48,-18 22,-15 40,-43 40,-71l0 -283c0,-16 -4,-26 -9,-37 -2,-6 -4,-8 -8,-13 -10,-13 -21,-25 -37,-32 -10,-4 -21,-9 -36,-9l-320 0c-49,0 -92,44 -92,103zm41 21l0 215c0,25 9,45 21,59 10,11 33,27 53,27l273 0c14,0 29,-7 39,-14 19,-13 35,-37 35,-60l0 -238c0,-12 -4,-21 -8,-30 -2,-5 -3,-7 -7,-11 -8,-11 -18,-21 -31,-27 -9,-4 -17,-7 -30,-7l-268 0c-41,0 -77,37 -77,86z"/>
    <path class="fil0" d="M359 290l0 82c0,10 4,18 8,23 4,5 13,11 21,11l105 0c6,0 11,-3 15,-6 7,-5 13,-14 13,-23l0 -91c0,-5 -1,-9 -2,-12 -1,-2 -2,-3 -3,-4 -3,-5 -7,-8 -12,-11 -3,-1 -7,-3 -12,-3l-103 0c-16,0 -30,15 -30,34zm13 6l0 70c0,8 3,15 7,19 3,4 11,9 17,9l88 0c5,0 10,-3 13,-5 6,-4 11,-12 11,-19l0 -77c0,-4 -1,-7 -2,-10 -1,-1 -1,-2 -2,-3 -3,-4 -6,-7 -10,-9 -3,-1 -6,-2 -10,-2l-87 0c-13,0 -25,11 -25,27z"/>
   </g>
   <path class="fil0" d="M40 112c0,66 54,117 108,117 26,0 40,0 64,-13 33,-19 63,-65 58,-88 -7,-33 -40,2 -83,-30 -45,-33 -23,-72 -31,-88 -14,-27 -83,3 -107,59 -5,11 -9,27 -9,43zm25 13c0,41 34,73 68,73 16,0 25,0 40,-9 20,-11 39,-40 36,-54 -1,-6 -86,15 -71,-74 -9,-17 -52,2 -67,37 -3,7 -6,17 -6,27z"/>
   <path class="fil0" d="M441 578l81 0c23,0 27,-40 -5,-40l-69 0c-33,0 -29,40 -7,40z"/>
   <path class="fil0" d="M0 480c0,15 8,22 23,22l69 0c35,0 25,-40 9,-40l-83 0c-10,0 -18,8 -18,18z"/>
   <path class="fil0" d="M38 367c0,24 34,20 54,20 35,0 25,-40 9,-40 -31,0 -63,-7 -63,20z"/>
   <path class="fil0" d="M38 598c0,25 34,20 54,20 32,0 29,-40 6,-40 -29,0 -60,-6 -60,20z"/>
  </g>
 </g>
</svg>
