<?xml version="1.0" encoding="UTF-8"?>
<!DOCTYPE svg PUBLIC "-//W3C//DTD SVG 1.1//EN" "http://www.w3.org/Graphics/SVG/1.1/DTD/svg11.dtd">
<!-- Creator: CorelDRAW X7 -->
<svg xmlns="http://www.w3.org/2000/svg" xml:space="preserve" width="0.21189in" height="0.224803in" version="1.1" style="shape-rendering:geometricPrecision; text-rendering:geometricPrecision; image-rendering:optimizeQuality; fill-rule:evenodd; clip-rule:evenodd"
viewBox="0 0 212 225"
 xmlns:xlink="http://www.w3.org/1999/xlink">
 <defs>
  <style type="text/css">
   <![CDATA[
    .fil0 {fill:#FEFEFE}
   ]]>
  </style>
 </defs>
 <g id="Layer_x0020_1">
  <metadata id="CorelCorpID_0Corel-Layer"/>
  <g id="_990194864">
   <path class="fil0" d="M0 61c0,69 78,155 136,164l18 0c17,-3 31,-16 37,-41 -6,-9 -8,-14 -17,-24 -27,-32 -25,-18 -58,3 -14,-9 -20,-16 -32,-29l-29 -32c8,-13 17,-23 27,-34 -14,-21 -20,-34 -41,-48 -18,5 -41,19 -41,41z"/>
   <path class="fil0" d="M103 6c20,28 82,30 88,103l21 0c-2,-78 -96,-127 -109,-103z"/>
   <path class="fil0" d="M150 115c24,-12 26,-8 10,-36 -8,-15 -25,-32 -42,-34 -54,-9 21,23 32,70z"/>
  </g>
 </g>
</svg>
