<?xml version="1.0" encoding="UTF-8"?>
<!DOCTYPE svg PUBLIC "-//W3C//DTD SVG 1.1//EN" "http://www.w3.org/Graphics/SVG/1.1/DTD/svg11.dtd">
<!-- Creator: CorelDRAW X7 -->
<svg xmlns="http://www.w3.org/2000/svg" xml:space="preserve" width="0.758614in" height="0.693622in" version="1.1" style="shape-rendering:geometricPrecision; text-rendering:geometricPrecision; image-rendering:optimizeQuality; fill-rule:evenodd; clip-rule:evenodd"
viewBox="0 0 759 694"
 xmlns:xlink="http://www.w3.org/1999/xlink">
 <defs>
  <style type="text/css">
   <![CDATA[
    .fil0 {fill:#00AFEF}
   ]]>
  </style>
 </defs>
 <g id="Layer_x0020_1">
  <metadata id="CorelCorpID_0Corel-Layer"/>
  <g id="_815141312">
   <path class="fil0" d="M37 612l185 0c-3,-15 -16,-24 -19,-38l-129 0 0 -501 167 0 0 164c12,-2 41,-30 48,-30 13,7 23,16 36,23 39,-21 28,-30 47,-16l37 23 0 -164 167 0 0 293c2,0 37,-16 37,-24l0 -307 -576 0 0 577z"/>
   <path class="fil0" d="M327 372c2,11 74,126 76,137l-59 33c-10,-6 -19,-14 -28,-21 -41,-30 -15,-24 -94,18l41 72c21,35 38,47 82,47 19,0 39,-12 54,-21l97 -56c17,-10 32,-18 49,-28 32,-19 64,-37 96,-56 15,-8 61,-33 69,-44 30,-43 -4,-88 -37,-88 -29,0 -40,9 -70,27 -10,6 -18,10 -27,16 -5,2 -9,5 -14,8 -6,4 -9,5 -15,8l-128 -80c-4,-3 -6,-4 -10,-6l-9 -7 -73 41z"/>
   <path class="fil0" d="M516 612l97 0 0 -57c-8,1 -95,53 -97,57z"/>
  </g>
 </g>
</svg>
