<?xml version="1.0" encoding="UTF-8"?>
<!DOCTYPE svg PUBLIC "-//W3C//DTD SVG 1.1//EN" "http://www.w3.org/Graphics/SVG/1.1/DTD/svg11.dtd">
<!-- Creator: CorelDRAW X7 -->
<svg xmlns="http://www.w3.org/2000/svg" xml:space="preserve" width="0.758614in" height="0.693622in" version="1.1" style="shape-rendering:geometricPrecision; text-rendering:geometricPrecision; image-rendering:optimizeQuality; fill-rule:evenodd; clip-rule:evenodd"
viewBox="0 0 759 694"
 xmlns:xlink="http://www.w3.org/1999/xlink">
 <defs>
  <style type="text/css">
   <![CDATA[
    .fil0 {fill:#00AFEF}
   ]]>
  </style>
 </defs>
 <g id="Layer_x0020_1">
  <metadata id="CorelCorpID_0Corel-Layer"/>
  <g id="_1019453952">
   <path class="fil0" d="M169 217c0,8 -7,16 -16,16l-142 0 0 43 142 0c23,0 15,33 16,59 0,9 -1,7 4,12 3,4 13,15 17,15l513 0c8,0 16,-7 20,-12 8,-11 2,-16 8,-25 10,-14 25,-17 25,-42 0,-35 -40,-32 -50,-39 -11,-8 -19,-55 -80,-54l-136 0c7,11 51,46 51,57 0,7 -8,14 -16,14l-165 0c-17,0 -20,-13 -32,-32 -5,-8 -21,-39 -27,-39l-132 0 0 27z"/>
   <path class="fil0" d="M362 233l131 0c-5,-8 -156,-157 -173,-175 -19,-18 -14,-12 -69,-12 18,35 72,120 98,163 5,9 9,15 13,24z"/>
   <polygon class="fil0" points="226,534 341,534 341,448 226,448 "/>
   <polygon class="fil0" points="154,648 269,648 269,562 154,562 "/>
   <polygon class="fil0" points="298,648 412,648 412,562 298,562 "/>
   <polygon class="fil0" points="441,648 556,648 556,562 441,562 "/>
   <path class="fil0" d="M40 204l100 0c0,-33 3,-20 -15,-46 -6,-9 -46,-61 -48,-69l-37 0 0 115z"/>
   <path class="fil0" d="M2 423c4,7 8,13 13,19 9,-2 24,-13 32,-18l93 -57c-2,-8 -8,-11 -11,-20 -9,3 -24,14 -32,18l-46 29c-6,3 -10,6 -16,10 -6,4 -27,17 -33,19z"/>
   <path class="fil0" d="M212 401c0,48 57,36 57,7 0,-48 -57,-36 -57,-7z"/>
   <path class="fil0" d="M599 401c0,44 57,44 57,0 0,-13 -12,-25 -32,-25 -12,0 -25,13 -25,25z"/>
   <path class="fil0" d="M283 401c0,44 58,44 58,0 0,-13 -13,-25 -32,-25 -12,0 -26,13 -26,25z"/>
  </g>
 </g>
</svg>
