<?xml version="1.0" encoding="UTF-8"?>
<!DOCTYPE svg PUBLIC "-//W3C//DTD SVG 1.1//EN" "http://www.w3.org/Graphics/SVG/1.1/DTD/svg11.dtd">
<!-- Creator: CorelDRAW X7 -->
<svg xmlns="http://www.w3.org/2000/svg" xml:space="preserve" width="0.245276in" height="0.180669in" version="1.1" style="shape-rendering:geometricPrecision; text-rendering:geometricPrecision; image-rendering:optimizeQuality; fill-rule:evenodd; clip-rule:evenodd"
viewBox="0 0 245 181"
 xmlns:xlink="http://www.w3.org/1999/xlink">
 <defs>
  <style type="text/css">
   <![CDATA[
    .fil0 {fill:#FEFEFE}
   ]]>
  </style>
 </defs>
 <g id="Layer_x0020_1">
  <metadata id="CorelCorpID_0Corel-Layer"/>
  <g id="_814274880">
   <path class="fil0" d="M0 149c3,6 3,16 14,24 10,7 16,8 31,8l154 0c15,0 21,0 32,-8 4,-2 6,-5 9,-10 3,-5 3,-10 5,-14l0 -98c-5,3 -11,7 -16,10 -5,3 -9,6 -15,9l-61 37c-6,4 -24,16 -31,16 -10,0 -107,-65 -122,-72l0 98z"/>
   <path class="fil0" d="M1 28c3,3 52,32 61,37 10,6 20,13 30,19 6,3 26,17 31,18 10,-6 21,-12 30,-18 11,-7 21,-13 31,-19 8,-5 57,-34 60,-37 -2,-10 -8,-18 -15,-22 -10,-7 -18,-6 -32,-6l-148 0c-19,0 -42,1 -48,28z"/>
  </g>
 </g>
</svg>
