<?xml version="1.0" encoding="UTF-8"?>
<!DOCTYPE svg PUBLIC "-//W3C//DTD SVG 1.1//EN" "http://www.w3.org/Graphics/SVG/1.1/DTD/svg11.dtd">
<!-- Creator: CorelDRAW X7 -->
<svg xmlns="http://www.w3.org/2000/svg" xml:space="preserve" width="0.758614in" height="0.693622in" version="1.1" style="shape-rendering:geometricPrecision; text-rendering:geometricPrecision; image-rendering:optimizeQuality; fill-rule:evenodd; clip-rule:evenodd"
viewBox="0 0 759 694"
 xmlns:xlink="http://www.w3.org/1999/xlink">
 <defs>
  <style type="text/css">
   <![CDATA[
    .fil0 {fill:#00AFEF}
   ]]>
  </style>
 </defs>
 <g id="Layer_x0020_1">
  <metadata id="CorelCorpID_0Corel-Layer"/>
  <g id="_873495760">
   <path class="fil0" d="M749 548l0 -31c-1,-2 -1,-9 -12,-9 -5,0 -16,1 -21,0 0,-17 0,-34 0,-51l0 -77c0,-25 -9,-37 -21,-56l-49 -73c-1,-1 -2,-2 -3,-3 -4,-6 -7,-9 -13,-13 -9,-8 -23,-14 -36,-16 -14,-2 -35,-1 -50,-1 -17,0 -35,0 -52,0 -10,0 -18,8 -18,20 0,72 0,146 0,219 0,17 0,35 0,51l-147 0c0,3 6,7 9,10 2,3 5,7 7,11 4,8 8,16 9,24 0,1 0,2 1,2 0,3 -1,1 0,2l154 0c2,-1 2,-5 2,-7 1,-3 2,-5 3,-7 3,-9 10,-22 16,-28 5,-4 5,-5 10,-9 6,-4 9,-7 17,-10 25,-10 49,-7 71,6 9,5 19,15 24,22 6,10 11,20 12,33l71 0c6,0 11,1 14,-4 1,-2 1,-2 2,-4 0,0 0,0 0,0l0 -1zm-232 -269l0 66c0,12 18,9 29,9 26,0 52,0 78,0 8,0 22,2 27,-2 7,-7 1,-13 -3,-18l-33 -48c-3,-3 -5,-6 -7,-10 -2,-3 -5,-6 -10,-6l-71 0c-5,0 -10,4 -10,9z"/>
   <path class="fil0" d="M106 366l0 100c0,11 1,15 13,15l315 0c14,0 13,-8 13,-17l0 -272c0,-9 -1,-15 -7,-22 -4,-6 -11,-10 -18,-11 -9,-1 -107,0 -114,0 0,2 7,23 8,46 0,18 -2,35 -6,49 -4,14 -10,27 -17,38l-5 9c-9,14 -30,36 -44,44 -2,1 -3,2 -5,3 -6,4 -11,6 -17,10 -14,6 -39,13 -55,14 -15,1 -22,1 -38,-1 -4,-1 -8,-1 -12,-2 -2,-1 -9,-3 -11,-3z"/>
   <path class="fil0" d="M9 204l0 12c1,1 1,4 1,6 2,17 4,31 12,47 2,3 3,6 4,9 4,7 6,10 11,16 9,13 20,24 33,33l6 4c0,0 0,1 1,1 13,8 21,12 38,17 29,8 63,6 90,-5 14,-5 23,-10 35,-19 3,-2 8,-6 11,-9 7,-7 9,-8 15,-17 5,-7 6,-7 11,-16 1,-1 2,-2 3,-4 2,-4 4,-7 6,-13 12,-28 14,-60 7,-91 -2,-9 -7,-21 -11,-29 -11,-21 -22,-36 -42,-51 -36,-27 -76,-28 -77,-29l-19 0c-1,1 0,0 -1,1l-7 0c-7,1 -15,3 -21,4 -22,6 -39,16 -56,30 -3,3 -6,6 -9,8 -1,2 -2,3 -4,5 -10,10 -21,29 -26,42 -4,11 -7,22 -9,33 0,2 -1,15 -2,15zm143 117c16,0 32,-3 47,-10 13,-6 23,-13 32,-22 4,-4 8,-8 12,-14 4,-6 7,-10 10,-17 5,-9 8,-20 10,-30 0,-2 0,-4 1,-6 1,-8 0,-19 -1,-27 -2,-16 -8,-32 -16,-45 -26,-39 -74,-59 -121,-47 -15,3 -32,12 -44,22l-3 3c-1,0 -1,2 -2,2l-5 5c-2,1 -2,2 -3,3 -4,5 -9,12 -12,18 -5,9 -9,19 -12,30 -2,11 -3,25 -1,38 0,6 1,12 3,17 2,7 3,8 6,15 3,8 10,18 15,25 16,20 41,33 65,38 3,1 6,1 9,1 2,0 3,1 5,1 2,0 3,0 5,0z"/>
   <path class="fil0" d="M273 509c-2,0 -5,0 -12,2 -8,1 -15,5 -20,9 -10,7 -7,6 -10,9 -3,3 -8,12 -10,16 -9,23 -4,49 14,66 2,2 2,2 4,3 6,4 6,5 14,9 8,3 15,4 25,4 17,0 33,-10 41,-18 17,-19 20,-44 10,-67l-5 -9c-7,-9 -15,-16 -26,-20 -4,-2 -7,-2 -11,-3 -3,-1 -11,-2 -14,-1zm0 88c6,0 9,0 15,-2 9,-4 17,-16 17,-25 0,-9 -2,-16 -9,-23 -7,-7 -18,-10 -28,-7 -2,0 -3,1 -5,2 -2,1 -3,1 -5,2 -1,1 -3,3 -4,4 -10,13 -10,27 0,40 4,4 13,9 19,9z"/>
   <path class="fil0" d="M526 567c0,25 13,45 36,56 12,5 28,6 40,2 20,-6 35,-22 40,-41 4,-14 3,-29 -4,-43 -3,-7 -7,-11 -12,-16 -7,-7 -17,-12 -28,-15 -31,-8 -66,14 -72,50 0,1 0,5 0,7zm30 -1c0,7 0,12 5,19 2,2 2,2 3,4 4,3 12,8 19,8 9,0 12,-1 20,-5l3 -3c3,-3 4,-5 6,-9 5,-10 2,-25 -6,-32 -23,-22 -50,-1 -50,18z"/>
   <path class="fil0" d="M83 546c0,6 3,11 8,11l107 0c1,-1 2,-5 2,-8 1,-2 2,-5 2,-7 3,-8 8,-17 14,-24l9 -10 -112 0c-13,0 -25,-2 -29,6 -2,4 -1,27 -1,32z"/>
   <path class="fil0" d="M135 134l0 74c0,2 2,6 3,7 4,6 14,7 23,10l25 7c5,1 5,2 11,2 6,0 13,-7 13,-12 0,-6 0,-11 -7,-15 -5,-3 -35,-9 -39,-11 0,-10 0,-20 0,-29 0,-10 0,-20 0,-29 0,-5 -1,-8 -3,-11 -2,-3 -6,-6 -10,-6 -10,0 -16,6 -16,13z"/>
  </g>
 </g>
</svg>
