<?xml version="1.0" encoding="UTF-8"?>
<!DOCTYPE svg PUBLIC "-//W3C//DTD SVG 1.1//EN" "http://www.w3.org/Graphics/SVG/1.1/DTD/svg11.dtd">
<!-- Creator: CorelDRAW X7 -->
<svg xmlns="http://www.w3.org/2000/svg" xml:space="preserve" width="0.758614in" height="0.693622in" version="1.1" style="shape-rendering:geometricPrecision; text-rendering:geometricPrecision; image-rendering:optimizeQuality; fill-rule:evenodd; clip-rule:evenodd"
viewBox="0 0 759 694"
 xmlns:xlink="http://www.w3.org/1999/xlink">
 <defs>
  <style type="text/css">
   <![CDATA[
    .fil0 {fill:#00AFEF}
   ]]>
  </style>
 </defs>
 <g id="Layer_x0020_1">
  <metadata id="CorelCorpID_0Corel-Layer"/>
  <g id="_1010053104">
   <path class="fil0" d="M88 541c67,-9 82,-13 151,0 188,37 169,-3 295,-20 54,-7 106,7 153,18l42 -139c6,-25 -5,-29 -28,-29l-630 0c-64,0 -1,79 17,170z"/>
   <path class="fil0" d="M0 610l0 19c22,38 24,24 77,9 177,-49 186,48 406,-13 84,-23 111,-25 196,5 12,4 33,13 43,15 27,6 28,-7 37,-22l0 -18c-10,-16 -14,-19 -35,-26 -15,-5 -29,-10 -44,-14 -155,-47 -181,2 -289,15 -148,18 -162,-61 -357,5 -18,6 -25,12 -34,25z"/>
   <polygon class="fil0" points="602,126 491,128 488,185 461,185 461,213 489,216 489,281 548,282 549,350 688,350 688,216 716,215 716,185 688,184 688,127 631,127 631,40 602,40 "/>
   <polygon class="fil0" points="214,350 303,350 307,350 307,294 212,294 "/>
   <polygon class="fil0" points="328,350 421,350 421,294 327,294 "/>
   <polygon class="fil0" points="99,298 99,350 192,350 192,294 108,294 99,294 "/>
   <polygon class="fil0" points="443,349 536,350 536,295 442,294 "/>
   <polygon class="fil0" points="99,195 111,198 192,197 192,142 99,143 "/>
   <polygon class="fil0" points="214,196 307,197 307,142 214,142 "/>
   <polygon class="fil0" points="99,272 192,274 192,218 100,219 "/>
   <polygon class="fil0" points="214,272 306,274 306,218 215,219 "/>
   <polygon class="fil0" points="328,273 421,274 421,219 329,219 "/>
   <path class="fil0" d="M641 176c35,11 30,-10 28,-27 -8,-1 -26,-11 -31,4 -2,8 0,18 3,23z"/>
   <path class="fil0" d="M574 163l2 14c10,2 22,2 30,-2l0 -27c-24,-4 -32,-7 -32,15z"/>
   <polygon class="fil0" points="511,177 542,177 543,148 513,146 "/>
  </g>
 </g>
</svg>
