<?xml version="1.0" encoding="UTF-8"?>
<!DOCTYPE svg PUBLIC "-//W3C//DTD SVG 1.1//EN" "http://www.w3.org/Graphics/SVG/1.1/DTD/svg11.dtd">
<!-- Creator: CorelDRAW X7 -->
<svg xmlns="http://www.w3.org/2000/svg" xml:space="preserve" width="5.266in" height="4.211in" version="1.1" style="shape-rendering:geometricPrecision; text-rendering:geometricPrecision; image-rendering:optimizeQuality; fill-rule:evenodd; clip-rule:evenodd"
viewBox="0 0 5266 4211"
 xmlns:xlink="http://www.w3.org/1999/xlink">
 <defs>
  <style type="text/css">
   <![CDATA[
    .fil30 {fill:#01CAE4;fill-rule:nonzero}
    .fil25 {fill:#022944;fill-rule:nonzero}
    .fil16 {fill:#073153;fill-rule:nonzero}
    .fil14 {fill:#0B6F90;fill-rule:nonzero}
    .fil3 {fill:#176AA0;fill-rule:nonzero}
    .fil33 {fill:#1E74AB;fill-rule:nonzero}
    .fil28 {fill:#2781BC;fill-rule:nonzero}
    .fil6 {fill:#2F343D;fill-rule:nonzero}
    .fil12 {fill:#303030;fill-rule:nonzero}
    .fil23 {fill:#432818;fill-rule:nonzero}
    .fil15 {fill:#55B9DC;fill-rule:nonzero}
    .fil24 {fill:#5B3B25;fill-rule:nonzero}
    .fil20 {fill:#5B3D27;fill-rule:nonzero}
    .fil26 {fill:#6B3C19;fill-rule:nonzero}
    .fil29 {fill:#75B8E6;fill-rule:nonzero}
    .fil0 {fill:#7FCFF4;fill-rule:nonzero}
    .fil19 {fill:#824C2C;fill-rule:nonzero}
    .fil22 {fill:#8E5433;fill-rule:nonzero}
    .fil21 {fill:#955A39;fill-rule:nonzero}
    .fil1 {fill:#A9E1F4;fill-rule:nonzero}
    .fil2 {fill:#E5E5E5;fill-rule:nonzero}
    .fil7 {fill:#E6B38B;fill-rule:nonzero}
    .fil10 {fill:#E9917E;fill-rule:nonzero}
    .fil32 {fill:#EAC300;fill-rule:nonzero}
    .fil8 {fill:#F1BF9A;fill-rule:nonzero}
    .fil27 {fill:#F1F1F1;fill-rule:nonzero}
    .fil11 {fill:#F2BF9A;fill-rule:nonzero}
    .fil13 {fill:#F74E45;fill-rule:nonzero}
    .fil9 {fill:#FC2F73;fill-rule:nonzero}
    .fil17 {fill:#FC4882;fill-rule:nonzero}
    .fil31 {fill:#FED700;fill-rule:nonzero}
    .fil18 {fill:#FF588E;fill-rule:nonzero}
    .fil4 {fill:#FFDE30;fill-rule:nonzero}
    .fil5 {fill:white;fill-rule:nonzero}
   ]]>
  </style>
 </defs>
 <g id="Layer_x0020_1">
  <metadata id="CorelCorpID_0Corel-Layer"/>
  <g id="_992487360">
   <path class="fil0" d="M5266 1201c0,-156 -126,-282 -283,-282l-4700 0c-157,0 -283,126 -283,282 0,156 126,283 283,283l614 0c154,0 280,125 280,280 0,154 -126,279 -280,279l-338 0c-156,0 -282,127 -282,283 0,156 126,283 282,283l1062 0c145,0 262,117 262,262 0,145 -117,263 -262,263l-1338 0c-157,0 -283,126 -283,282 0,157 126,283 283,283l4700 0c157,0 283,-126 283,-283 0,-156 -126,-282 -283,-282l-1731 0c-138,0 -250,-112 -250,-250l0 -26c0,-137 112,-249 250,-249l1461 0c138,0 250,-112 250,-250l0 -66c0,-138 -112,-250 -250,-250l-790 0c-155,0 -280,-125 -280,-279 0,-155 125,-280 280,-280l1060 0c157,0 283,-127 283,-283z"/>
   <g>
    <g>
     <g>
      <g>
       <path class="fil1" d="M4592 2306l65 0 0 11 -77 0 0 -11c0,-41 65,-56 65,-90 0,-15 -5,-24 -27,-24 -16,0 -30,11 -30,11l-5 -8c0,0 15,-15 37,-15 25,0 39,12 39,36 0,43 -56,48 -67,90z"/>
       <polygon class="fil1" points="4746,2279 4733,2279 4733,2317 4720,2317 4720,2279 4659,2279 4659,2268 4709,2180 4723,2180 4672,2268 4720,2268 4720,2227 4733,2227 4733,2268 4746,2268 "/>
       <polygon class="fil1" points="4762,2317 4750,2317 4814,2182 4826,2182 "/>
       <polygon class="fil1" points="4910,2182 4910,2194 4870,2317 4856,2317 4896,2194 4830,2194 4830,2182 "/>
      </g>
     </g>
     <g>
      <g>
       <path class="fil1" d="M4745 2484c-15,0 -30,-1 -44,-4 -3,-1 -5,-4 -5,-7 1,-3 4,-5 7,-4 16,3 33,4 49,3 3,0 6,3 6,6 0,3 -2,6 -5,6 -3,0 -6,0 -8,0zm45 -4l0 0c-3,0 -5,-2 -6,-5 0,-3 2,-6 5,-7 16,-3 32,-8 46,-15 3,-1 7,0 8,3 1,3 0,6 -3,8 -15,7 -32,12 -49,15 0,1 -1,1 -1,1zm-124 -10l0 0c-1,0 -2,0 -2,-1 -16,-6 -32,-14 -46,-23 -3,-2 -4,-5 -2,-8 2,-3 5,-3 8,-2 14,9 28,17 44,23 3,1 4,4 3,7 -1,2 -3,4 -5,4zm205 -24l0 0c-2,0 -4,-1 -5,-3 -2,-3 -1,-6 2,-8 11,-8 22,-17 32,-27 2,-1 3,-3 5,-5 2,-2 6,-2 8,0 2,2 3,6 0,8 -1,2 -3,4 -5,6 -10,10 -22,19 -34,28 -1,0 -2,1 -3,1zm-280 -23l0 0c-1,0 -3,0 -4,-1 -2,-2 -3,-4 -5,-5 -11,-11 -20,-22 -28,-34 -2,-3 -1,-7 1,-8 3,-2 6,-2 8,1 8,12 17,22 27,32 2,2 3,4 5,5 2,3 3,6 0,9 -1,1 -2,1 -4,1zm342 -40l0 0c-1,0 -3,0 -4,-1 -2,-1 -3,-5 -1,-8 9,-13 16,-28 22,-43 1,-3 5,-5 8,-4 3,1 4,5 3,8 -6,16 -14,31 -24,46 -1,1 -2,2 -4,2zm-393 -31l0 0c-2,0 -4,-1 -5,-3 -7,-16 -13,-33 -16,-50 -1,-3 1,-6 4,-6 3,-1 6,1 7,4 3,16 8,32 15,47 1,3 0,6 -3,8 0,0 -1,0 -2,0zm426 -50l0 0c-1,0 -1,0 -1,0 -3,-1 -5,-4 -5,-7 3,-14 4,-28 4,-42 0,-2 0,-4 0,-7 0,-3 2,-6 6,-6 3,0 5,3 6,6 0,2 0,5 0,7 0,15 -2,30 -5,44 0,3 -2,5 -5,5zm-446 -35l0 0c-3,0 -6,-3 -6,-6 0,-3 0,-5 0,-8 0,-14 2,-29 4,-44 1,-3 4,-5 7,-4 3,0 5,3 5,7 -3,13 -4,27 -4,41 0,3 0,5 0,8 0,3 -3,5 -6,6 0,0 0,0 0,0zm445 -53l0 0c-2,0 -5,-2 -5,-4 -3,-17 -9,-32 -15,-47 -2,-3 0,-6 3,-8 2,-1 6,0 7,3 7,16 13,32 16,49 1,3 -1,6 -4,7 -1,0 -1,0 -2,0zm-431 -34l0 0c0,0 -1,0 -2,0 -3,-2 -4,-5 -3,-8 6,-16 14,-32 23,-46 2,-3 6,-3 8,-2 3,2 4,6 2,8 -9,14 -17,29 -22,44 -1,2 -3,4 -6,4zm397 -47l0 0c-1,0 -3,-1 -4,-2 -8,-12 -17,-23 -27,-33 -2,-1 -3,-3 -5,-5 -3,-2 -3,-6 0,-8 2,-2 5,-2 8,0 1,2 3,3 5,5 11,11 20,22 28,34 2,3 1,6 -1,8 -1,1 -2,1 -4,1zm-350 -28l0 0c-2,0 -3,0 -4,-1 -3,-2 -3,-6 -1,-8 2,-2 4,-4 6,-6 10,-10 22,-20 34,-28 2,-2 6,-1 8,2 1,2 1,6 -2,8 -11,7 -22,16 -32,26 -2,2 -4,4 -5,6 -1,1 -3,1 -4,1zm288 -34l0 0c-1,0 -2,0 -3,-1 -14,-9 -28,-16 -44,-22 -3,-1 -4,-4 -3,-7 1,-3 4,-5 7,-4 16,6 32,14 46,24 3,2 4,5 2,8 -1,1 -3,2 -5,2zm-217 -17l0 0c-2,0 -4,-1 -5,-3 -2,-3 0,-7 3,-8 4,-2 9,-4 13,-6l-12 -12c-3,-2 -3,-6 0,-8 2,-3 6,-3 8,0l19 19c1,1 2,3 1,5 0,2 -1,4 -3,4 -8,3 -15,5 -22,9 0,0 -1,0 -2,0z"/>
      </g>
      <g>
       <path class="fil1" d="M4674 2088c-3,0 -6,-2 -6,-6l0 -42c0,-3 3,-6 6,-6 3,0 6,3 6,6l0 42c0,4 -3,6 -6,6z"/>
      </g>
     </g>
    </g>
    <g>
     <g>
      <path class="fil1" d="M2553 2884c-98,0 -178,-80 -178,-179 0,-98 80,-178 178,-178 98,0 178,80 178,178 0,99 -80,179 -178,179zm0 -345l0 0c-92,0 -167,74 -167,166 0,92 75,167 167,167 92,0 167,-75 167,-167 0,-92 -75,-166 -167,-166z"/>
     </g>
     <g>
      <g>
       <path class="fil1" d="M2469 2707c-15,0 -27,-12 -27,-27 0,-16 12,-28 27,-28 15,0 27,12 27,28 0,15 -12,27 -27,27zm0 -43l0 0c-9,0 -16,7 -16,16 0,8 7,15 16,15 9,0 16,-7 16,-15 0,-9 -7,-16 -16,-16z"/>
      </g>
      <g>
       <path class="fil1" d="M2637 2707c-15,0 -28,-12 -28,-27 0,-16 13,-28 28,-28 15,0 27,12 27,28 0,15 -12,27 -27,27zm0 -43l0 0c-9,0 -16,7 -16,16 0,8 7,15 16,15 8,0 16,-7 16,-15 0,-9 -8,-16 -16,-16z"/>
      </g>
     </g>
     <g>
      <path class="fil1" d="M2552 2780c-27,0 -53,-13 -69,-35 -1,-3 -1,-6 2,-8 2,-2 6,-1 8,1 13,19 35,31 59,31 23,0 45,-12 58,-31 2,-2 6,-3 9,-1 2,2 3,5 1,8 -16,22 -41,35 -68,35z"/>
     </g>
    </g>
    <g>
     <g>
      <g>
       <path class="fil1" d="M2964 1560l-52 0c-3,0 -5,-1 -5,-4l-37 -79c-1,-4 -2,-8 -2,-12 0,-12 7,-22 17,-27 15,-7 32,0 39,15l45 99c1,2 0,4 -1,5 -1,2 -3,3 -4,3zm-49 -12l0 0 40 0 -42 -91c-4,-9 -14,-13 -23,-9 -7,3 -11,10 -11,17 0,2 1,5 2,7l34 76z"/>
      </g>
      <g>
       <path class="fil1" d="M3016 1560l-52 0c-2,0 -3,-1 -4,-3 -1,-1 -2,-3 -1,-5l45 -99c5,-11 15,-18 27,-18 4,0 8,1 12,3 15,7 21,24 14,39l0 0 -36 79c0,3 -3,4 -5,4zm-43 -12l0 0 39 0 35 -76c4,-9 0,-19 -9,-24 -9,-3 -20,1 -24,9l-41 91zm79 -74l0 0 0 0 0 0z"/>
      </g>
     </g>
     <g>
      <path class="fil1" d="M3146 1821l-362 0c-7,0 -14,-6 -14,-13l-18 -202c0,-2 1,-4 2,-5 2,-1 3,-2 5,-1l410 0c2,-1 4,0 5,1 2,1 2,3 2,5l-16 201c-1,8 -7,14 -14,14zm-382 -210l0 0 17 196c0,1 1,2 3,2l362 0c1,0 2,-1 2,-2l16 -196 -400 0z"/>
     </g>
     <g>
      <path class="fil1" d="M3169 1611l-411 0c0,0 0,0 0,0 -16,0 -29,-13 -29,-29l0 -5c0,-16 13,-29 29,-29l206 0c0,0 0,0 0,0l205 0c17,0 30,13 30,29l0 5c0,16 -13,29 -29,29 0,0 0,0 -1,0zm-411 -51l0 0c-9,0 -17,8 -17,17l0 5c0,10 8,18 17,18 1,0 1,0 1,0l410 0c11,-1 18,-8 18,-18l0 -5c0,-9 -8,-17 -18,-17l-205 0c0,0 0,0 0,0l-206 0z"/>
     </g>
     <g>
      <path class="fil1" d="M2964 1560l0 0c-4,0 -6,-3 -6,-6 0,-3 2,-6 6,-6 3,0 6,3 6,6 0,3 -2,6 -6,6z"/>
     </g>
     <g>
      <g>
       <g>
        <path class="fil1" d="M2864 1678l-36 0c-10,0 -18,-8 -18,-18l0 -2c0,-10 8,-18 18,-18l36 0c10,0 18,8 18,18l0 2c0,10 -8,18 -18,18zm-36 -26l0 0c-4,0 -6,2 -6,6l0 2c0,4 2,7 6,7l36 0c4,0 7,-3 7,-7l0 -2c0,-4 -3,-6 -7,-6l-36 0z"/>
       </g>
       <g>
        <path class="fil1" d="M2943 1678l-37 0c-9,0 -17,-8 -17,-18l0 -2c0,-10 8,-18 17,-18l37 0c10,0 18,8 18,18l0 2c0,10 -8,18 -18,18zm-37 -26l0 0c-3,0 -6,2 -6,6l0 2c0,4 3,7 6,7l37 0c3,0 6,-3 6,-7l0 -2c0,-4 -3,-6 -6,-6l-37 0z"/>
       </g>
       <g>
        <path class="fil1" d="M3021 1678l-36 0c-10,0 -18,-8 -18,-18l0 -2c0,-10 8,-18 18,-18l36 0c10,0 18,8 18,18l0 2c0,10 -8,18 -18,18zm-36 -26l0 0c-3,0 -6,2 -6,6l0 2c0,4 3,7 6,7l36 0c4,0 7,-3 7,-7l0 -2c0,-4 -3,-6 -7,-6l-36 0z"/>
       </g>
       <g>
        <path class="fil1" d="M3100 1678l-37 0c-9,0 -17,-8 -17,-18l0 -2c0,-10 8,-18 17,-18l37 0c10,0 18,8 18,18l0 2c0,10 -8,18 -18,18zm-37 -26l0 0c-3,0 -6,2 -6,6l0 2c0,4 3,7 6,7l37 0c3,0 6,-3 6,-7l0 -2c0,-4 -3,-6 -6,-6l-37 0z"/>
       </g>
      </g>
      <g>
       <g>
        <path class="fil1" d="M2864 1725l-36 0c-10,0 -18,-8 -18,-17l0 -3c0,-10 8,-18 18,-18l36 0c10,0 18,8 18,18l0 3c0,9 -8,17 -18,17zm-36 -26l0 0c-4,0 -6,3 -6,6l0 3c0,3 2,6 6,6l36 0c4,0 7,-3 7,-6l0 -3c0,-3 -3,-6 -7,-6l-36 0z"/>
       </g>
       <g>
        <path class="fil1" d="M2943 1725l-37 0c-9,0 -17,-8 -17,-17l0 -3c0,-10 8,-18 17,-18l37 0c10,0 18,8 18,18l0 3c0,9 -8,17 -18,17zm-37 -26l0 0c-3,0 -6,3 -6,6l0 3c0,3 3,6 6,6l37 0c3,0 6,-3 6,-6l0 -3c0,-3 -3,-6 -6,-6l-37 0z"/>
       </g>
       <g>
        <path class="fil1" d="M3021 1725l-36 0c-10,0 -18,-8 -18,-17l0 -3c0,-10 8,-18 18,-18l36 0c10,0 18,8 18,18l0 3c0,9 -8,17 -18,17zm-36 -26l0 0c-3,0 -6,3 -6,6l0 3c0,3 3,6 6,6l36 0c4,0 7,-3 7,-6l0 -3c0,-3 -3,-6 -7,-6l-36 0z"/>
       </g>
       <g>
        <path class="fil1" d="M3100 1725l-37 0c-9,0 -17,-8 -17,-17l0 -3c0,-10 8,-18 17,-18l37 0c10,0 18,8 18,18l0 3c0,9 -8,17 -18,17zm-37 -26l0 0c-3,0 -6,3 -6,6l0 3c0,3 3,6 6,6l37 0c3,0 6,-3 6,-6l0 -3c0,-3 -3,-6 -6,-6l-37 0z"/>
       </g>
      </g>
      <g>
       <g>
        <path class="fil1" d="M2864 1773l-36 0c-10,0 -18,-8 -18,-18l0 -3c0,-9 8,-17 18,-17l36 0c10,0 18,8 18,17l0 3c0,10 -8,18 -18,18zm-36 -27l0 0c-4,0 -6,3 -6,6l0 3c0,3 2,6 6,6l36 0c4,0 7,-3 7,-6l0 -3c0,-3 -3,-6 -7,-6l-36 0z"/>
       </g>
       <g>
        <path class="fil1" d="M2943 1773l-37 0c-9,0 -17,-8 -17,-18l0 -3c0,-9 8,-17 17,-17l37 0c10,0 18,8 18,17l0 3c0,10 -8,18 -18,18zm-37 -27l0 0c-3,0 -6,3 -6,6l0 3c0,3 3,6 6,6l37 0c3,0 6,-3 6,-6l0 -3c0,-3 -3,-6 -6,-6l-37 0z"/>
       </g>
       <g>
        <path class="fil1" d="M3021 1773l-36 0c-10,0 -18,-8 -18,-18l0 -3c0,-9 8,-17 18,-17l36 0c10,0 18,8 18,17l0 3c0,10 -8,18 -18,18zm-36 -27l0 0c-3,0 -6,3 -6,6l0 3c0,3 3,6 6,6l36 0c4,0 7,-3 7,-6l0 -3c0,-3 -3,-6 -7,-6l-36 0z"/>
       </g>
       <g>
        <path class="fil1" d="M3100 1773l-37 0c-9,0 -17,-8 -17,-18l0 -3c0,-9 8,-17 17,-17l37 0c10,0 18,8 18,17l0 3c0,10 -8,18 -18,18zm-37 -27l0 0c-3,0 -6,3 -6,6l0 3c0,3 3,6 6,6l37 0c3,0 6,-3 6,-6l0 -3c0,-3 -3,-6 -6,-6l-37 0z"/>
       </g>
      </g>
     </g>
    </g>
    <g>
     <g>
      <path class="fil1" d="M4832 1119l-289 0c-3,0 -6,-2 -6,-6l0 -274c0,-3 3,-5 6,-5l289 0c3,0 6,2 6,5l0 274c0,4 -3,6 -6,6zm-284 -11l0 0 278 0 0 -263 -278 0 0 263z"/>
     </g>
     <g>
      <path class="fil1" d="M4543 1119l-136 0c-4,0 -6,-2 -6,-6l0 -274c0,-3 2,-5 6,-5l136 0c3,0 5,2 5,5l0 274c0,4 -2,6 -5,6zm-131 -11l0 0 125 0 0 -263 -125 0 0 263z"/>
     </g>
     <g>
      <g>
       <path class="fil1" d="M4778 1038l-181 0c-3,0 -6,-3 -6,-6l0 -111c0,-4 3,-6 6,-6l181 0c3,0 5,2 5,6l0 111c0,3 -2,6 -5,6zm-175 -12l0 0 169 0 0 -100 -169 0 0 100z"/>
      </g>
      <g>
       <g>
        <path class="fil1" d="M4700 964l-74 0c-3,0 -5,-3 -5,-6 0,-3 2,-6 5,-6l74 0c4,0 6,3 6,6 0,3 -2,6 -6,6z"/>
       </g>
       <g>
        <path class="fil1" d="M4700 1000l-74 0c-3,0 -5,-3 -5,-6 0,-3 2,-5 5,-5l74 0c4,0 6,2 6,5 0,3 -2,6 -6,6z"/>
       </g>
       <g>
        <path class="fil1" d="M4717 982l-91 0c-3,0 -5,-3 -5,-6 0,-3 2,-6 5,-6l91 0c3,0 6,3 6,6 0,3 -3,6 -6,6z"/>
       </g>
      </g>
     </g>
     <g>
      <path class="fil1" d="M4832 845l-137 0c-2,0 -4,-1 -5,-2 -1,-2 -1,-4 -1,-6l29 -72c1,-2 3,-3 6,-3l137 0c2,0 4,0 5,2 1,2 1,4 0,5l-29 73c0,2 -3,3 -5,3zm-129 -11l0 0 125 0 25 -61 -125 0 -25 61z"/>
     </g>
     <g>
      <path class="fil1" d="M4544 845l-137 0c-3,0 -5,-1 -6,-3l-29 -73c0,-1 0,-3 1,-5 1,-2 3,-2 5,-2l137 0c2,0 4,1 5,3l29 72c1,2 1,4 0,6 -1,1 -3,2 -5,2zm-134 -11l0 0 125 0 -24 -61 -125 0 24 61z"/>
     </g>
    </g>
    <g>
     <g>
      <g>
       <path class="fil1" d="M4389 3568l-198 0c-13,0 -23,-11 -23,-23l0 -221c0,-13 10,-23 23,-23l329 0c13,0 23,10 23,23l0 100c0,3 -1,5 -4,6l-158 46c-3,1 -6,4 -7,8 -1,2 -1,4 0,6l20 70c1,2 0,4 -1,5 -1,2 -3,3 -4,3zm-198 -255l0 0c-7,0 -12,5 -12,11l0 221c0,6 5,11 12,11l190 0 -19 -62c-1,-5 -1,-9 1,-14 2,-7 8,-13 15,-15l154 -45 0 -96c0,-6 -5,-11 -12,-11l-329 0zm346 111l0 0 1 0 -1 0z"/>
      </g>
      <g>
       <path class="fil1" d="M4537 3383l-363 0c-4,0 -6,-2 -6,-5l0 -30c0,-3 2,-6 6,-6l363 0c4,0 6,3 6,6l0 30c0,3 -2,5 -6,5zm-358 -11l0 0 353 0 0 -18 -353 0 0 18z"/>
      </g>
      <g>
       <path class="fil1" d="M4267 3488l-62 0c-3,0 -6,-3 -6,-6l0 -62c0,-3 3,-5 6,-5l62 0c3,0 6,2 6,5l0 62c0,3 -3,6 -6,6zm-56 -12l0 0 50 0 0 -50 -50 0 0 50z"/>
      </g>
      <g>
       <path class="fil1" d="M4482 3446l-179 0c-3,0 -6,-2 -6,-5l0 -21c0,-3 3,-5 6,-5l203 0c3,0 6,2 6,5l0 14c0,2 -2,4 -4,5l-24 7c-1,0 -1,0 -2,0zm-173 -11l0 0 172 0 19 -6 0 -3 -191 0 0 9z"/>
      </g>
      <g>
       <path class="fil1" d="M4368 3488l-65 0c-3,0 -6,-3 -6,-6l0 -20c0,-3 3,-6 6,-6l107 0c3,0 5,2 6,5 0,3 -1,5 -4,6l-31 9c-3,1 -6,4 -7,8 -1,2 -3,4 -6,4zm-59 -12l0 0 55 0c2,-3 5,-6 9,-8l-64 0 0 8z"/>
      </g>
     </g>
     <g>
      <g>
       <path class="fil1" d="M4375 3521c-3,0 -5,-2 -6,-4l-7 -23c-1,-5 -1,-9 1,-14 2,-7 8,-13 15,-15l316 -93c6,-2 12,-1 17,2 6,3 10,8 11,13l7 24c1,1 1,3 0,4 -1,1 -2,2 -4,3l-349 103c0,0 -1,0 -1,0zm326 -138l0 0c-1,0 -3,0 -4,0l-316 93c-3,1 -6,4 -7,8 -1,2 -1,4 0,6l5 18 338 -100 -6 -17c0,-3 -2,-6 -5,-7 -2,-1 -4,-1 -5,-1z"/>
      </g>
      <g>
       <path class="fil1" d="M4447 3722c-10,0 -19,-7 -22,-17l-47 -160c-1,-1 -1,-3 0,-4 1,-2 2,-3 4,-3l348 -103c4,-1 7,1 8,4l47 160c0,0 0,0 0,0 2,6 1,12 -2,18 -3,5 -8,9 -13,11l-317 93c-2,1 -4,1 -6,1zm-57 -175l0 0 46 155c2,6 8,10 14,8l316 -93c3,-1 6,-3 7,-6 1,-3 2,-6 1,-9l-46 -154 -338 99zm53 93l0 0c-3,0 -5,-1 -6,-4l-17 -59c0,-1 0,-3 0,-4 1,-2 2,-3 4,-3l59 -18c3,0 6,1 7,4l18 60c1,3 -1,6 -4,7l-59 17c-1,0 -2,0 -2,0zm-10 -61l0 0 14 49 48 -15 -14 -48 -48 14zm104 34l0 0c-1,0 -2,0 -3,-1 -2,-1 -3,-2 -3,-3l-6 -20c-1,-3 1,-6 4,-7l122 -36c1,0 3,0 4,1 1,0 2,2 3,3l6 20c1,3 -1,6 -4,7l-122 36c0,0 -1,0 -1,0zm1 -21l0 0 2 8 111 -33 -3 -8 -110 33zm-13 -19l0 0c-1,0 -2,0 -3,-1 -1,0 -2,-2 -3,-3l-5 -20c-1,-1 -1,-3 0,-4 1,-1 2,-2 3,-3l195 -57c2,-1 3,0 5,0 1,1 2,2 3,4l5 19c1,3 -1,6 -4,7l-195 58c0,0 -1,0 -1,0zm1 -21l0 0 3 8 184 -54 -3 -8 -184 54z"/>
      </g>
      <g>
       <path class="fil1" d="M4443 3640c-3,0 -5,-1 -6,-4l-17 -59c0,-1 0,-3 0,-4 1,-2 2,-3 4,-3l59 -18c3,0 6,1 7,4l1 4c0,0 0,0 0,0l17 56c1,3 -1,6 -4,7l-59 17c-1,0 -2,0 -2,0zm-10 -61l0 0 14 49 48 -15 -14 -48 -48 14z"/>
      </g>
      <g>
       <path class="fil1" d="M4537 3613c-1,0 -2,0 -3,-1 -2,-1 -3,-2 -3,-3l-6 -20c-1,-3 1,-6 4,-7l122 -36c1,0 3,0 4,1 1,0 2,2 3,3l6 20c1,3 -1,6 -4,7l-122 36c0,0 -1,0 -1,0zm1 -21l0 0 2 8 111 -33 -3 -8 -110 33z"/>
      </g>
      <g>
       <path class="fil1" d="M4383 3549c-2,0 -5,-1 -5,-4l-9 -28c-1,-3 1,-7 4,-7l349 -103c2,-1 3,-1 5,0 1,1 2,2 2,4l9 28c1,3 -1,6 -4,7l-349 103c-1,0 -1,0 -2,0zm-1 -30l0 0 5 17 338 -99 -5 -18 -338 100z"/>
      </g>
      <g>
       <path class="fil1" d="M4383 3547c-3,0 -5,-2 -6,-4l-8 -26c0,-2 0,-4 1,-5 3,-4 9,-3 10,1l8 27c1,3 -1,6 -4,7 0,0 -1,0 -1,0z"/>
      </g>
      <g>
       <g>
        <path class="fil1" d="M4443 3640c-3,0 -5,-1 -6,-4l-17 -59c0,-1 0,-3 0,-4 1,-2 2,-3 4,-3l59 -18c3,0 6,1 7,4l18 60c1,3 -1,6 -4,7l-59 17c-1,0 -2,0 -2,0zm-10 -61l0 0 14 49 48 -15 -14 -48 -48 14z"/>
       </g>
       <g>
        <path class="fil1" d="M4525 3573c-1,0 -2,0 -3,-1 -1,0 -2,-2 -3,-3l-5 -20c-1,-1 -1,-3 0,-4 1,-1 2,-2 3,-3l195 -57c2,-1 3,0 5,0 1,1 2,2 3,4l5 19c1,3 -1,6 -4,7l-195 58c0,0 -1,0 -1,0zm1 -21l0 0 3 8 184 -54 -3 -8 -184 54z"/>
       </g>
       <g>
        <path class="fil1" d="M4537 3613c-1,0 -2,0 -3,-1 -2,-1 -3,-2 -3,-3l-6 -20c-1,-3 1,-6 4,-7l122 -36c1,0 3,0 4,1 1,0 2,2 3,3l6 20c1,3 -1,6 -4,7l-122 36c0,0 -1,0 -1,0zm1 -21l0 0 2 8 111 -33 -3 -8 -110 33z"/>
       </g>
      </g>
     </g>
    </g>
    <g>
     <g>
      <g>
       <path class="fil1" d="M662 2544c-25,0 -46,-20 -46,-45l0 -111c0,-3 3,-6 6,-6 3,0 6,3 6,6l0 111c0,19 15,34 34,34 19,0 34,-15 34,-34l0 -20c0,-4 2,-6 6,-6 3,0 5,2 5,6l0 20c0,25 -20,45 -45,45z"/>
      </g>
      <g>
       <path class="fil1" d="M763 2390l-281 0c-3,0 -6,-3 -6,-6 0,-78 64,-141 141,-141l10 0c78,0 141,63 141,141 0,3 -2,6 -5,6zm-275 -12l0 0 269 0c-3,-68 -60,-124 -130,-124l-10 0c-69,0 -126,56 -129,124z"/>
      </g>
     </g>
     <g>
      <path class="fil1" d="M622 2628c-129,0 -234,-105 -234,-234 0,-130 105,-235 234,-235 130,0 235,105 235,235 0,129 -105,234 -235,234zm0 -457l0 0c-123,0 -223,100 -223,223 0,123 100,223 223,223 123,0 223,-100 223,-223 0,-123 -100,-223 -223,-223z"/>
     </g>
    </g>
    <g>
     <g>
      <g>
       <g>
        <path class="fil1" d="M2206 3534l0 0c-50,0 -91,-40 -91,-90l0 -114c0,-3 3,-6 6,-6l170 0c3,0 6,3 6,6l0 114c0,50 -41,90 -91,90zm-79 -198l0 0 0 108c0,43 35,79 79,79 44,0 79,-36 79,-79l0 -108 -158 0z"/>
       </g>
       <g>
        <path class="fil1" d="M2206 3663c-3,0 -6,-3 -6,-6l0 -128c0,-3 3,-6 6,-6 3,0 6,3 6,6l0 128c0,3 -3,6 -6,6z"/>
       </g>
       <g>
        <path class="fil1" d="M2291 3663l-170 0c-3,0 -6,-3 -6,-6 0,-3 3,-6 6,-6l170 0c3,0 6,3 6,6 0,3 -3,6 -6,6z"/>
       </g>
      </g>
     </g>
     <g>
      <path class="fil1" d="M2206 3728c-129,0 -234,-105 -234,-235 0,-129 105,-234 234,-234 129,0 234,105 234,234 0,130 -105,235 -234,235zm0 -457l0 0c-123,0 -223,100 -223,222 0,123 100,223 223,223 123,0 223,-100 223,-223 0,-122 -100,-222 -223,-222z"/>
     </g>
    </g>
    <g>
     <g>
      <g>
       <g>
        <path class="fil1" d="M319 3425c-56,0 -96,-149 -96,-197 0,-53 43,-97 96,-97 53,0 96,44 96,97 0,48 -40,197 -96,197zm0 -282l0 0c-47,0 -85,38 -85,85 0,50 41,186 85,186 44,0 85,-136 85,-186 0,-47 -38,-85 -85,-85z"/>
       </g>
       <g>
        <path class="fil1" d="M319 3284c-31,0 -55,-25 -55,-55 0,-31 24,-56 55,-56 31,0 56,25 56,56 0,30 -25,55 -56,55zm0 -99l0 0c-24,0 -44,19 -44,44 0,24 20,44 44,44 24,0 44,-20 44,-44 0,-25 -20,-44 -44,-44z"/>
       </g>
      </g>
      <g>
       <g>
        <path class="fil1" d="M100 3727c-1,0 -2,0 -3,-1 -2,-1 -3,-3 -3,-5l0 -224c0,-2 1,-4 3,-5l110 -62c1,-1 4,-1 5,0 2,1 3,3 3,5l0 227c0,2 -1,4 -3,5l-110 59c0,1 -1,1 -2,1zm5 -227l0 0 0 212 99 -53 0 -214 -99 55z"/>
       </g>
       <g>
        <path class="fil1" d="M319 3727c-1,0 -2,0 -3,-1 -2,-1 -3,-3 -3,-5l0 -224c0,-2 1,-4 3,-5l110 -62c2,-1 4,-1 6,0 1,1 3,3 3,5l0 227c0,2 -2,4 -3,5l-110 59c-1,1 -2,1 -3,1zm6 -227l0 0 0 212 98 -53 0 -214 -98 55z"/>
       </g>
       <g>
        <path class="fil1" d="M319 3727c-1,0 -2,0 -3,-1l-109 -59c-2,-1 -3,-3 -3,-5l0 -227c0,-2 1,-4 2,-5 2,-1 4,-1 6,0l110 62c2,1 3,3 3,5l0 224c0,2 -1,4 -3,5 -1,1 -2,1 -3,1zm-104 -68l0 0 98 53 0 -212 -98 -55 0 214z"/>
       </g>
       <g>
        <path class="fil1" d="M538 3727c0,0 -1,0 -2,-1l-110 -59c-2,-1 -3,-3 -3,-5l0 -227c0,-2 1,-4 3,-5 2,-1 4,-1 6,0l109 62c2,1 3,3 3,5l0 224c0,2 -1,4 -3,5 0,1 -1,1 -3,1zm-103 -68l0 0 98 53 0 -212 -98 -55 0 214z"/>
       </g>
      </g>
     </g>
    </g>
    <g>
     <g>
      <path class="fil1" d="M877 1675c-1,0 -2,0 -3,0l-94 -58c-2,-1 -3,-2 -3,-4 0,-2 0,-3 2,-5 11,-13 20,-27 26,-43 1,-2 2,-3 4,-4 2,0 3,0 5,1l94 57c2,2 3,5 2,8l-28 46c-1,1 -3,2 -5,2zm-85 -64l0 0 83 51 22 -36 -83 -51c-6,13 -13,25 -22,36z"/>
     </g>
     <g>
      <path class="fil1" d="M1009 1762c-5,0 -11,-2 -16,-5l-124 -75c-1,-1 -2,-2 -2,-4 -1,-1 0,-3 0,-4l37 -60c2,-3 5,-4 8,-2l124 75c14,9 19,29 10,44l-10 16c-6,10 -16,15 -27,15zm-129 -87l0 0 119 72c9,6 22,3 27,-6l10 -16c6,-10 3,-22 -6,-28l-119 -72 -31 50z"/>
     </g>
     <g>
      <path class="fil1" d="M679 1663c-14,0 -28,-2 -41,-6 -50,-14 -89,-55 -101,-106 -12,-50 3,-104 41,-140 38,-36 93,-49 143,-35 50,15 88,56 101,107 7,28 5,58 -6,86 -6,17 -16,33 -29,47 0,0 0,0 0,0 -2,2 -5,5 -7,7 -27,26 -64,40 -101,40zm0 -281l0 0c-34,0 -67,13 -93,37 -35,33 -49,83 -38,130 11,46 47,84 93,97 46,14 96,2 131,-31 2,-2 5,-5 7,-7 11,-13 20,-27 26,-43 10,-26 12,-53 5,-80 -11,-46 -47,-84 -93,-98 -12,-3 -25,-5 -38,-5zm104 230l0 0 0 0 0 0zm-104 22l0 0c-11,0 -22,-2 -33,-5 -40,-12 -71,-44 -80,-85 -10,-40 3,-83 33,-112 30,-28 73,-39 113,-27l0 0c40,12 71,44 81,85 10,40 -3,83 -33,112 -22,20 -51,32 -81,32zm0 -222l0 0c-26,0 -53,10 -72,29 -28,25 -39,64 -30,101 9,36 36,65 72,76 36,11 76,1 103,-25 27,-26 38,-64 30,-101 -9,-36 -37,-65 -73,-76 -10,-3 -20,-4 -30,-4z"/>
     </g>
     <g>
      <path class="fil1" d="M679 1634c-11,0 -22,-2 -33,-5 -40,-12 -71,-44 -80,-85 -10,-40 3,-83 33,-112 30,-28 73,-39 113,-27 40,12 71,44 81,85 10,40 -3,83 -33,112 -22,20 -51,32 -81,32zm0 -222l0 0c-26,0 -53,10 -72,29 0,0 0,0 0,0 -28,25 -39,64 -30,101 9,36 36,65 72,76 36,11 76,1 103,-25 27,-26 38,-64 30,-101 -9,-36 -37,-65 -73,-76 -10,-3 -20,-4 -30,-4zm-76 24l0 0 0 0 0 0z"/>
     </g>
     <g>
      <path class="fil1" d="M679 1634c-11,0 -22,-2 -33,-5 -36,-11 -64,-38 -77,-73 -1,-4 -2,-8 -3,-12 -10,-40 3,-83 33,-112 30,-28 73,-39 113,-27 40,12 71,44 81,85 1,3 1,7 2,11 5,37 -8,75 -35,101 -22,20 -51,32 -81,32zm0 -222l0 0c-26,0 -53,10 -72,29 -28,25 -39,64 -30,101 1,3 2,7 3,10 11,32 37,56 69,66 36,11 76,1 103,-25 24,-23 36,-57 32,-90 -1,-4 -2,-7 -2,-11 -9,-36 -37,-65 -73,-76 -10,-3 -20,-4 -30,-4z"/>
     </g>
    </g>
    <g>
     <path class="fil1" d="M662 2139c0,0 0,0 0,0 -3,0 -6,-3 -6,-6l2 -50c0,-3 3,-6 6,-6 3,0 6,3 6,6l-2 51c0,3 -3,5 -6,5zm3 -88l0 0c0,0 0,0 0,0 -3,0 -5,-3 -5,-6l2 -51c0,-3 2,-5 6,-5 3,0 5,3 5,6l-2 50c0,3 -2,6 -6,6zm4 -88l0 0c0,0 0,0 0,0 -3,-1 -6,-3 -6,-6l2 -51c0,-3 3,-6 6,-5 4,0 6,2 6,6l-2 50c0,3 -3,6 -6,6zm4 -89l0 0c0,0 -1,0 -1,0 -3,0 -5,-2 -5,-6l2 -50c0,-3 3,-6 6,-6 3,0 6,3 5,6l-2 51c0,3 -2,5 -5,5zm3 -88l0 0c0,0 0,0 0,0 -3,0 -6,-3 -6,-6l3 -50c0,-4 2,-6 5,-6 4,0 6,3 6,6l-2 50c0,4 -3,6 -6,6z"/>
    </g>
    <g>
     <path class="fil1" d="M4744 2000c-3,0 -5,-2 -6,-5l-7 -50c0,-3 2,-6 5,-6 3,-1 6,2 7,5l7 50c0,3 -2,6 -5,6 0,0 -1,0 -1,0zm-12 -87l0 0c-3,0 -5,-2 -6,-5l-7 -50c0,-3 2,-6 5,-7 3,0 6,2 6,5l8 50c0,3 -2,6 -5,7 -1,0 -1,0 -1,0zm-13 -88l0 0c-2,0 -5,-2 -5,-5l-7 -50c-1,-3 2,-6 5,-6 3,-1 6,2 6,5l7 50c1,3 -2,6 -5,6 0,0 0,0 -1,0zm-12 -87l0 0c-3,0 -5,-2 -6,-5l-7 -50c0,-3 2,-6 5,-7 4,0 6,2 7,5l7 50c0,3 -2,6 -5,7 0,0 -1,0 -1,0zm-12 -88l0 0c-3,0 -5,-2 -6,-5l-7 -50c0,-3 2,-6 5,-6 3,-1 6,2 7,5l7 50c0,3 -2,6 -5,6 -1,0 -1,0 -1,0zm-12 -87l0 0c-3,0 -6,-2 -6,-5l-7 -50c-1,-3 2,-6 5,-7 3,0 6,2 6,5l7 50c1,3 -1,6 -5,7 0,0 0,0 0,0zm-13 -88l0 0c-3,0 -5,-2 -5,-5l-7 -50c-1,-3 1,-6 4,-6 4,-1 6,2 7,5l7 50c0,3 -2,6 -5,6 0,0 0,0 -1,0zm-12 -87l0 0c-3,0 -5,-2 -6,-5l-7 -50c0,-3 2,-6 5,-7 3,0 6,2 7,5l7 50c0,3 -2,6 -5,7 -1,0 -1,0 -1,0zm-12 -88l0 0c-3,0 -6,-2 -6,-5l-7 -50c-1,-3 2,-6 5,-6 3,-1 6,2 6,5l7 50c1,3 -1,6 -5,6 0,0 0,0 0,0zm-13 -87l0 0c-2,0 -5,-2 -5,-5l-7 -50c-1,-3 1,-6 4,-7 4,0 7,2 7,5l7 50c0,3 -2,6 -5,7 0,0 0,0 -1,0z"/>
    </g>
    <g>
     <path class="fil1" d="M4580 3271c0,0 -1,0 -1,-1 -3,0 -5,-3 -5,-6l8 -38c1,-4 4,-6 7,-5 3,1 5,4 4,7l-7 38c-1,3 -3,5 -6,5zm15 -76l0 0c0,0 -1,0 -1,0 -3,-1 -5,-4 -5,-7l10 -49c1,-3 4,-5 7,-5 3,1 5,4 4,7l-9 50c-1,2 -3,4 -6,4zm17 -87l0 0c0,0 -1,0 -1,0 -3,0 -5,-3 -5,-6l10 -50c1,-3 4,-5 7,-4 3,0 5,3 4,6l-9 50c-1,3 -3,4 -6,4zm17 -86l0 0c0,0 -1,0 -1,0 -3,-1 -5,-4 -5,-7l10 -50c1,-3 4,-5 7,-4 3,0 5,3 4,7l-9 49c-1,3 -3,5 -6,5zm17 -87l0 0c0,0 -1,0 -1,0 -3,-1 -5,-4 -5,-7l10 -49c1,-3 4,-6 7,-5 3,1 5,4 4,7l-9 49c-1,3 -3,5 -6,5zm17 -87l0 0c0,0 -1,0 -1,0 -3,0 -5,-3 -5,-7l10 -49c1,-3 4,-5 7,-5 3,1 5,4 4,7l-9 50c-1,2 -3,4 -6,4zm17 -86l0 0c0,0 -1,0 -1,0 -3,-1 -5,-4 -5,-7l10 -50c1,-3 4,-5 7,-4 3,0 5,3 4,6l-9 50c-1,3 -3,5 -6,5zm17 -87l0 0c0,0 -1,0 -1,0 -3,-1 -5,-4 -5,-7l10 -50c1,-3 4,-5 7,-4 3,1 5,4 4,7l-9 49c-1,3 -3,5 -6,5zm17 -87l0 0c0,0 -1,0 -1,0 -3,-1 -5,-4 -5,-7l10 -49c1,-3 4,-5 7,-5 3,1 5,4 4,7l-9 50c-1,2 -3,4 -6,4z"/>
    </g>
    <g>
     <path class="fil1" d="M2511 3521c-3,0 -6,-3 -6,-6 0,-3 2,-6 5,-6l27 -1c3,0 6,3 6,6 0,3 -2,6 -5,6l-27 1c0,0 0,0 0,0zm64 -3l0 0c-3,0 -5,-2 -6,-5 0,-3 3,-6 6,-6l50 -2c3,0 6,2 6,5 1,4 -2,6 -5,6l-51 2c0,0 0,0 0,0zm89 -3l0 0c-4,0 -6,-3 -6,-6 0,-3 2,-6 5,-6l51 -2c3,0 6,3 6,6 0,3 -3,6 -6,6l-50 2c0,0 0,0 0,0zm88 -4l0 0c-3,0 -6,-2 -6,-5 0,-3 2,-6 6,-6l50 -2c3,0 6,2 6,5 0,4 -2,6 -5,6l-51 2c0,0 0,0 0,0zm88 -3l0 0c-3,0 -5,-3 -6,-6 0,-3 3,-6 6,-6l50 -2c3,0 6,3 6,6 0,3 -2,6 -5,6l-51 2c0,0 0,0 0,0zm88 -4l0 0c-3,0 -5,-2 -5,-5 0,-3 2,-6 5,-6l51 -2c3,0 6,2 6,5 0,4 -3,6 -6,6l-50 2c0,0 0,0 -1,0zm89 -3l0 0c-3,0 -6,-3 -6,-6 0,-3 2,-6 6,-6l50 -2c3,0 6,3 6,6 0,3 -2,6 -6,6l-50 2c0,0 0,0 0,0zm88 -4l0 0c-3,0 -6,-2 -6,-5 0,-3 3,-6 6,-6l50 -2c3,0 6,2 6,5 0,4 -2,6 -5,6l-51 2c0,0 0,0 0,0zm88 -3l0 0c-3,0 -5,-3 -5,-6 -1,-3 2,-6 5,-6l51 -2c3,0 5,3 6,6 0,3 -3,6 -6,6l-50 2c0,0 -1,0 -1,0zm89 -4l0 0c-3,0 -6,-2 -6,-5 0,-3 2,-6 5,-6l51 -2c3,0 6,2 6,5 0,4 -2,6 -6,6l-50 2c0,0 0,0 0,0zm88 -3l0 0c-3,0 -6,-3 -6,-6 0,-3 3,-6 6,-6l50 -2c3,0 6,3 6,6 0,3 -2,6 -5,6l-51 2c0,0 0,0 0,0zm88 -4l0 0c-3,0 -5,-2 -5,-5 -1,-3 2,-6 5,-6l51 -2c3,0 5,2 6,5 0,4 -3,6 -6,6l-50 2c-1,0 -1,0 -1,0zm89 -3l0 0c-3,0 -6,-3 -6,-6 0,-3 2,-6 5,-6l51 -2c3,0 6,3 6,6 0,3 -3,6 -6,6l-50 2c0,0 0,0 0,0zm88 -4l0 0c-3,0 -6,-2 -6,-5 0,-3 2,-6 6,-6l50 -2c3,0 6,2 6,5 0,4 -2,6 -5,6l-51 2c0,0 0,0 0,0zm88 -3l0 0c-3,0 -5,-3 -6,-6 0,-3 3,-5 6,-6l50 -2c4,0 6,3 6,6 1,3 -2,6 -5,6l-51 2c0,0 0,0 0,0zm89 -4l0 0c-4,0 -6,-2 -6,-5 0,-3 2,-6 5,-6l51 -2c3,0 6,2 6,5 0,4 -3,6 -6,6l-50 2c0,0 0,0 0,0zm88 -3l0 0c-3,0 -6,-3 -6,-6 0,-3 2,-5 6,-6l50 -2c3,0 6,3 6,6 0,3 -2,6 -5,6l-51 2c0,0 0,0 0,0zm88 -4l0 0c-3,0 -6,-2 -6,-5 0,-3 3,-6 6,-6l50 -2c3,0 6,2 6,5 0,4 -2,6 -5,6l-51 2c0,0 0,0 0,0zm88 -3l0 0c-3,0 -5,-3 -5,-6 0,-3 2,-5 5,-6l51 -2c3,0 6,3 6,6 0,3 -3,6 -6,6l-50 2c0,0 0,0 -1,0z"/>
    </g>
    <g>
     <path class="fil1" d="M2291 3234c-1,0 -2,0 -3,0 -2,-2 -4,-5 -2,-8l23 -45c1,-3 4,-4 7,-3 3,2 4,5 3,8l-23 45c-1,2 -3,3 -5,3zm40 -79l0 0c-1,0 -2,0 -3,0 -3,-2 -4,-5 -2,-8l22 -45c2,-3 5,-4 8,-3 3,2 4,5 3,8l-23 45c-1,2 -3,3 -5,3zm39 -79l0 0c0,0 -1,0 -2,0 -3,-2 -4,-5 -3,-8l23 -45c1,-3 5,-4 8,-3 3,2 4,5 2,8l-22 45c-1,2 -3,3 -6,3zm40 -78l0 0c-1,0 -2,-1 -2,-1 -3,-1 -4,-5 -3,-8l23 -45c1,-3 5,-4 7,-2 3,1 4,4 3,7l-23 45c-1,2 -3,4 -5,4zm40 -79l0 0c-1,0 -2,-1 -3,-1 -3,-1 -4,-5 -2,-8l7 -14c1,-3 5,-4 8,-2 2,1 4,5 2,7l-7 14c-1,2 -3,4 -5,4z"/>
    </g>
    <g>
     <path class="fil1" d="M593 3602c-3,0 -6,-2 -6,-5 0,-3 2,-6 5,-6l19 -2c3,0 6,2 6,5 0,3 -2,6 -5,6l-19 2c0,0 0,0 0,0zm56 -5l0 0c-3,0 -6,-2 -6,-5 0,-3 2,-6 5,-6l51 -5c3,0 6,2 6,5 0,4 -2,6 -5,7l-51 4c0,0 0,0 0,0zm88 -8l0 0c-3,0 -6,-2 -6,-5 0,-3 2,-6 5,-6l51 -5c3,0 6,2 6,6 0,3 -2,6 -5,6l-51 4c0,0 0,0 0,0zm88 -7l0 0c-3,0 -6,-3 -6,-6 0,-3 2,-6 5,-6l51 -4c3,-1 6,2 6,5 0,3 -2,6 -5,6l-51 5c0,0 0,0 0,0zm88 -8l0 0c-3,0 -6,-2 -6,-5 0,-4 2,-6 5,-7l51 -4c3,0 6,2 6,5 0,3 -2,6 -5,6l-51 5c0,0 0,0 0,0zm88 -8l0 0c-3,0 -6,-2 -6,-5 0,-3 2,-6 5,-7l51 -4c3,0 6,2 6,5 0,3 -2,6 -5,6l-51 5c0,0 0,0 0,0zm88 -8l0 0c-3,0 -6,-2 -6,-5 0,-3 2,-6 5,-6l51 -5c3,0 6,2 6,5 0,4 -2,6 -5,7l-51 4c0,0 0,0 0,0zm88 -8l0 0c-3,0 -6,-2 -6,-5 0,-3 2,-6 5,-6l51 -5c3,0 6,2 6,6 0,3 -2,6 -5,6l-51 4c0,0 0,0 0,0zm88 -7l0 0c-3,0 -5,-3 -6,-6 0,-3 2,-6 5,-6l51 -4c3,-1 6,2 6,5 0,3 -2,6 -5,6l-50 5c-1,0 -1,0 -1,0zm88 -8l0 0c-3,0 -5,-2 -6,-5 0,-4 2,-6 6,-7l50 -4c3,0 6,2 6,5 0,3 -2,6 -5,6l-50 5c-1,0 -1,0 -1,0zm88 -8l0 0c-3,0 -5,-2 -6,-5 0,-3 2,-6 6,-6l50 -5c3,0 6,2 6,5 0,3 -2,6 -5,7l-50 4c-1,0 -1,0 -1,0zm88 -8l0 0c-3,0 -5,-2 -6,-5 0,-3 2,-6 6,-6l50 -5c3,0 6,2 6,5 0,4 -2,6 -5,7l-50 4c-1,0 -1,0 -1,0zm88 -8l0 0c-3,0 -5,-2 -6,-5 0,-3 2,-6 6,-6l50 -5c3,0 6,3 6,6 0,3 -2,6 -5,6l-50 4c-1,0 -1,0 -1,0zm88 -7l0 0c-3,0 -5,-3 -6,-6 0,-3 2,-6 6,-6l50 -4c3,-1 6,2 6,5 0,3 -2,6 -5,6l-50 5c-1,0 -1,0 -1,0zm88 -8l0 0c-3,0 -5,-2 -6,-5 0,-4 3,-6 6,-7l50 -4c3,0 6,2 6,5 0,3 -2,6 -5,6l-50 5c0,0 -1,0 -1,0zm88 -8l0 0c-3,0 -5,-2 -6,-5 0,-3 3,-6 6,-6l50 -5c3,0 6,2 6,5 1,3 -2,6 -5,7l-50 4c0,0 -1,0 -1,0z"/>
    </g>
    <g>
     <path class="fil1" d="M369 3069c-1,0 -2,0 -3,0 -3,-2 -4,-5 -2,-8l23 -45c1,-3 5,-4 7,-2 3,1 4,5 3,7l-23 45c-1,2 -3,3 -5,3zm40 -78l0 0c-1,0 -2,0 -3,-1 -2,-1 -3,-5 -2,-8l23 -45c1,-2 5,-3 8,-2 3,1 4,5 2,8l-23 45c-1,2 -3,3 -5,3zm40 -79l0 0c-1,0 -1,0 -2,0 -3,-2 -4,-5 -3,-8l23 -45c2,-3 5,-4 8,-3 3,2 4,5 2,8l-23 45c-1,2 -3,3 -5,3zm41 -79l0 0c-1,0 -2,0 -3,0 -3,-2 -4,-5 -2,-8l23 -45c1,-3 4,-4 7,-2 3,1 4,5 3,7l-23 45c-1,2 -3,3 -5,3zm40 -78l0 0c-1,0 -2,0 -3,-1 -3,-1 -4,-5 -2,-8l23 -44c1,-3 5,-4 8,-3 2,1 3,5 2,8l-23 45c-1,2 -3,3 -5,3z"/>
    </g>
    <g>
     <path class="fil1" d="M2678 1652c0,0 0,0 0,0l-43 -3c-4,0 -6,-3 -6,-6 0,-3 3,-6 6,-5l43 2c4,0 6,3 6,6 0,3 -3,6 -6,6zm-81 -5l0 0c0,0 0,0 0,0l-51 -3c-3,0 -5,-3 -5,-6 0,-3 3,-6 6,-5l50 2c4,1 6,3 6,7 0,3 -3,5 -6,5zm-88 -5l0 0c0,0 0,0 0,0l-51 -3c-3,0 -5,-3 -5,-6 0,-3 3,-6 6,-6l50 3c3,0 6,3 6,6 0,3 -3,6 -6,6zm-88 -5l0 0c0,0 -1,0 -1,0l-50 -3c-3,0 -6,-3 -5,-6 0,-3 2,-6 6,-6l50 3c3,0 6,3 5,6 0,3 -2,6 -5,6zm-89 -5l0 0c0,0 0,0 0,0l-50 -3c-3,-1 -6,-3 -6,-6 1,-4 3,-6 6,-6l51 3c3,0 5,3 5,6 0,3 -2,6 -6,6zm-88 -6l0 0c0,0 0,0 0,0l-50 -2c-4,-1 -6,-3 -6,-7 0,-3 3,-5 6,-5l51 3c3,0 5,3 5,6 0,3 -3,5 -6,5zm-88 -5l0 0c0,0 0,0 0,0l-51 -3c-3,0 -5,-2 -5,-6 0,-3 3,-5 6,-5l50 3c4,0 6,3 6,6 0,3 -3,5 -6,5zm-88 -5l0 0c0,0 0,0 -1,0l-50 -3c-3,0 -6,-3 -5,-6 0,-3 3,-5 6,-5l50 3c3,0 6,3 6,6 -1,3 -3,5 -6,5zm-88 -5l0 0c-1,0 -1,0 -1,0l-50 -3c-3,0 -6,-3 -6,-6 1,-3 3,-5 6,-5l51 3c3,0 6,3 5,6 0,3 -2,5 -5,5zm-89 -5l0 0c0,0 0,0 0,0l-50 -3c-4,0 -6,-3 -6,-6 0,-3 3,-6 6,-5l51 3c3,0 5,2 5,6 0,3 -3,5 -6,5zm-88 -5l0 0c0,0 0,0 0,0l-51 -3c-3,0 -5,-3 -5,-6 0,-3 3,-6 6,-5l50 2c4,1 6,3 6,7 0,3 -3,5 -6,5zm-88 -5l0 0c0,0 0,0 0,0l-51 -3c-3,0 -5,-3 -5,-6 0,-3 3,-6 6,-6l50 3c3,1 6,3 6,6 -1,3 -3,6 -6,6zm-88 -5l0 0c0,0 -1,0 -1,0l-50 -3c-3,0 -6,-3 -5,-6 0,-3 2,-6 6,-6l50 3c3,0 6,3 5,6 0,3 -2,6 -5,6zm-89 -5l0 0c0,0 0,0 0,0l-50 -3c-3,0 -6,-3 -6,-6 0,-4 3,-6 6,-6l51 3c3,0 5,3 5,6 0,3 -3,6 -6,6zm-88 -5l0 0c0,0 0,0 0,0l-51 -3c-3,-1 -5,-3 -5,-6 0,-4 3,-6 6,-6l51 3c3,0 5,3 5,6 0,3 -3,6 -6,6zm-88 -6l0 0c0,0 0,0 0,0l-51 -3c-3,0 -5,-2 -5,-6 0,-3 3,-5 6,-5l50 3c3,0 6,3 6,6 0,3 -3,5 -6,5zm-88 -5l0 0c0,0 0,0 -1,0l-50 -3c-3,0 -6,-3 -5,-6 0,-3 3,-5 6,-5l50 3c3,0 6,3 6,6 -1,3 -3,5 -6,5zm-88 -5l0 0c-1,0 -1,0 -1,0l-50 -3c-3,0 -6,-3 -6,-6 1,-3 3,-5 6,-5l51 3c3,0 5,3 5,6 0,3 -2,5 -5,5zm-89 -5l0 0c0,0 0,0 0,0l-50 -3c-4,0 -6,-3 -6,-6 0,-3 3,-5 6,-5l51 3c3,0 5,2 5,6 0,3 -3,5 -6,5zm-88 -5l0 0c0,0 0,0 0,0l-51 -3c-3,0 -5,-3 -5,-6 0,-3 3,-6 6,-5l50 2c4,1 6,3 6,7 0,3 -3,5 -6,5z"/>
    </g>
    <g>
     <path class="fil1" d="M3238 1669c-2,0 -4,-1 -5,-3 -1,-3 0,-7 3,-8l45 -22c3,-1 7,0 8,3 1,3 0,6 -3,8l-45 21c-1,1 -2,1 -3,1zm80 -38l0 0c-2,0 -4,-1 -5,-4 -2,-2 0,-6 3,-7l45 -22c3,-1 6,0 8,3 1,3 0,6 -3,7l-46 22c0,1 -1,1 -2,1zm80 -38l0 0c-2,0 -4,-2 -5,-4 -2,-2 -1,-6 2,-7l46 -22c3,-1 6,0 8,3 1,3 0,6 -3,7l-46 22c-1,1 -1,1 -2,1zm79 -38l0 0c-2,0 -4,-2 -5,-4 -1,-3 0,-6 3,-7l46 -22c2,-1 6,0 7,3 2,2 0,6 -2,7l-46 22c-1,0 -2,1 -3,1zm80 -38l0 0c-2,0 -4,-2 -5,-4 -1,-3 0,-6 3,-7l45 -22c3,-2 7,0 8,3 1,2 0,6 -3,7l-45 22c-1,0 -2,1 -3,1zm80 -39l0 0c-2,0 -4,-1 -5,-3 -2,-3 0,-6 3,-8l45 -21c3,-2 6,0 8,2 1,3 0,7 -3,8l-46 22c0,0 -1,0 -2,0zm80 -38l0 0c-2,0 -4,-1 -5,-3 -2,-3 -1,-6 2,-8l46 -21c3,-2 6,-1 8,2 1,3 0,7 -3,8l-46 22c-1,0 -1,0 -2,0zm79 -38l0 0c-2,0 -4,-1 -5,-3 -1,-3 0,-6 3,-8l46 -21c2,-2 6,-1 7,2 2,3 0,7 -2,8l-46 22c-1,0 -2,0 -3,0zm80 -38l0 0c-2,0 -4,-1 -5,-3 -1,-3 0,-6 3,-8l45 -22c3,-1 7,0 8,3 1,3 0,7 -3,8l-45 22c-1,0 -2,0 -3,0zm80 -38l0 0c-2,0 -4,-1 -5,-3 -2,-3 0,-6 3,-8l45 -22c3,-1 6,0 8,3 1,3 0,6 -3,8l-46 22c0,0 -1,0 -2,0zm80 -38l0 0c-2,0 -4,-1 -5,-3 -2,-3 -1,-7 2,-8l46 -22c3,-1 6,0 8,3 1,3 0,6 -3,8l-46 21c-1,1 -1,1 -2,1zm80 -38l0 0c-3,0 -5,-1 -6,-3 -1,-3 0,-7 3,-8l46 -22c2,-1 6,0 7,3 2,3 0,6 -2,8l-46 21c-1,1 -2,1 -2,1zm79 -38l0 0c-2,0 -4,-1 -5,-3 -1,-3 0,-7 3,-8l45 -22c3,-1 7,0 8,3 1,3 0,6 -3,8l-45 21c-1,1 -2,1 -3,1zm80 -38l0 0c-2,0 -4,-1 -5,-3 -2,-3 0,-7 3,-8l45 -22c3,-1 6,0 8,3 1,3 0,6 -3,7l-46 22c0,1 -1,1 -2,1zm80 -38l0 0c-2,0 -4,-1 -5,-4 -2,-2 -1,-6 2,-7l2 -1c3,-1 6,0 8,3 1,3 0,6 -3,7l-2 1c-1,1 -1,1 -2,1z"/>
    </g>
    <g>
     <path class="fil1" d="M4475 2233c-1,0 -1,-1 -2,-1l-48 -14c-3,-1 -5,-4 -4,-7 1,-3 4,-5 7,-4l48 14c3,1 5,4 4,7 -1,3 -3,5 -5,5zm-85 -26l0 0c-1,0 -1,0 -2,0l-48 -14c-3,-1 -5,-4 -4,-7 1,-3 4,-5 7,-4l49 14c3,1 4,4 3,7 0,3 -3,4 -5,4zm-85 -25l0 0c0,0 -1,0 -1,0l-49 -14c-3,-1 -5,-5 -4,-8 1,-3 4,-4 7,-3l49 14c3,1 5,4 4,7 -1,3 -3,4 -6,4zm-84 -25l0 0c-1,0 -2,0 -2,0l-49 -15c-3,-1 -4,-4 -3,-7 0,-3 4,-5 7,-4l48 15c3,1 5,4 4,7 -1,2 -3,4 -5,4zm-85 -25l0 0c-1,0 -1,0 -2,0l-48 -15c-3,-1 -5,-4 -4,-7 1,-3 4,-5 7,-4l48 15c3,0 5,4 4,7 0,2 -3,4 -5,4zm-85 -25l0 0c0,0 -1,0 -2,-1l-48 -14c-3,-1 -5,-4 -4,-7 1,-3 4,-5 7,-4l49 14c3,1 5,4 4,8 -1,2 -3,4 -6,4zm-85 -26l0 0c0,0 -1,0 -1,0l-49 -14c-3,-1 -4,-4 -4,-7 1,-3 5,-5 8,-4l48 14c3,1 5,4 4,7 -1,3 -3,4 -6,4zm-84 -25l0 0c-1,0 -1,0 -2,0l-48 -14c-3,-1 -5,-4 -4,-8 1,-3 4,-4 7,-3l48 14c3,1 5,4 4,7 -1,3 -3,4 -5,4zm-85 -25l0 0c-1,0 -1,0 -2,0l-48 -15c-3,0 -5,-4 -4,-7 1,-3 4,-4 7,-4l49 15c3,1 4,4 3,7 0,2 -3,4 -5,4zm-85 -25l0 0c0,0 -1,0 -1,0l-49 -15c-3,-1 -5,-4 -4,-7 1,-3 4,-5 7,-4l49 15c3,1 5,4 4,7 -1,2 -3,4 -6,4zm-84 -25l0 0c-1,0 -2,0 -2,-1l-48 -14c-4,-1 -5,-4 -4,-7 1,-3 4,-5 7,-4l48 14c3,1 5,5 4,8 -1,2 -3,4 -5,4zm-85 -25l0 0c-1,0 -1,-1 -2,-1l-48 -14c-3,-1 -5,-4 -4,-7 1,-3 4,-5 7,-4l48 14c4,1 5,4 4,7 0,3 -3,5 -5,5zm-85 -26l0 0c0,0 -1,0 -2,0l-48 -14c-3,-1 -5,-4 -4,-7 1,-4 4,-5 7,-4l49 14c3,1 5,4 4,7 -1,3 -3,4 -6,4zm-85 -25l0 0c0,0 -1,0 -1,0l-49 -14c-3,-1 -4,-5 -4,-8 1,-3 5,-4 8,-4l48 15c3,1 5,4 4,7 -1,3 -3,4 -6,4zm-84 -25l0 0c-1,0 -1,0 -2,0l-48 -15c-3,-1 -5,-4 -4,-7 1,-3 4,-5 7,-4l48 15c3,1 5,4 4,7 -1,2 -3,4 -5,4zm-85 -25l0 0c-1,0 -1,0 -2,0l-3 -1c-3,-1 -5,-5 -4,-8 1,-3 4,-4 7,-3l4 0c3,1 4,5 4,8 -1,2 -4,4 -6,4z"/>
    </g>
    <g>
     <path class="fil1" d="M2677 2475c0,0 -1,0 -2,-1 -3,-1 -4,-4 -3,-7l22 -46c1,-3 5,-4 8,-3 2,2 4,5 2,8l-21 46c-1,2 -3,3 -6,3zm38 -80l0 0c0,0 -1,0 -2,0 -3,-2 -4,-5 -3,-8l22 -46c1,-3 5,-4 8,-2 2,1 4,4 2,7l-21 46c-1,2 -3,3 -6,3zm38 -80l0 0c-1,0 -1,0 -2,0 -3,-2 -4,-5 -3,-8l22 -46c1,-2 5,-4 7,-2 3,1 5,5 3,7l-22 46c-1,2 -3,3 -5,3zm38 -79l0 0c-1,0 -1,-1 -2,-1 -3,-1 -4,-5 -3,-8l22 -45c1,-3 4,-4 7,-3 3,1 4,5 3,8l-22 45c-1,2 -3,4 -5,4zm38 -80l0 0c-1,0 -2,-1 -2,-1 -3,-1 -4,-5 -3,-8l22 -45c1,-3 4,-4 7,-3 3,1 4,5 3,8l-22 45c-1,2 -3,4 -5,4zm38 -80l0 0c-1,0 -2,0 -2,-1 -3,-1 -5,-5 -3,-7l21 -46c2,-3 5,-4 8,-3 3,2 4,5 3,8l-22 46c-1,2 -3,3 -5,3zm38 -80l0 0c-1,0 -2,0 -3,-1 -2,-1 -4,-4 -2,-7l21 -46c2,-3 5,-4 8,-3 3,2 4,5 3,8l-22 46c-1,2 -3,3 -5,3zm38 -80l0 0c-1,0 -2,0 -3,0 -3,-2 -4,-5 -2,-8l21 -46c2,-3 5,-4 8,-2 3,1 4,4 3,7l-22 46c-1,2 -3,3 -5,3z"/>
    </g>
    <g>
     <path class="fil1" d="M2758 2711c-3,0 -5,-2 -6,-5 0,-3 2,-6 5,-6l49 -10c3,-1 7,1 7,4 1,4 -1,7 -4,7l-50 10c0,0 -1,0 -1,0zm87 -17l0 0c-3,0 -5,-2 -6,-5 -1,-3 1,-6 5,-6l49 -10c3,-1 6,1 7,4 0,3 -2,6 -5,7l-49 10c-1,0 -1,0 -1,0zm86 -17l0 0c-2,0 -5,-2 -5,-5 -1,-3 1,-6 4,-7l50 -9c3,-1 6,1 7,4 0,3 -2,6 -5,7l-50 10c0,0 0,0 -1,0zm87 -17l0 0c-3,0 -5,-2 -6,-5 0,-3 2,-6 5,-7l49 -10c4,0 7,2 7,5 1,3 -1,6 -4,7l-50 10c0,0 -1,0 -1,0zm87 -18l0 0c-3,0 -5,-1 -6,-4 -1,-3 1,-6 5,-7l49 -10c3,0 6,2 7,5 1,3 -1,6 -5,7l-49 9c-1,0 -1,0 -1,0zm86 -17l0 0c-2,0 -5,-2 -5,-4 -1,-3 1,-6 4,-7l50 -10c3,-1 6,1 7,5 0,3 -2,6 -5,6l-49 10c-1,0 -1,0 -2,0zm87 -17l0 0c-3,0 -5,-2 -6,-5 0,-3 2,-6 5,-6l50 -10c3,-1 6,1 6,4 1,4 -1,7 -4,7l-50 10c0,0 -1,0 -1,0zm87 -17l0 0c-3,0 -5,-2 -6,-5 0,-3 2,-6 5,-6l49 -10c3,-1 6,1 7,4 1,3 -1,6 -5,7l-49 10c0,0 -1,0 -1,0zm86 -17l0 0c-2,0 -5,-2 -5,-5 -1,-3 1,-6 4,-7l50 -9c3,-1 6,1 7,4 0,3 -2,6 -5,7l-49 10c-1,0 -1,0 -2,0zm87 -17l0 0c-3,0 -5,-2 -5,-5 -1,-3 1,-6 4,-7l50 -10c3,0 6,2 6,5 1,3 -1,6 -4,7l-50 10c0,0 0,0 -1,0zm87 -18l0 0c-3,0 -5,-1 -6,-4 0,-3 2,-6 5,-7l49 -10c3,0 6,2 7,5 1,3 -1,6 -4,7l-50 9c0,0 -1,0 -1,0zm87 -17l0 0c-3,0 -6,-2 -6,-4 -1,-3 1,-6 4,-7l50 -10c3,-1 6,2 7,5 0,3 -2,6 -5,6l-49 10c-1,0 -1,0 -1,0zm86 -17l0 0c-2,0 -5,-2 -5,-4 -1,-4 1,-7 4,-7l50 -10c3,-1 6,1 6,4 1,4 -1,7 -4,7l-50 10c0,0 0,0 -1,0zm87 -17l0 0c-3,0 -5,-2 -6,-5 0,-3 2,-6 5,-6l49 -10c3,-1 7,1 7,4 1,3 -1,6 -4,7l-50 10c0,0 -1,0 -1,0zm87 -17l0 0c-3,0 -5,-2 -6,-5 -1,-3 1,-6 5,-7l49 -9c3,-1 6,1 7,4 0,3 -2,6 -5,7l-49 10c-1,0 -1,0 -1,0zm86 -17l0 0c-2,0 -5,-2 -5,-5 -1,-3 1,-6 4,-7l50 -10c3,0 6,2 7,5 0,3 -2,6 -5,7l-50 10c0,0 0,0 -1,0zm87 -17l0 0c-3,0 -5,-2 -6,-5 0,-3 2,-6 5,-7l49 -10c4,0 7,2 7,5 1,3 -1,6 -4,7l-50 9c0,0 -1,1 -1,1zm87 -18l0 0c-3,0 -5,-2 -6,-4 -1,-3 1,-6 5,-7l49 -10c3,0 6,2 7,5 1,3 -1,6 -5,6l-49 10c-1,0 -1,0 -1,0zm86 -17l0 0c-2,0 -5,-2 -5,-4 -1,-4 1,-7 4,-7l50 -10c3,-1 6,1 7,5 0,3 -2,6 -5,6l-49 10c-1,0 -1,0 -2,0zm87 -17l0 0c-3,0 -5,-2 -6,-5 0,-3 2,-6 5,-6l50 -10c3,-1 6,1 6,4 1,3 -1,7 -4,7l-50 10c0,0 -1,0 -1,0z"/>
    </g>
    <g>
     <path class="fil1" d="M4124 3354c0,0 -1,0 -2,0l-47 -17c-3,-1 -5,-4 -4,-7 1,-3 4,-5 7,-4l48 17c3,1 5,4 4,7 -1,2 -3,4 -6,4zm-83 -29l0 0c-1,0 -2,0 -2,0l-48 -17c-3,-1 -5,-4 -4,-7 1,-3 5,-4 8,-3l48 16c3,1 4,4 3,7 -1,3 -3,4 -5,4zm-84 -29l0 0c-1,0 -1,0 -2,0l-48 -16c-3,-1 -4,-5 -3,-8 1,-3 4,-4 7,-3l48 16c3,1 5,5 3,8 0,2 -3,3 -5,3zm-84 -28l0 0c0,0 -1,0 -1,0l-48 -17c-3,-1 -5,-4 -4,-7 1,-3 5,-5 8,-4l47 17c3,1 5,4 4,7 -1,2 -3,4 -6,4zm-83 -29l0 0c-1,0 -1,0 -2,0l-48 -17c-3,-1 -4,-4 -3,-7 1,-3 4,-4 7,-3l48 16c3,1 4,4 3,7 -1,3 -3,4 -5,4zm-84 -29l0 0c0,0 -1,0 -2,0l-47 -16c-3,-1 -5,-5 -4,-8 1,-3 4,-4 7,-3l48 16c3,1 5,5 4,8 -1,2 -3,3 -6,3zm-83 -28l0 0c-1,0 -2,0 -2,-1l-48 -16c-3,-1 -5,-4 -4,-7 1,-3 5,-5 8,-4l48 17c3,1 4,4 3,7 -1,2 -3,4 -5,4zm-84 -29l0 0c-1,0 -1,0 -2,0l-48 -17c-3,-1 -4,-4 -3,-7 1,-3 4,-5 7,-4l48 17c3,1 5,4 4,7 -1,3 -4,4 -6,4zm-84 -29l0 0c0,0 -1,0 -1,0l-48 -16c-3,-1 -5,-5 -4,-8 1,-3 5,-4 8,-3l47 16c3,1 5,5 4,8 -1,2 -3,3 -6,3zm-83 -28l0 0c-1,0 -1,0 -2,-1l-48 -16c-3,-1 -4,-4 -3,-7 1,-3 4,-5 7,-4l48 17c3,1 4,4 3,7 0,2 -3,4 -5,4zm-84 -29l0 0c0,0 -1,0 -2,0l-47 -17c-3,-1 -5,-4 -4,-7 1,-3 4,-5 7,-4l48 17c3,1 5,4 4,7 -1,3 -3,4 -6,4zm-83 -29l0 0c-1,0 -2,0 -2,0l-48 -16c-3,-1 -5,-5 -3,-8 1,-3 4,-4 7,-3l48 16c3,1 4,4 3,7 -1,3 -3,4 -5,4zm-84 -28l0 0c0,0 -1,0 -2,-1l-48 -16c-3,-1 -4,-4 -3,-7 1,-3 4,-5 7,-4l48 16c3,2 5,5 4,8 -1,2 -3,4 -6,4zm-83 -29l0 0c-1,0 -2,0 -2,0l-48 -17c-3,-1 -5,-4 -4,-7 1,-3 5,-5 8,-4l47 17c3,1 5,4 4,7 -1,3 -3,4 -5,4zm-84 -29l0 0c-1,0 -1,0 -2,0l-48 -16c-3,-1 -4,-5 -3,-8 1,-3 4,-4 7,-3l48 16c3,1 4,4 3,7 0,3 -3,4 -5,4zm-84 -28l0 0c0,0 -1,0 -2,-1l-47 -16c-3,-1 -5,-4 -4,-7 1,-3 4,-5 7,-4l48 16c3,1 5,5 4,8 -1,2 -3,4 -6,4zm-83 -29l0 0c-1,0 -1,0 -2,0l-48 -17c-3,-1 -4,-4 -3,-7 1,-3 4,-5 7,-4l48 17c3,1 4,4 3,7 -1,2 -3,4 -5,4z"/>
    </g>
    <g>
     <path class="fil1" d="M568 3426c-2,0 -4,-1 -5,-4 -1,-3 0,-6 3,-7l47 -18c3,-1 6,0 8,3 1,3 -1,7 -4,8l-47 18c0,0 -1,0 -2,0zm83 -31l0 0c-3,0 -5,-2 -6,-4 -1,-3 1,-6 4,-8l47 -17c3,-2 6,0 7,3 1,3 0,6 -3,7l-47 18c-1,1 -2,1 -2,1zm82 -32l0 0c-2,0 -4,-1 -5,-4 -1,-3 0,-6 3,-7l47 -18c3,-1 7,0 8,3 1,3 -1,7 -4,8l-47 18c0,0 -1,0 -2,0zm83 -31l0 0c-2,0 -5,-2 -6,-4 -1,-3 1,-6 4,-7l47 -18c3,-2 6,0 7,3 2,3 0,6 -3,7l-47 18c-1,1 -1,1 -2,1zm82 -32l0 0c-2,0 -4,-1 -5,-3 -1,-3 0,-7 3,-8l48 -18c3,-1 6,0 7,3 1,3 0,7 -3,8l-48 18c0,0 -1,0 -2,0zm83 -31l0 0c-2,0 -5,-2 -5,-4 -2,-3 0,-6 3,-7l47 -18c3,-1 6,0 8,3 1,3 -1,6 -4,7l-47 18c-1,1 -1,1 -2,1zm83 -32l0 0c-3,0 -5,-1 -6,-3 -1,-3 1,-7 4,-8l47 -18c3,-1 6,1 7,4 1,3 0,6 -3,7l-47 18c-1,0 -2,0 -2,0zm82 -31l0 0c-2,0 -4,-2 -5,-4 -1,-3 0,-6 3,-7l47 -18c3,-1 7,0 8,3 1,3 -1,6 -4,8l-47 17c0,1 -1,1 -2,1zm83 -32l0 0c-3,0 -5,-1 -6,-3 -1,-3 1,-7 4,-8l47 -18c3,-1 6,1 7,4 1,3 0,6 -3,7l-47 18c-1,0 -2,0 -2,0zm82 -31l0 0c-2,0 -4,-1 -5,-4 -1,-3 0,-6 3,-7l47 -18c3,-1 7,0 8,3 1,3 0,6 -3,8l-48 18c0,0 -1,0 -2,0zm83 -32l0 0c-2,0 -5,-1 -5,-3 -2,-3 0,-7 3,-8l47 -18c3,-1 6,1 7,4 2,3 0,6 -3,7l-47 18c-1,0 -1,0 -2,0zm83 -31l0 0c-3,0 -5,-1 -6,-4 -1,-3 0,-6 3,-7l48 -18c3,-1 6,0 7,3 1,3 0,7 -3,8l-47 18c-1,0 -2,0 -2,0zm82 -31l0 0c-2,0 -4,-2 -5,-4 -1,-3 0,-6 3,-8l47 -18c3,-1 7,1 8,4 1,3 -1,6 -4,7l-47 18c-1,0 -1,1 -2,1zm83 -32l0 0c-3,0 -5,-1 -6,-4 -1,-3 1,-6 4,-7l47 -18c3,-1 6,0 7,3 1,3 0,7 -3,8l-47 18c-1,0 -2,0 -2,0zm82 -31l0 0c-2,0 -4,-2 -5,-4 -1,-3 0,-6 3,-8l47 -17c3,-2 7,0 8,3 1,3 -1,6 -4,7l-47 18c0,1 -1,1 -2,1zm83 -32l0 0c-2,0 -5,-1 -6,-4 -1,-3 1,-6 4,-7l47 -18c3,-1 6,0 7,3 2,3 0,7 -3,8l-47 18c-1,0 -1,0 -2,0zm82 -31l0 0c-2,0 -4,-2 -5,-4 -1,-3 0,-6 3,-7l48 -18c3,-2 6,0 7,3 1,3 0,6 -3,7l-48 18c0,1 -1,1 -2,1zm83 -32l0 0c-2,0 -4,-1 -5,-3 -2,-3 0,-7 3,-8l47 -18c3,-1 6,0 8,3 1,3 -1,7 -4,8l-47 18c-1,0 -1,0 -2,0zm83 -31l0 0c-3,0 -5,-2 -6,-4 -1,-3 1,-6 4,-7l47 -18c3,-1 6,0 7,3 1,3 0,6 -3,7l-47 18c-1,1 -2,1 -2,1zm82 -32l0 0c-2,0 -4,-1 -5,-3 -1,-3 0,-7 3,-8l47 -18c3,-1 7,1 8,4 1,3 -1,6 -4,7l-47 18c0,0 -1,0 -2,0zm83 -31l0 0c-3,0 -5,-2 -6,-4 -1,-3 1,-6 4,-7l47 -18c3,-1 6,0 7,3 1,3 0,6 -3,8l-47 17c-1,1 -2,1 -2,1zm82 -32l0 0c-2,0 -4,-1 -5,-3 -1,-3 0,-7 3,-8l47 -18c3,-1 7,1 8,4 1,3 0,6 -3,7l-48 18c0,0 -1,0 -2,0z"/>
    </g>
    <g>
     <path class="fil1" d="M2350 2604c-1,0 -1,0 -1,0l-42 -5c-3,0 -5,-3 -5,-6 0,-4 3,-6 6,-5l42 5c3,0 6,3 5,6 0,3 -3,5 -5,5zm-80 -10l0 0c0,0 0,0 -1,0l-50 -6c-3,0 -5,-3 -5,-7 1,-3 3,-5 7,-5l50 7c3,0 5,3 5,6 -1,3 -3,5 -6,5zm-88 -11l0 0c0,0 0,0 0,0l-50 -6c-4,-1 -6,-3 -5,-7 0,-3 3,-5 6,-5l50 7c3,0 6,3 5,6 0,3 -3,5 -6,5zm-87 -11l0 0c0,0 -1,0 -1,0l-50 -6c-3,-1 -5,-3 -5,-7 0,-3 3,-5 6,-5l50 7c4,0 6,3 5,6 0,3 -2,5 -5,5zm-88 -11l0 0c0,0 0,0 -1,0l-50 -6c-3,-1 -5,-3 -5,-7 1,-3 3,-5 7,-5l50 7c3,0 5,3 5,6 -1,3 -3,5 -6,5zm-88 -11l0 0c0,0 0,0 0,0l-50 -6c-4,-1 -6,-3 -5,-7 0,-3 3,-5 6,-5l50 7c3,0 5,3 5,6 0,3 -3,5 -6,5zm-87 -11l0 0c-1,0 -1,0 -1,0l-50 -6c-3,-1 -6,-4 -5,-7 0,-3 3,-5 6,-5l50 7c4,0 6,3 5,6 0,3 -2,5 -5,5zm-88 -11l0 0c0,0 0,0 -1,0l-50 -6c-3,-1 -5,-4 -5,-7 1,-3 3,-5 7,-5l50 7c3,0 5,3 5,6 -1,3 -3,5 -6,5zm-88 -11l0 0c0,0 0,0 0,0l-51 -6c-3,-1 -5,-4 -5,-7 1,-3 4,-5 7,-5l50 7c3,0 5,3 5,6 0,3 -3,5 -6,5zm-87 -11l0 0c-1,0 -1,0 -1,0l-50 -6c-3,-1 -6,-4 -5,-7 0,-3 3,-5 6,-5l50 7c4,0 6,3 5,6 0,3 -3,5 -5,5zm-88 -11l0 0c0,0 -1,0 -1,0l-50 -6c-3,-1 -5,-4 -5,-7 1,-3 3,-5 7,-5l50 7c3,0 5,3 5,6 -1,3 -3,5 -6,5zm-88 -11l0 0c0,0 0,0 0,0l-51 -6c-3,-1 -5,-4 -5,-7 1,-3 4,-5 7,-5l50 6c3,1 5,4 5,7 0,3 -3,5 -6,5zm-87 -11l0 0c-1,0 -1,0 -1,0l-50 -6c-3,-1 -6,-4 -5,-7 0,-3 3,-5 6,-5l50 6c3,1 6,4 5,7 0,3 -3,5 -5,5zm-88 -11l0 0c0,0 -1,0 -1,0l-50 -6c-3,-1 -5,-4 -5,-7 0,-3 3,-5 7,-5l50 6c3,1 5,4 5,7 -1,3 -3,5 -6,5zm-88 -11l0 0c0,0 0,0 -1,0l-50 -6c-3,-1 -5,-4 -5,-7 1,-3 4,-5 7,-5l50 6c3,1 5,4 5,7 0,3 -3,5 -6,5zm-87 -11l0 0c-1,0 -1,0 -1,0l-50 -6c-3,-1 -6,-4 -5,-7 0,-3 3,-5 6,-5l50 6c3,1 6,4 5,7 0,3 -3,5 -5,5zm-88 -11l0 0c0,0 -1,0 -1,0l-50 -7c-3,0 -5,-3 -5,-6 0,-3 3,-5 6,-5l51 6c3,1 5,4 5,7 -1,3 -3,5 -6,5z"/>
    </g>
    <g>
     <path class="fil1" d="M905 2284c-3,0 -5,-2 -6,-4 -1,-4 1,-7 4,-8l29 -9c4,-1 7,1 8,4 1,3 -1,6 -4,7l-30 9c0,1 -1,1 -1,1zm65 -20l0 0c-2,0 -4,-2 -5,-5 -1,-3 1,-6 4,-7l48 -15c3,0 6,1 7,4 1,3 -1,7 -4,8l-48 14c0,0 -1,1 -2,1zm85 -26l0 0c-3,0 -5,-2 -6,-4 -1,-3 1,-7 4,-8l49 -14c3,-1 6,0 7,3 1,4 -1,7 -4,8l-48 14c-1,1 -2,1 -2,1zm84 -26l0 0c-2,0 -4,-2 -5,-4 -1,-3 1,-6 4,-7l48 -15c3,-1 6,1 7,4 1,3 -1,6 -4,7l-48 15c0,0 -1,0 -2,0zm85 -26l0 0c-3,0 -5,-2 -6,-4 -1,-3 1,-6 4,-7l49 -15c3,-1 6,1 7,4 1,3 -1,6 -4,7l-48 15c-1,0 -2,0 -2,0zm84 -26l0 0c-2,0 -4,-1 -5,-4 -1,-3 1,-6 4,-7l48 -15c3,-1 6,1 7,4 1,3 -1,6 -4,7l-48 15c0,0 -1,0 -2,0zm85 -26l0 0c-3,0 -5,-1 -6,-4 0,-3 1,-6 4,-7l49 -15c3,-1 6,1 7,4 1,3 -1,6 -4,7l-48 15c-1,0 -1,0 -2,0zm84 -25l0 0c-2,0 -4,-2 -5,-5 -1,-3 1,-6 4,-7l48 -14c3,-1 6,0 7,3 1,3 0,7 -4,8l-48 14c0,0 -1,1 -2,1zm85 -26l0 0c-2,0 -5,-2 -6,-4 0,-3 1,-7 4,-8l49 -14c3,-1 6,0 7,3 1,4 -1,7 -4,8l-48 14c-1,1 -1,1 -2,1zm85 -26l0 0c-3,0 -5,-2 -6,-4 -1,-3 1,-6 4,-7l48 -15c3,-1 6,1 7,4 1,3 0,6 -4,7l-48 15c0,0 -1,0 -1,0zm84 -26l0 0c-2,0 -5,-2 -5,-4 -1,-3 0,-6 3,-7l49 -15c3,-1 6,1 7,4 1,3 -1,6 -4,7l-48 15c-1,0 -1,0 -2,0zm85 -26l0 0c-3,0 -5,-1 -6,-4 -1,-3 1,-6 4,-7l48 -15c3,-1 6,1 7,4 1,3 0,6 -3,7l-49 15c0,0 -1,0 -1,0zm84 -26l0 0c-2,0 -5,-1 -5,-4 -1,-3 0,-6 3,-7l49 -15c3,-1 6,1 7,4 1,3 -1,6 -4,7l-48 15c-1,0 -1,0 -2,0zm85 -25l0 0c-3,0 -5,-2 -6,-5 -1,-3 1,-6 4,-7l48 -14c3,-1 6,0 7,3 1,3 0,7 -3,8l-49 14c0,0 -1,1 -1,1zm84 -26l0 0c-2,0 -5,-2 -5,-4 -1,-3 0,-7 3,-8l49 -14c3,-1 6,0 7,4 1,3 -1,6 -4,7l-48 14c-1,1 -1,1 -2,1zm85 -26l0 0c-3,0 -5,-2 -6,-4 -1,-3 1,-6 4,-7l48 -15c3,-1 6,1 7,4 1,3 0,6 -3,7l-49 15c0,0 -1,0 -1,0zm84 -26l0 0c-2,0 -5,-2 -5,-4 -1,-3 0,-6 3,-7l49 -15c3,-1 6,1 7,4 1,3 -1,6 -4,7l-48 15c-1,0 -1,0 -2,0zm85 -26l0 0c-3,0 -5,-1 -6,-4 -1,-3 1,-6 4,-7l48 -15c3,-1 7,1 7,4 1,3 0,6 -3,7l-49 15c0,0 -1,0 -1,0zm84 -26l0 0c-2,0 -5,-1 -5,-4 -1,-3 0,-6 3,-7l49 -15c3,-1 6,1 7,4 1,3 -1,6 -4,7l-48 15c-1,0 -1,0 -2,0zm85 -25l0 0c-3,0 -5,-2 -6,-5 -1,-3 1,-6 4,-7l48 -14c3,-1 7,0 7,3 1,3 0,7 -3,8l-49 14c0,0 -1,1 -1,1zm84 -26l0 0c-2,0 -5,-2 -5,-4 -1,-3 0,-7 4,-8l48 -14c3,-1 6,0 7,4 1,3 -1,6 -4,7l-48 14c-1,1 -1,1 -2,1zm85 -26l0 0c-3,0 -5,-2 -6,-4 -1,-3 1,-6 4,-7l48 -15c3,-1 7,1 8,4 0,3 -1,6 -4,7l-49 15c0,0 -1,0 -1,0z"/>
    </g>
   </g>
   <g>
    <g>
     <path class="fil2" d="M2702 0c-388,0 -702,314 -702,702 0,388 314,702 702,702 388,0 702,-314 702,-702 0,-388 -314,-702 -702,-702z"/>
     <path class="fil3" d="M2702 93c-336,0 -609,273 -609,609 0,336 273,609 609,609 336,0 609,-273 609,-609 0,-336 -273,-609 -609,-609z"/>
     <path class="fil4" d="M2702 166c-296,0 -536,240 -536,536 0,296 240,536 536,536 296,0 536,-240 536,-536 0,-296 -240,-536 -536,-536z"/>
     <g>
      <g>
       <path class="fil3" d="M2702 258c-9,0 -16,-8 -16,-17l0 -75c0,-9 7,-17 16,-17 9,0 17,8 17,17l0 75c0,9 -8,17 -17,17z"/>
      </g>
      <g>
       <path class="fil3" d="M2702 1255c-9,0 -16,-8 -16,-17l0 -75c0,-9 7,-16 16,-16 9,0 17,7 17,16l0 75c0,9 -8,17 -17,17z"/>
      </g>
     </g>
     <g>
      <g>
       <path class="fil3" d="M2241 719l-75 0c-9,0 -17,-8 -17,-17 0,-9 8,-16 17,-16l75 0c9,0 17,7 17,16 0,9 -8,17 -17,17z"/>
      </g>
      <g>
       <path class="fil3" d="M3238 719l-75 0c-9,0 -16,-8 -16,-17 0,-9 7,-16 16,-16l75 0c9,0 17,7 17,16 0,9 -8,17 -17,17z"/>
      </g>
     </g>
     <g>
      <g>
       <path class="fil3" d="M2323 1098c-4,0 -8,-2 -12,-5 -6,-7 -6,-17 0,-23l53 -54c7,-6 17,-6 24,0 6,7 6,17 0,24l-53 53c-4,3 -8,5 -12,5z"/>
      </g>
      <g>
       <path class="fil3" d="M3028 393c-4,0 -8,-2 -12,-5 -6,-7 -6,-17 0,-24l54 -53c6,-6 16,-6 23,0 6,7 6,17 0,24l-53 53c-3,3 -8,5 -12,5z"/>
      </g>
     </g>
     <g>
      <g>
       <path class="fil3" d="M3081 1098c-4,0 -8,-2 -11,-5l-54 -53c-6,-7 -6,-17 0,-24 7,-6 17,-6 24,0l53 54c6,6 6,16 0,23 -3,3 -8,5 -12,5z"/>
      </g>
      <g>
       <path class="fil3" d="M2376 393c-4,0 -8,-2 -12,-5l-53 -53c-6,-7 -6,-17 0,-24 7,-6 17,-6 24,0l53 53c6,7 6,17 0,24 -3,3 -8,5 -12,5z"/>
      </g>
     </g>
     <g>
      <path class="fil5" d="M2938 717l-236 0c-8,0 -15,-7 -15,-15l0 -341c0,-9 7,-15 15,-15 8,0 15,6 15,15l0 326 221 0c8,0 14,7 14,15 0,8 -6,15 -14,15z"/>
     </g>
    </g>
   </g>
   <g>
    <g>
     <path class="fil6" d="M3336 1356c0,0 25,602 327,639 303,38 602,-112 602,-112 0,0 -126,-165 -139,-536l-790 9z"/>
     <g>
      <g>
       <path class="fil7" d="M3095 2209l-357 0 0 -125 357 0c109,0 213,-46 285,-127l194 -222 94 81 -195 223c-96,108 -234,170 -378,170z"/>
      </g>
      <path class="fil8" d="M2633 2118c0,-53 42,-96 95,-96 53,0 95,43 95,96 0,52 -42,95 -95,95 -53,0 -95,-43 -95,-95z"/>
     </g>
     <path class="fil9" d="M3558 1711c0,0 162,-39 150,83 -13,122 -159,147 -159,147l-111 -76c15,-71 47,-128 120,-154z"/>
     <path class="fil6" d="M3732 1714c-219,1 -397,-176 -398,-395l-1 -176c0,-219 176,-397 395,-398 219,0 397,176 398,395l1 176c0,219 -176,397 -395,398z"/>
     <g>
      <path class="fil7" d="M3956 3944l-303 -350c-55,-64 -86,-145 -86,-230l0 -689 136 0 0 689c0,52 19,102 53,141l303 350 -103 89z"/>
     </g>
     <g>
      <g>
       <path class="fil7" d="M4063 1228c-35,0 -64,29 -64,64 0,36 29,64 64,64 36,0 64,-29 64,-64 0,-35 -29,-64 -64,-64z"/>
       <path class="fil10" d="M4063 1262c-17,0 -31,13 -31,30 1,17 14,31 31,31 17,0 31,-14 31,-31 0,-17 -14,-30 -31,-30z"/>
      </g>
      <g>
       <path class="fil11" d="M3365 1231c-36,0 -64,29 -64,64 0,35 29,64 64,63 35,0 64,-28 64,-64 0,-35 -29,-63 -64,-63z"/>
       <path class="fil10" d="M3365 1264c-17,0 -31,14 -31,31 0,17 14,30 31,30 17,0 31,-14 30,-30 0,-17 -13,-31 -30,-31z"/>
      </g>
     </g>
     <path class="fil11" d="M3708 1661c-193,1 -350,-155 -351,-347l0 -172c-1,-193 155,-350 348,-350 192,-1 349,155 350,348l0 171c1,193 -155,350 -347,350z"/>
     <g>
      <path class="fil12" d="M3789 1198c-22,0 -40,18 -40,40 0,22 18,40 40,40 22,0 40,-18 40,-40 0,-22 -18,-40 -40,-40z"/>
      <path class="fil12" d="M3479 1200c-22,0 -39,18 -39,40 0,22 18,39 40,39 22,0 39,-18 39,-40 0,-22 -18,-40 -40,-39z"/>
     </g>
     <path class="fil10" d="M3635 1398c-25,1 -45,-19 -45,-44l0 -17 90 -1 0 17c0,25 -20,45 -45,45z"/>
     <g>
      <path class="fil6" d="M3737 1456l0 18c0,31 -14,58 -35,77 -18,16 -41,25 -67,25 -25,0 -48,-9 -66,-24 -22,-19 -36,-47 -36,-77l0 -18 204 -1z"/>
      <g>
       <path class="fil13" d="M3702 1551c-18,16 -41,25 -67,25 -25,0 -48,-9 -66,-24 11,-21 37,-35 66,-35 30,0 55,14 67,34z"/>
       <polygon class="fil5" points="3533,1480 3737,1479 3737,1456 3533,1457 "/>
      </g>
     </g>
     <path class="fil11" d="M3881 2783l0 -911c0,-95 -77,-173 -173,-173 -95,0 -173,78 -173,173l0 565c0,191 155,346 346,346z"/>
     <g>
      <path class="fil14" d="M3882 2453l-348 0 0 124c0,123 101,224 224,224l142 0 36 -80c46,-91 24,-202 -54,-268z"/>
      <g>
       <path class="fil15" d="M3690 2644c-34,0 -62,-28 -62,-62l0 -129 16 0 0 129c0,25 21,46 46,46l0 16z"/>
      </g>
      <polygon class="fil15" points="3882,2417 3534,2417 3534,2453 3882,2453 "/>
      <polygon class="fil14" points="3842,2458 3828,2458 3828,2417 3842,2417 "/>
      <polygon class="fil14" points="3722,2458 3708,2458 3708,2417 3722,2417 "/>
      <polygon class="fil14" points="3561,2458 3547,2458 3547,2417 3561,2417 "/>
     </g>
     <g>
      <polygon class="fil11" points="3565,4147 3433,4115 3776,2679 3908,2710 "/>
     </g>
     <path class="fil16" d="M3534 2577l0 351c0,0 103,90 348,22 0,0 61,-141 78,-308l-426 -65z"/>
     <path class="fil17" d="M3960 2725c-27,8 -53,14 -78,19 -52,9 -99,13 -140,13 -147,-1 -222,-53 -222,-53l14 -834c0,-48 20,-91 51,-123 4,-4 8,-7 12,-11 -7,39 -6,60 39,105 0,0 134,-64 174,-112 44,32 72,83 72,141l88 658c12,98 -10,197 -10,197z"/>
     <path class="fil11" d="M3708 1775c-29,0 -53,-24 -53,-53l0 -99 106 0 0 99c0,29 -24,53 -53,53z"/>
     <g>
      <path class="fil8" d="M3576 4100l0 111 -277 0c0,-31 14,-59 36,-79 1,0 1,0 1,0 11,-9 23,-17 36,-22 16,-7 34,-10 52,-10l152 0z"/>
      <path class="fil17" d="M3290 4187l286 0c7,0 12,6 12,12 0,7 -5,12 -12,12l-286 0c-7,0 -12,-5 -12,-12 0,-6 5,-12 12,-12z"/>
      <path class="fil17" d="M3424 4192l-37 19 -1 0 0 0 -51 -79c10,-9 22,-17 35,-22l54 82z"/>
     </g>
     <g>
      <path class="fil7" d="M4053 3848l71 85 -212 178c-20,-24 -27,-54 -22,-84 0,0 0,-1 0,-1 2,-14 7,-27 13,-40 8,-15 20,-29 34,-41l116 -97z"/>
      <path class="fil17" d="M3890 4098l220 -184c5,-4 12,-3 16,2 5,5 4,12 -1,16l-220 184c-5,4 -12,4 -16,-1 -5,-5 -4,-13 1,-17z"/>
      <path class="fil17" d="M3996 4016l-17 38 0 0 0 0 -90 -27c2,-14 6,-27 13,-40l94 29z"/>
     </g>
     <path class="fil6" d="M3706 770c0,0 -346,-22 -443,372 0,0 266,71 486,-98 219,-168 133,-238 133,-238l-176 -36z"/>
     <path class="fil6" d="M3789 941c0,0 195,226 300,226 0,0 5,-292 -195,-345l-105 119z"/>
     <path class="fil6" d="M4067 1152c0,0 -12,442 -12,517 0,0 -92,-278 -65,-574l77 57z"/>
     <g>
      <g>
       <path class="fil11" d="M3363 2234l-357 0 0 -124 357 0c109,0 213,-47 286,-128l194 -222 93 81 -194 223c-97,108 -235,170 -379,170z"/>
      </g>
      <path class="fil8" d="M2901 2143c0,-53 43,-96 96,-96 52,0 95,43 95,96 0,52 -43,95 -95,95 -53,0 -96,-43 -96,-95z"/>
     </g>
     <path class="fil18" d="M3826 1736c0,0 163,-39 150,83 -13,122 -159,147 -159,147l-110 -76c15,-71 47,-128 119,-154z"/>
    </g>
    <g>
     <path class="fil11" d="M2703 2180l-353 0c-148,0 -286,-67 -379,-182l98 -78c68,86 171,135 281,135l353 0 0 125z"/>
    </g>
    <g>
     <path class="fil3" d="M2562 2180l-212 0c-148,0 -286,-67 -379,-182l-117 -147c-64,-80 -159,-126 -261,-126l0 -124c140,0 270,63 358,172l118 147c68,86 171,135 281,135l212 0 0 125z"/>
    </g>
    <g>
     <g>
      <path class="fil19" d="M1302 2259l0 426c0,49 -40,89 -89,89l-124 0c-49,0 -88,-40 -88,-89l0 -160c0,-10 0,-20 1,-30 0,-2 1,-4 1,-5 17,-131 129,-231 264,-231l35 0z"/>
      <g>
       <path class="fil20" d="M1287 2259l-49 134c-22,64 -83,107 -151,107l-85 0 0 -10 85 0c64,0 120,-41 141,-101l48 -130 11 0z"/>
      </g>
      <path class="fil21" d="M1186 2742l-70 0c-40,0 -73,-33 -73,-73l0 -54c0,-21 18,-39 40,-39l137 0c21,0 39,18 39,39l0 54c0,40 -33,73 -73,73z"/>
      <path class="fil22" d="M1220 2576l-33 0c21,0 39,18 39,39l0 54c0,40 -32,73 -72,73l32 0c40,0 73,-33 73,-73l0 -54c0,-21 -18,-39 -39,-39z"/>
      <g>
       <polygon class="fil23" points="1259,2634 1226,2634 1226,2623 1259,2623 "/>
      </g>
      <g>
       <polygon class="fil24" points="1226,2634 1043,2634 1043,2623 1226,2623 "/>
      </g>
     </g>
     <g>
      <g>
       <polygon class="fil7" points="1840,4173 1674,4173 1674,2543 1840,2543 "/>
      </g>
      <g>
       <polygon class="fil7" points="1497,4173 1332,4173 1332,2543 1497,2543 "/>
      </g>
     </g>
     <path class="fil16" d="M1859 2577c-5,108 -93,195 -203,195l-140 0c-110,0 -199,-87 -203,-195l546 0z"/>
     <polygon class="fil16" points="1674,4182 1849,4186 1859,2528 1632,2528 "/>
     <polygon class="fil16" points="1332,4144 1497,4144 1538,2528 1312,2528 "/>
     <path class="fil6" d="M1803 4015c-72,0 -129,58 -129,129l0 38 258 0 0 -38c0,-71 -58,-129 -129,-129z"/>
     <path class="fil6" d="M1410 4015c-72,0 -129,58 -129,129l0 38 258 0 0 -38c0,-71 -58,-129 -129,-129z"/>
     <polygon class="fil25" points="1539,4211 1281,4211 1281,4182 1539,4182 "/>
     <polygon class="fil25" points="1932,4211 1674,4211 1674,4182 1932,4182 "/>
     <path class="fil26" d="M1577 596l0 0c216,0 391,175 391,391l0 199 -782 0 0 -199c0,-216 175,-391 391,-391z"/>
     <g>
      <g>
       <path class="fil11" d="M1932 1120c-37,0 -67,30 -67,66 0,37 30,66 67,66 36,0 66,-29 66,-66 0,-36 -30,-66 -66,-66z"/>
       <path class="fil10" d="M1932 1154c-18,0 -32,15 -32,32 0,18 14,32 32,32 17,0 31,-14 31,-32 0,-17 -14,-32 -31,-32z"/>
      </g>
      <g>
       <path class="fil11" d="M1207 1120c-37,0 -67,30 -67,66 0,37 30,66 67,66 36,0 66,-29 66,-66 0,-36 -30,-66 -66,-66z"/>
       <path class="fil10" d="M1207 1154c-18,0 -32,15 -32,32 0,18 14,32 32,32 17,0 31,-14 31,-32 0,-17 -14,-32 -31,-32z"/>
      </g>
     </g>
     <path class="fil11" d="M1586 1568c-201,0 -363,-162 -363,-362l0 -178c0,-201 162,-363 363,-363 200,0 362,162 362,363l0 178c0,200 -162,362 -362,362z"/>
     <g>
      <path class="fil12" d="M1779 1088c-23,0 -41,18 -41,41 0,23 18,42 41,42 23,0 42,-19 42,-42 0,-23 -19,-41 -42,-41z"/>
      <path class="fil12" d="M1458 1088c-23,0 -41,18 -41,41 0,23 18,42 41,42 23,0 42,-19 42,-42 0,-23 -19,-41 -42,-41z"/>
     </g>
     <g>
      <path class="fil26" d="M1840 1086l-101 0c-8,0 -15,-7 -15,-15l0 -4c0,-8 7,-15 15,-15l101 0c9,0 15,7 15,15l0 4c0,8 -6,15 -15,15z"/>
      <path class="fil26" d="M1498 1086l-101 0c-8,0 -15,-7 -15,-15l0 -4c0,-8 7,-15 15,-15l101 0c8,0 15,7 15,15l0 4c0,8 -7,15 -15,15z"/>
     </g>
     <g>
      <path class="fil6" d="M1724 1355l0 19c0,32 -14,60 -36,80 -19,16 -43,25 -69,25 -27,0 -51,-9 -69,-25 -23,-20 -37,-48 -37,-80l0 -19 211 0z"/>
      <g>
       <path class="fil13" d="M1688 1454c-19,16 -43,25 -69,25 -27,0 -51,-9 -69,-25 12,-22 38,-36 69,-36 30,0 57,14 69,36z"/>
       <polygon class="fil5" points="1513,1379 1724,1379 1724,1355 1513,1355 "/>
      </g>
     </g>
     <path class="fil10" d="M1619 1295c-26,0 -47,-21 -47,-47l0 -17 93 0 0 17c0,26 -21,47 -46,47z"/>
     <path class="fil26" d="M1313 768l-98 131 0 307 30 0c37,0 68,-30 68,-67l0 -371z"/>
     <path class="fil27" d="M1871 1843l-19 723 -533 0 -19 -723c-3,-126 98,-230 224,-230l123 0c24,0 48,4 69,11 92,30 157,117 155,219z"/>
     <path class="fil3" d="M1877 1782l0 55 -2 792 -233 0c-22,0 -40,-13 -50,-30 -4,-8 -6,-17 -6,-27l0 -595 7 -20 126 -344 26 6c18,4 34,10 49,18 26,15 47,37 62,62 14,25 21,53 21,83z"/>
     <path class="fil3" d="M1586 1977l0 595c0,10 -3,19 -7,26 -9,18 -28,31 -50,31l-233 0 -2 -792c-3,-104 64,-193 158,-224l126 344 8 20z"/>
     <path class="fil16" d="M1586 1977l110 -375c33,7 62,15 82,25l-70 153 -34 9 21 25 -109 163z"/>
     <path class="fil16" d="M1586 1977l-111 -375c-33,9 -63,21 -85,39l73 139 34 9 -21 25 110 163z"/>
     <path class="fil16" d="M1593 1957l0 641 -1 0c-4,-7 -6,-16 -6,-26 0,10 -3,19 -7,26l-1 0 0 -641 8 20 7 -20z"/>
     <path class="fil2" d="M1586 1675c3,7 5,10 5,10l74 50c0,0 48,-78 31,-133 0,0 -55,-11 -110,-11 -56,0 -111,11 -111,11 -17,55 31,133 31,133l74 -50c0,0 2,-3 6,-10z"/>
     <path class="fil2" d="M1586 1675c3,7 5,10 5,10l74 50c0,0 48,-78 31,-133 0,0 -55,-11 -110,-11 -56,0 -111,11 -111,11 -17,55 31,133 31,133l74 -50c0,0 2,-3 6,-10z"/>
     <path class="fil11" d="M1586 1670c-31,0 -56,-25 -56,-55l0 -103 111 0 0 103c0,30 -25,55 -55,55z"/>
     <g>
      <path class="fil4" d="M1641 2083c-8,0 -14,6 -14,14 0,8 6,14 14,14 7,0 13,-6 13,-14 0,-8 -6,-14 -13,-14z"/>
      <path class="fil4" d="M1641 2217c-8,0 -14,7 -14,14 0,8 6,14 14,14 7,0 13,-6 13,-14 0,-7 -6,-14 -13,-14z"/>
      <path class="fil4" d="M1641 2352c-8,0 -14,6 -14,14 0,7 6,13 14,13 7,0 13,-6 13,-13 0,-8 -6,-14 -13,-14z"/>
     </g>
     <g>
      <path class="fil19" d="M1860 1687c-36,140 -123,423 -274,594 -81,91 -181,155 -303,155l0 -75c81,0 192,-39 303,-203 31,-46 62,-103 93,-172 62,-139 99,-280 115,-349 26,15 51,24 66,50z"/>
     </g>
     <g>
      <path class="fil28" d="M1582 556l0 0c219,0 398,178 398,398l0 73 -796 0 0 -73c0,-220 178,-398 398,-398z"/>
      <path class="fil29" d="M1296 1072c226,-62 464,-62 689,0 23,6 48,-6 55,-29 7,-22 -7,-47 -32,-54 -241,-65 -494,-65 -734,0 -25,7 -39,32 -32,54 7,23 31,35 54,29z"/>
      <g>
       <path class="fil5" d="M1692 834c28,17 28,45 0,63 -28,17 -74,17 -102,0 -28,-18 -28,-46 0,-63 28,-18 74,-18 102,0z"/>
       <path class="fil30" d="M1679 842c21,13 21,34 0,47 -21,13 -55,13 -76,0 -22,-13 -22,-34 0,-47 21,-13 55,-13 76,0z"/>
      </g>
     </g>
    </g>
    <g>
     <polygon class="fil31" points="2709,1726 2077,1726 2077,2210 2709,2210 "/>
     <polygon class="fil32" points="2272,1726 2077,1726 2077,2210 2272,2210 "/>
     <polygon class="fil5" points="2477,1865 2321,1865 2321,1779 2477,1779 "/>
     <g>
      <g>
       <g>
        <path class="fil5" d="M2513 2178l-71 0 0 -72 71 0 0 72zm-66 -6l0 0 61 0 0 -61 -61 0 0 61z"/>
       </g>
       <g>
        <g>
         <polygon class="fil5" points="2498,2166 2457,2166 2457,2161 2498,2161 "/>
        </g>
        <g>
         <g>
          <polygon class="fil5" points="2466,2120 2457,2144 2476,2144 "/>
          <g>
           <polygon class="fil5" points="2469,2159 2464,2159 2464,2139 2469,2139 "/>
          </g>
         </g>
         <g>
          <polygon class="fil5" points="2489,2120 2479,2144 2498,2144 "/>
          <g>
           <polygon class="fil5" points="2491,2159 2486,2159 2486,2139 2491,2139 "/>
          </g>
         </g>
        </g>
       </g>
      </g>
      <g>
       <g>
        <path class="fil5" d="M2597 2177l-71 0 0 -72 71 0 0 72zm-66 -5l0 0 61 0 0 -61 -61 0 0 61z"/>
       </g>
       <g>
        <g>
         <g>
          <path class="fil5" d="M2553 2127l0 8c0,3 -2,5 -5,5 -3,0 -5,-2 -5,-5l0 -8 10 0zm5 -5l0 0 -20 0 0 13c0,6 4,10 10,10 6,0 10,-4 10,-10l0 -13z"/>
         </g>
         <g>
          <polygon class="fil5" points="2551,2161 2545,2161 2545,2145 2551,2145 "/>
         </g>
         <g>
          <polygon class="fil5" points="2558,2163 2538,2163 2538,2158 2558,2158 "/>
         </g>
        </g>
        <g>
         <path class="fil5" d="M2575 2145c-6,0 -10,-4 -10,-10l0 -13 20 0 0 13c0,6 -5,10 -10,10z"/>
         <g>
          <polygon class="fil5" points="2577,2161 2572,2161 2572,2145 2577,2145 "/>
         </g>
         <g>
          <polygon class="fil5" points="2585,2163 2565,2163 2565,2158 2585,2158 "/>
         </g>
        </g>
       </g>
      </g>
      <g>
       <g>
        <path class="fil5" d="M2681 2177l-72 0 0 -72 72 0 0 72zm-66 -5l0 0 61 0 0 -61 -61 0 0 61z"/>
       </g>
       <g>
        <g>
         <path class="fil5" d="M2640 2163c-4,0 -8,-3 -8,-8l0 -2 6 0 0 2c0,2 1,3 2,3 1,0 2,-1 2,-3l0 -33 6 0 0 33c0,5 -4,8 -8,8z"/>
        </g>
        <path class="fil5" d="M2663 2141l-36 0c0,-10 8,-17 17,-17l2 0c9,0 17,7 17,17z"/>
       </g>
      </g>
     </g>
    </g>
    <g>
     <g>
      <path class="fil11" d="M2272 2256l-357 0c-144,0 -282,-62 -378,-169l-195 -223 94 -82 194 223c72,80 176,127 285,127l357 0 0 124z"/>
     </g>
     <path class="fil8" d="M2377 2165c0,-53 -42,-95 -95,-95 -53,0 -95,42 -95,95 0,53 42,95 95,95 53,0 95,-42 95,-95z"/>
     <g>
      <path class="fil33" d="M2150 2260l-235 0c-145,0 -284,-62 -381,-170l-215 -239c-25,-27 -23,-69 5,-94 27,-24 69,-22 93,5l216 239c72,81 175,127 282,127l235 0 0 132z"/>
     </g>
     <g>
      <polygon class="fil16" points="2062,2128 2150,2128 2150,2267 2053,2288 "/>
      <path class="fil4" d="M2101 2227c-6,0 -11,5 -11,11 0,6 5,11 11,11 6,0 11,-5 11,-11 0,-6 -5,-11 -11,-11z"/>
     </g>
    </g>
   </g>
  </g>
 </g>
</svg>
