<?xml version="1.0" encoding="UTF-8"?>
<!DOCTYPE svg PUBLIC "-//W3C//DTD SVG 1.1//EN" "http://www.w3.org/Graphics/SVG/1.1/DTD/svg11.dtd">
<!-- Creator: CorelDRAW X7 -->
<svg xmlns="http://www.w3.org/2000/svg" xml:space="preserve" width="5.79in" height="3.334in" version="1.1" style="shape-rendering:geometricPrecision; text-rendering:geometricPrecision; image-rendering:optimizeQuality; fill-rule:evenodd; clip-rule:evenodd"
viewBox="0 0 5790 3334"
 xmlns:xlink="http://www.w3.org/1999/xlink">
 <defs>
  <style type="text/css">
   <![CDATA[
    .fil31 {fill:#2B2F46}
    .fil5 {fill:#FEFEFE;fill-rule:nonzero}
    .fil7 {fill:#FEFEFE;fill-rule:nonzero}
    .fil0 {fill:#FCD826;fill-rule:nonzero}
    .fil13 {fill:#008375;fill-rule:nonzero}
    .fil26 {fill:#009A8B;fill-rule:nonzero}
    .fil27 {fill:#00A292;fill-rule:nonzero}
    .fil21 {fill:#00B6B2;fill-rule:nonzero}
    .fil19 {fill:#243340;fill-rule:nonzero}
    .fil10 {fill:#252629;fill-rule:nonzero}
    .fil14 {fill:#26363A;fill-rule:nonzero}
    .fil16 {fill:#2A2B2D;fill-rule:nonzero}
    .fil1 {fill:#2B2F46;fill-rule:nonzero}
    .fil22 {fill:#2D3149;fill-rule:nonzero}
    .fil20 {fill:#303957;fill-rule:nonzero}
    .fil6 {fill:#334D86;fill-rule:nonzero}
    .fil12 {fill:#686B7F;fill-rule:nonzero}
    .fil29 {fill:#A0B6DE;fill-rule:nonzero}
    .fil34 {fill:#B5ADB4;fill-rule:nonzero}
    .fil11 {fill:#BABDCD;fill-rule:nonzero}
    .fil23 {fill:#BB874E;fill-rule:nonzero}
    .fil3 {fill:#C7CCCC;fill-rule:nonzero}
    .fil30 {fill:#CDD6ED;fill-rule:nonzero}
    .fil28 {fill:#D1DBF0;fill-rule:nonzero}
    .fil32 {fill:#D33438;fill-rule:nonzero}
    .fil17 {fill:#E0C09B;fill-rule:nonzero}
    .fil24 {fill:#E2AF71;fill-rule:nonzero}
    .fil9 {fill:#E93B38;fill-rule:nonzero}
    .fil8 {fill:#EE3F42;fill-rule:nonzero}
    .fil33 {fill:#EF453C;fill-rule:nonzero}
    .fil18 {fill:#F0594D;fill-rule:nonzero}
    .fil2 {fill:#F16453;fill-rule:nonzero}
    .fil15 {fill:#F3F6F7;fill-rule:nonzero}
    .fil25 {fill:#F4C784;fill-rule:nonzero}
    .fil4 {fill:#FEFEFE;fill-rule:nonzero}
   ]]>
  </style>
 </defs>
 <g id="Layer_x0020_1">
  <metadata id="CorelCorpID_0Corel-Layer"/>
  <g id="_883730688">
   <path class="fil0" d="M5404 3149c-34,63 -75,125 -124,177l-4934 0c-39,-41 -74,-87 -106,-139 -46,-68 -88,-139 -124,-214 -257,-536 -98,-1301 584,-1402 252,-37 514,-23 755,-114 319,-120 423,-412 628,-654 151,-178 354,-318 581,-375 422,-106 852,119 1090,465 124,180 220,379 351,554 361,484 1405,426 1437,1160 8,188 -48,376 -138,542l0 0z"/>
   <path class="fil1" d="M4419 1400c-16,57 -68,94 -125,94 -11,0 -23,-1 -35,-5 -57,-16 -95,-68 -95,-125 0,-11 2,-23 5,-35 16,-57 69,-95 125,-95 12,0 24,2 36,5 57,17 94,69 94,125 0,12 -2,24 -5,36zm-178 152l0 0 1 -5 -1 5zm267 -201c-2,-32 -11,-63 -26,-91l26 -15c-13,-24 -31,-46 -51,-64l-20 23c-24,-21 -52,-37 -84,-46l8 -29 0 0c-22,-7 -45,-10 -67,-10 -5,0 -10,0 -14,1l1 30c-32,2 -63,11 -91,27l-15 -27c-24,14 -46,31 -64,51l23 21c-21,23 -37,51 -46,83l-29 -8 -1 1c-6,22 -9,44 -9,66 0,5 0,10 1,15l30 -2c2,32 11,64 27,91l-27 15c13,24 31,46 51,64l21 -23c23,21 51,37 83,47l-8 29 0 0c23,6 45,9 67,9 5,0 10,0 15,0l-2 -31c33,-2 64,-11 92,-26l15 26c23,-13 45,-31 64,-51l-23 -20c20,-24 37,-52 46,-84l29 8 0 0c6,-22 9,-45 9,-67 0,-5 0,-10 0,-14l-31 1z"/>
   <path class="fil1" d="M3099 849c-8,25 -31,42 -57,42 -5,0 -10,-1 -16,-2 -25,-7 -42,-31 -42,-56 0,-6 1,-11 2,-16 7,-26 31,-43 56,-43 6,0 11,1 16,3 26,7 43,30 43,56 0,5 -1,10 -2,16zm-81 68l0 0 1 -2 -1 2zm121 -90c-1,-15 -5,-29 -12,-41l12 -7c-6,-11 -14,-20 -24,-29l-9 11c-10,-10 -23,-17 -37,-21l4 -13 -1 0c-10,-3 -20,-4 -30,-4 -2,0 -4,0 -6,0l1 13c-15,1 -29,5 -42,12l-6 -12c-11,6 -21,14 -29,24l10 9c-9,10 -16,23 -20,37l-14 -4 0 1c-2,10 -4,20 -4,30 0,2 0,4 0,6l14 -1c1,15 5,29 12,42l-12 6c6,11 14,21 23,29l9 -10c11,9 23,16 38,21l-4 13 0 0c10,3 20,4 30,4 3,0 5,0 7,0l-1 -14c15,-1 29,-5 41,-12l7 12c11,-6 21,-14 29,-23l-10 -9c9,-11 16,-24 20,-38l13 4 0 0c3,-10 5,-20 5,-30 0,-3 -1,-5 -1,-7l-13 1z"/>
   <path class="fil2" d="M2767 2735l-1113 0 392 -568c18,-26 47,-41 78,-41l643 0 0 609 0 0z"/>
   <path class="fil1" d="M2240 2614l-411 0 274 -408c9,-13 24,-21 40,-21l201 0c10,0 18,8 18,17l0 290c0,68 -55,122 -122,122l0 0z"/>
   <path class="fil3" d="M2341 2225l0 257c0,61 -49,110 -110,110l-367 0 246 -366c7,-12 21,-19 35,-19l178 0c10,0 18,8 18,18l0 0z"/>
   <polygon class="fil4" points="2250,2207 2117,2592 1971,2592 2218,2207 "/>
   <path class="fil2" d="M2505 2614l0 504 -1050 0 0 -398c0,-26 9,-50 25,-69 20,-23 48,-37 80,-37l945 0 0 0z"/>
   <polygon class="fil5" points="2480,3124 4547,3124 4547,1863 2480,1863 "/>
   <polygon class="fil6" points="2540,3066 4488,3066 4488,1921 2540,1921 "/>
   <polygon class="fil7" points="3774,2188 4390,2188 4390,1993 3774,1993 "/>
   <path class="fil8" d="M1639 2655c1,10 -97,66 -97,66l-87 0 0 -1c0,-26 9,-50 25,-69 45,-1 158,-5 159,4l0 0z"/>
   <path class="fil9" d="M2190 3118l-549 0c2,-150 124,-272 274,-272 151,0 273,122 275,272z"/>
   <path class="fil10" d="M2157 3118l-475 0c1,-130 107,-234 237,-234 130,0 236,104 238,234l0 0z"/>
   <path class="fil1" d="M1715 3121c0,113 92,204 204,204 113,0 204,-91 204,-204 0,-113 -91,-204 -204,-204 -112,0 -204,91 -204,204z"/>
   <path class="fil11" d="M1774 3121c0,-7 7,-12 14,-9l42 13c8,3 15,10 18,18l0 2c3,9 2,18 -4,25l-26 36c-4,5 -12,5 -16,0 -18,-25 -28,-54 -28,-85l0 0zm95 123l27 -37c5,-7 14,-11 23,-11l0 0c10,0 18,4 24,11l26 36c4,6 1,14 -5,16 -28,9 -59,10 -90,0l0 0c-6,-2 -9,-10 -5,-15l0 0zm151 -38l-26 -36c-5,-7 -7,-16 -4,-25l1 -2c3,-8 9,-15 18,-18l42 -13c7,-3 13,2 13,9 0,15 -2,30 -7,45 -5,15 -12,28 -20,40 -4,6 -13,6 -17,0zm11 -155l-42 14c-8,3 -18,1 -25,-4l-1 -1c-8,-5 -12,-14 -12,-23l0 -45c0,-6 7,-11 13,-9 30,10 55,29 72,53 4,5 2,13 -5,15l0 0zm-144 -58l0 44c0,9 -4,18 -11,23l-2 1c-7,5 -16,7 -24,4l-43 -14c-6,-2 -9,-10 -5,-15 18,-25 44,-43 72,-53 7,-2 13,3 13,10l0 0zm-110 200c19,38 52,67 93,80 16,5 33,8 49,8 67,0 130,-43 152,-111 13,-40 10,-84 -10,-122 -19,-38 -52,-66 -92,-79 -84,-27 -174,19 -202,103 -13,40 -9,83 10,121z"/>
   <path class="fil11" d="M1871 3121c0,27 21,48 48,48 27,0 49,-21 49,-48 0,-27 -22,-49 -49,-49 -27,0 -48,22 -48,49z"/>
   <path class="fil12" d="M1874 3121c0,25 20,45 45,45 25,0 45,-20 45,-45 0,-25 -20,-45 -45,-45 -25,0 -45,20 -45,45zm-7 0c0,-29 24,-52 52,-52 29,0 52,23 52,52 0,29 -23,52 -52,52 -28,0 -52,-23 -52,-52z"/>
   <path class="fil13" d="M4243 3121l0 3 -549 0 0 -3c0,-152 123,-275 274,-275 152,0 275,123 275,275z"/>
   <path class="fil10" d="M4209 3121l0 3 -474 0 0 -3c0,-131 106,-237 237,-237 131,0 237,106 237,237l0 0z"/>
   <path class="fil1" d="M3768 3121c0,113 92,204 204,204 113,0 204,-91 204,-204 0,-113 -91,-204 -204,-204 -112,0 -204,91 -204,204z"/>
   <path class="fil11" d="M3827 3121c0,-7 7,-12 14,-9l42 13c8,3 15,10 18,18l0 2c3,9 2,18 -4,25l-26 36c-4,5 -12,5 -16,0 -18,-25 -28,-54 -28,-85l0 0zm95 123l27 -37c5,-7 14,-11 23,-11l1 0c9,0 17,4 23,11l26 36c4,6 1,14 -5,16 -28,9 -59,10 -89,0l-1 0c-6,-2 -8,-10 -5,-15l0 0zm152 -38l-27 -36c-5,-7 -6,-16 -4,-25l1 -2c3,-8 9,-15 18,-18l42 -13c7,-3 13,2 13,9 0,15 -2,30 -7,45 -4,15 -12,28 -20,40 -4,6 -13,6 -16,0zm10 -155l-42 14c-8,3 -18,1 -25,-4l-1 -1c-8,-5 -12,-14 -12,-23l0 -45c0,-6 7,-11 13,-9 30,10 55,29 73,53 4,5 1,13 -6,15l0 0zm-143 -58l0 44c0,9 -5,18 -12,23l-1 1c-8,5 -17,7 -25,4l-43 -14c-6,-2 -9,-10 -5,-15 18,-25 44,-43 72,-53 7,-2 14,3 14,10l0 0zm-111 200c20,38 53,67 93,80 16,5 33,8 49,8 68,0 130,-43 152,-111 13,-40 10,-84 -9,-122 -20,-38 -53,-66 -93,-79 -84,-27 -174,19 -201,103 -14,40 -10,83 9,121z"/>
   <path class="fil11" d="M3924 3121c0,27 22,48 48,48 27,0 49,-21 49,-48 0,-27 -22,-49 -49,-49 -26,0 -48,22 -48,49z"/>
   <path class="fil12" d="M3927 3121c0,25 21,45 45,45 25,0 45,-20 45,-45 0,-25 -20,-45 -45,-45 -24,0 -45,20 -45,45zm-7 0c0,-29 24,-52 52,-52 29,0 52,23 52,52 0,29 -23,52 -52,52 -28,0 -52,-23 -52,-52z"/>
   <path class="fil14" d="M2316 2698l-108 0c-9,0 -16,-7 -16,-16 0,-8 7,-15 16,-15l108 0c9,0 16,7 16,15 0,9 -7,16 -16,16z"/>
   <path class="fil10" d="M1383 3215c0,43 -35,78 -78,78l-579 0c-44,0 -79,-35 -79,-78l0 -1421c0,-43 35,-78 79,-78l91 0 0 117 397 0 0 -117 91 0c43,0 78,35 78,78l0 1421 0 0zm-76 -1525l-584 0c-54,0 -98,44 -98,98l0 1433c0,54 44,98 98,98l584 0c55,0 99,-44 99,-98l0 -1433c0,-54 -44,-98 -99,-98z"/>
   <path class="fil10" d="M1069 1735c-4,0 -7,3 -7,7 0,4 3,7 7,7 4,0 7,-3 7,-7 0,-4 -3,-7 -7,-7zm-32 1l-76 0c-3,0 -6,3 -6,6 0,3 3,6 6,6l76 0c3,0 6,-3 6,-6 0,-3 -3,-6 -6,-6z"/>
   <path class="fil3" d="M1383 1794l0 1421c0,43 -35,78 -78,78l-580 0c-43,0 -78,-35 -78,-78l0 -1421c0,-43 35,-78 79,-78l126 0c6,0 10,4 10,9l0 16c0,17 14,30 31,30l245 0c17,0 30,-13 30,-30l0 -16c0,-5 5,-9 10,-9l127 0c43,0 78,35 78,78z"/>
   <path class="fil15" d="M902 2137l92 -242 151 75 -74 252 -10 -2 0 0 -159 -83zm481 152l0 18 -298 -64 52 213 -109 281 -54 138 -16 -6 90 -232 -159 -49 -86 323 -9 -2 89 -332 168 52 68 -174 -55 -223 -164 -86 -176 831 -10 -30 160 -762 -124 254 -60 377 -9 -2 61 -378 139 -285 2 -11 -236 -211 0 -22 1 -1 131 117 180 -252 22 0 -189 264 97 87 91 -241 136 -110 22 0c2,0 5,0 7,-1l-145 118 155 78 -75 258 303 65 0 0zm-218 -535c2,-4 3,-8 3,-13l0 -12 17 -13 28 0 -48 38z"/>
   <path class="fil3" d="M1128 3263l-225 0c-3,0 -5,-2 -5,-4 0,-3 2,-5 5,-5l225 0c3,0 5,2 5,5 0,2 -2,4 -5,4z"/>
   <polygon class="fil16" points="1383,1849 1406,1849 1406,1837 1383,1837 "/>
   <polygon class="fil16" points="1383,3172 1406,3172 1406,3160 1383,3160 "/>
   <polygon class="fil16" points="625,3172 647,3172 647,3160 625,3160 "/>
   <polygon class="fil15" points="1227,3293 1211,3293 1237,2818 1025,2744 1030,2729 1253,2807 "/>
   <polygon class="fil15" points="728,3296 723,3290 923,3115 795,2909 802,2905 933,3116 "/>
   <polygon class="fil15" points="996,3024 961,2871 977,2867 1005,2996 1240,2806 1250,2818 "/>
   <polygon class="fil15" points="1058,3293 993,3012 1008,3008 1074,3293 "/>
   <polygon class="fil15" points="1383,2758 1383,2779 1383,2799 1291,2573 1123,2458 1131,2445 1304,2563 "/>
   <polygon class="fil15" points="777,3240 681,2813 689,2812 785,3238 "/>
   <path class="fil2" d="M1157 2303c0,69 -126,281 -126,281 3,0 -125,-212 -125,-281 0,-69 56,-125 125,-125 69,0 126,56 126,125z"/>
   <path class="fil15" d="M1087 2303c0,31 -25,55 -56,55 -30,0 -55,-24 -55,-55 0,-31 25,-55 55,-55 31,0 56,24 56,55z"/>
   <path class="fil17" d="M4474 3040c55,-21 36,182 18,239 -17,56 -25,20 -31,-77 -6,-96 -9,-153 13,-162z"/>
   <path class="fil17" d="M4386 3036c57,-14 14,185 -9,238 -23,54 -25,17 -21,-79 5,-97 8,-154 30,-159z"/>
   <path class="fil17" d="M4465 2796c21,-6 42,7 46,29 4,16 8,58 8,88 -1,74 2,143 -25,158 -27,15 -61,-24 -69,-96 -7,-65 -25,-144 -8,-159 9,-7 30,-15 48,-20z"/>
   <path class="fil17" d="M4416 2799c20,-2 37,16 38,37 1,17 -2,59 -7,88 -12,71 -19,137 -46,146 -26,9 -52,-36 -48,-107 4,-64 -1,-146 17,-156 9,-5 29,-7 46,-8z"/>
   <path class="fil18" d="M4349 2735c0,0 2,290 3,315 2,26 -1,210 -1,210l40 -1c0,0 69,-394 65,-458 -5,-64 -107,-66 -107,-66l0 0z"/>
   <path class="fil2" d="M4533 2800c0,0 -13,214 -15,246 -2,32 -14,214 -14,214l-41 0c0,0 -26,-168 -30,-194 -5,-34 -29,-209 -31,-307 -2,-97 131,41 131,41l0 0z"/>
   <path class="fil17" d="M4423 2451c7,7 9,19 5,28 -15,43 -70,186 -103,177 -38,-11 18,-135 39,-169 18,-28 42,-53 59,-36l0 0z"/>
   <path class="fil17" d="M4334 2659c4,-7 4,-17 0,-24 -18,-39 -84,-177 -103,-176 -21,1 65,204 77,206 8,2 19,6 26,-6z"/>
   <path class="fil19" d="M4371 2245c0,0 -21,41 1,56l0 -1c0,0 29,-6 35,8 5,11 -2,20 3,26 7,10 20,-22 27,-20 7,3 13,11 4,25 -13,21 31,31 31,31l1 0c6,-9 57,-78 -2,-98 -63,-22 -83,-9 -100,-27l0 0z"/>
   <path class="fil17" d="M4372 2300l0 1 0 0c0,0 -19,85 4,100 23,15 42,2 42,2l4 36 56 -22 -6 -46 1 -1 -1 0c0,0 -44,-10 -31,-31 9,-14 3,-22 -4,-25 -7,-2 -20,30 -27,20 -5,-6 2,-15 -3,-26 -6,-14 -35,-8 -35,-8l0 0z"/>
   <path class="fil20" d="M4390 2451c0,0 -30,33 -49,71 -19,39 -20,54 -26,54 -5,-1 -48,-84 -48,-84l-38 17c0,0 55,166 88,165 33,0 95,-85 95,-85l-22 -138 0 0z"/>
   <path class="fil1" d="M4354 2711l0 -1 0 1zm53 -268c2,-5 4,-8 4,-11 -10,6 -28,19 -41,39 -21,31 -37,167 -37,219 0,13 1,25 2,36 -1,19 -1,88 23,89 22,0 80,7 104,5 36,0 69,-6 72,-10 6,-7 -9,-51 -9,-101 1,-49 8,-108 15,-200 4,-53 -23,-76 -41,-90 -3,1 -7,3 -11,5 4,-2 8,-4 11,-5 -11,-8 -18,-13 -22,-14 -10,9 -28,20 -57,23l0 0c0,0 -3,1 -9,4 0,3 -2,6 -4,11l0 0z"/>
   <path class="fil17" d="M4515 2450c9,5 14,15 13,25 -3,46 -16,199 -50,199 -39,0 -20,-135 -9,-173 8,-32 25,-63 46,-51z"/>
   <path class="fil17" d="M4473 2641c-9,1 -16,6 -20,13 -22,37 -99,169 -88,184 13,18 132,-168 128,-179 -4,-8 -6,-19 -20,-18z"/>
   <path class="fil21" d="M4352 3272c0,0 -8,11 -26,26 -19,14 -24,11 -24,16 0,5 77,0 77,0l0 -43 -27 1 0 0z"/>
   <path class="fil21" d="M4495 3269c0,0 -1,11 6,24 11,19 11,15 9,22 -3,7 -47,1 -47,1l4 -48c0,0 29,-1 28,1z"/>
   <path class="fil20" d="M4533 2508c0,0 -14,126 -33,157 -19,31 -89,142 -89,142l-40 -23c0,0 70,-129 75,-142 4,-13 12,-120 22,-155 10,-35 27,-50 47,-45 30,8 18,66 18,66z"/>
   <path class="fil17" d="M4344 2873c-5,-3 12,-28 16,-36l1 -2 -1 0c-3,2 -13,13 -18,9 -4,-3 8,-23 17,-30l1 -2c9,-6 15,-8 25,-4 17,7 1,34 -4,43 -5,8 -13,14 -20,18 -7,4 -14,6 -17,4z"/>
   <path class="fil17" d="M4251 2440c0,0 8,-3 8,2 1,5 0,21 0,21l-8 -23z"/>
   <polygon class="fil22" points="4196,2394 4223,2484 4265,2484 4237,2396 "/>
   <path class="fil17" d="M4206 2451c-1,-5 2,-9 6,-10 10,-2 26,-4 28,4 2,12 -1,34 -14,34 -11,1 -17,-10 -20,-28z"/>
   <path class="fil17" d="M1913 2796c-18,5 -29,25 -23,44 4,16 13,35 27,58 37,58 65,135 92,135 27,0 37,-48 12,-110 -23,-56 -43,-129 -63,-133 -10,-2 -29,2 -45,6l0 0z"/>
   <path class="fil17" d="M1898 3037c-20,-60 -158,142 -186,205 -28,64 10,34 81,-49 72,-84 113,-133 105,-156l0 0z"/>
   <path class="fil17" d="M2028 2999c-53,-32 -31,210 -12,277 18,68 29,20 31,-90 2,-109 2,-174 -19,-187z"/>
   <path class="fil17" d="M1879 2792c-20,-4 -39,9 -42,29 -3,16 -4,37 0,65 10,69 2,151 27,164 26,13 57,-25 61,-92 3,-61 17,-137 -1,-150 -8,-6 -28,-12 -45,-16l0 0z"/>
   <path class="fil10" d="M1831 2463c1,-37 -3,-79 31,-108 22,-22 48,-20 68,-14 16,4 23,21 26,36 5,25 1,51 -3,76 -1,13 -2,26 -2,40 0,10 1,21 2,31 1,8 0,16 -3,23 -4,8 -11,13 -20,13 -15,-1 -30,0 -45,0 -8,1 -16,1 -24,3 -11,3 -22,2 -32,-2 -16,-7 -28,-21 -36,-35 0,0 37,-18 38,-63z"/>
   <polygon class="fil17" points="1898,2511 1856,2500 1870,2452 1911,2464 "/>
   <path class="fil17" d="M1889 2468c0,0 27,17 35,10 9,-7 35,-55 26,-88 -10,-32 -50,-46 -73,-32 -23,13 -27,90 -11,99 16,9 23,11 23,11l0 0z"/>
   <path class="fil17" d="M2148 2438c6,14 30,0 37,-4 13,-8 22,-27 19,-32 -3,-5 -31,14 -33,14 -1,-1 11,-12 8,-16 -4,-4 -22,8 -27,16 -6,7 -8,13 -4,22z"/>
   <path class="fil17" d="M1847 2550c4,7 13,11 21,10 38,-3 166,-16 166,-44 0,-33 -113,-15 -145,-6 -27,8 -53,22 -42,40z"/>
   <path class="fil17" d="M1998 2514c1,-7 5,-13 11,-17 31,-18 143,-82 155,-72 15,10 -142,110 -151,106 -6,-3 -16,-5 -15,-17z"/>
   <path class="fil20" d="M1892 2565c0,0 95,-11 126,-28 26,-14 77,-49 77,-49l-18 -31c0,0 -64,37 -68,38 -4,2 -84,1 -112,9 -28,8 -62,20 -57,45 6,26 52,16 52,16l0 0z"/>
   <polygon class="fil23" points="2346,2324 2282,2577 2029,2513 2093,2260 "/>
   <polygon class="fil24" points="2287,2309 2222,2562 1969,2498 2034,2245 "/>
   <polygon class="fil25" points="2144,2272 2136,2302 2085,2289 2093,2260 "/>
   <polygon class="fil23" points="2241,2360 2134,2333 2138,2317 2245,2345 "/>
   <polygon class="fil23" points="2134,2460 2122,2508 1976,2471 1988,2423 "/>
   <polygon class="fil25" points="2119,2478 2059,2463 2062,2452 2122,2467 "/>
   <polygon class="fil24" points="2021,2474 1988,2466 1996,2433 2029,2441 "/>
   <polygon class="fil24" points="2325,2318 2318,2345 2301,2341 2308,2314 "/>
   <path class="fil17" d="M1873 2493c-14,-5 -29,1 -37,14 -10,17 -20,42 -17,74 5,56 35,65 35,122 0,58 -20,98 -17,105 3,6 133,14 143,-3 9,-16 -22,-70 -22,-115 0,-45 17,-54 13,-89 -3,-35 -41,-58 -65,-85 -9,-11 -21,-19 -33,-23l0 0z"/>
   <path class="fil26" d="M1987 2807c0,0 70,154 70,210 0,57 -8,250 -8,250l-44 1c0,0 -15,-216 -19,-227 -5,-11 -130,-127 -130,-224 0,-97 131,-10 131,-10l0 0z"/>
   <path class="fil27" d="M1830 2809c0,0 -21,31 -18,84 3,53 33,134 25,149 -8,15 -130,193 -130,193l33 30c0,0 177,-190 185,-218 8,-29 40,-201 40,-231 0,-30 -135,-7 -135,-7l0 0z"/>
   <path class="fil1" d="M1847 2488c4,-2 8,-2 13,-2 11,3 34,9 52,27 24,24 63,48 68,92 5,44 -19,53 -11,101 8,48 28,94 18,101 -9,8 -35,14 -75,13 -41,-1 -88,-1 -87,-14 1,-13 29,-68 19,-114 -9,-47 -29,-85 -29,-130 0,-40 15,-65 32,-74l0 0z"/>
   <path class="fil17" d="M2161 2523c3,15 28,6 37,3 14,-6 25,-23 23,-29 -2,-5 -32,10 -34,9 -2,-1 13,-10 10,-15 -2,-5 -23,4 -29,11 -7,7 -10,12 -7,21z"/>
   <path class="fil17" d="M1848 2540c0,9 6,16 14,19 35,16 153,67 167,42 16,-30 -92,-68 -125,-76 -27,-6 -56,-6 -56,15l0 0z"/>
   <path class="fil17" d="M2004 2589c1,-7 7,-13 13,-16 32,-15 149,-68 161,-57 13,12 -152,96 -160,91 -7,-3 -16,-6 -14,-18l0 0z"/>
   <path class="fil20" d="M1880 2576c0,0 106,44 135,39 30,-5 82,-40 82,-40l-15 -32c0,0 -61,28 -66,27 -4,0 -74,-40 -102,-46 -28,-7 -64,-12 -71,13 -8,25 37,39 37,39l0 0z"/>
   <path class="fil1" d="M2041 3282c0,0 9,9 27,21 18,13 23,9 23,14 1,5 -72,6 -72,6l-1 -41 23 0 0 0z"/>
   <path class="fil1" d="M1724 3268c0,0 -1,13 3,35 5,21 10,22 7,26 -3,4 -54,-48 -54,-48l28 -29 16 16z"/>
   <path class="fil10" d="M1861 2492l0 0 0 0c2,-38 -18,-86 -18,-86 0,0 22,-54 31,-59 6,-4 38,-5 38,-5l38 21 0 0c0,1 -4,10 -13,18l0 0c-2,3 -5,5 -9,7 -16,8 -40,21 -38,46 0,4 1,9 1,15 4,30 7,78 -38,93 0,0 9,-29 8,-50z"/>
   <polygon class="fil23" points="3361,2902 3685,2902 3685,2578 3361,2578 "/>
   <polygon class="fil24" points="3285,2902 3609,2902 3609,2578 3285,2578 "/>
   <polygon class="fil25" points="3361,2616 3426,2616 3426,2578 3361,2578 "/>
   <polygon class="fil23" points="3433,2654 3570,2654 3570,2634 3433,2634 "/>
   <polygon class="fil23" points="3285,2868 3472,2868 3472,2807 3285,2807 "/>
   <polygon class="fil25" points="3382,2833 3459,2833 3459,2819 3382,2819 "/>
   <polygon class="fil24" points="3298,2858 3339,2858 3339,2816 3298,2816 "/>
   <polygon class="fil24" points="3636,2612 3658,2612 3658,2578 3636,2578 "/>
   <polygon class="fil23" points="2553,3315 2877,3315 2877,2991 2553,2991 "/>
   <polygon class="fil24" points="2477,3315 2801,3315 2801,2991 2477,2991 "/>
   <polygon class="fil25" points="2553,3029 2618,3029 2618,2991 2553,2991 "/>
   <polygon class="fil23" points="2626,3067 2762,3067 2762,3047 2626,3047 "/>
   <polygon class="fil23" points="2477,3282 2664,3282 2664,3220 2477,3220 "/>
   <polygon class="fil25" points="2574,3246 2651,3246 2651,3232 2574,3232 "/>
   <polygon class="fil24" points="2490,3271 2532,3271 2532,3230 2490,3230 "/>
   <polygon class="fil24" points="2828,3026 2850,3026 2850,2991 2828,2991 "/>
   <polygon class="fil23" points="2915,3315 3239,3315 3239,2991 2915,2991 "/>
   <polygon class="fil24" points="2840,3315 3163,3315 3163,2991 2840,2991 "/>
   <polygon class="fil25" points="2915,3029 2980,3029 2980,2991 2915,2991 "/>
   <polygon class="fil23" points="2988,3067 3124,3067 3124,3047 2988,3047 "/>
   <polygon class="fil23" points="2840,3282 3026,3282 3026,3220 2840,3220 "/>
   <polygon class="fil25" points="2936,3246 3014,3246 3014,3232 2936,3232 "/>
   <polygon class="fil24" points="2852,3271 2894,3271 2894,3230 2852,3230 "/>
   <polygon class="fil24" points="3190,3026 3212,3026 3212,2991 3190,2991 "/>
   <polygon class="fil23" points="3373,3315 3785,3315 3785,2903 3373,2903 "/>
   <polygon class="fil24" points="3277,3315 3689,3315 3689,2903 3277,2903 "/>
   <polygon class="fil25" points="3373,2951 3456,2951 3456,2903 3373,2903 "/>
   <polygon class="fil23" points="3465,2999 3639,2999 3639,2974 3465,2974 "/>
   <polygon class="fil23" points="3277,3272 3514,3272 3514,3194 3277,3194 "/>
   <polygon class="fil25" points="3400,3228 3498,3228 3498,3209 3400,3209 "/>
   <polygon class="fil24" points="3293,3259 3346,3259 3346,3206 3293,3206 "/>
   <polygon class="fil24" points="3723,2946 3751,2946 3751,2903 3723,2903 "/>
   <polygon class="fil23" points="2767,2992 3038,2992 3038,2721 2767,2721 "/>
   <polygon class="fil24" points="2704,2992 2975,2992 2975,2721 2704,2721 "/>
   <polygon class="fil25" points="2767,2753 2822,2753 2822,2721 2767,2721 "/>
   <polygon class="fil23" points="2828,2784 2942,2784 2942,2768 2828,2768 "/>
   <polygon class="fil23" points="2704,2964 2860,2964 2860,2912 2704,2912 "/>
   <polygon class="fil25" points="2785,2934 2850,2934 2850,2922 2785,2922 "/>
   <polygon class="fil24" points="2715,2955 2749,2955 2749,2920 2715,2920 "/>
   <polygon class="fil24" points="2997,2750 3016,2750 3016,2721 2997,2721 "/>
   <path class="fil21" d="M4677 3279c-7,-30 9,-63 -6,-90 -13,-23 -43,-27 -67,-39 -39,-18 -65,-62 -60,-104 2,-17 8,-33 12,-49 9,-31 10,-65 4,-97 -2,-7 -4,-16 -1,-23 3,-11 16,-16 27,-15 11,1 21,7 29,14 25,20 41,49 46,80 2,14 2,28 5,41 14,56 79,85 95,140 9,30 2,61 -1,92 -4,30 -2,65 20,86 6,5 -5,11 -19,15 -16,0 -31,0 -46,-1 -17,-11 -34,-33 -38,-50l0 0z"/>
   <path class="fil4" d="M4746 3330c-26,-33 -40,-72 -41,-113 -1,-9 0,-18 1,-27 2,-11 3,-22 2,-33 -2,-18 -25,-31 -45,-42 -9,-4 -16,-9 -22,-13 -24,-18 -38,-39 -41,-62 -1,-13 1,-26 4,-40 1,-8 3,-17 3,-25 1,-22 -5,-47 -18,-68 -2,-3 -1,-7 2,-8 3,-2 7,-1 8,2 14,23 22,50 21,75 -1,9 -3,18 -4,27 -3,12 -5,25 -4,36 3,24 21,42 36,53 5,4 13,8 21,12 21,12 48,27 51,52 1,12 0,24 -1,35 -1,9 -2,18 -2,26 1,40 16,78 42,109 1,1 2,2 2,4 -5,0 -10,0 -15,0l0 0z"/>
   <path class="fil21" d="M4854 3259c0,-30 -24,-59 -16,-88 7,-25 35,-37 56,-54 33,-27 48,-76 33,-116 -6,-16 -16,-30 -24,-44 -16,-29 -25,-61 -26,-93 -1,-8 -1,-17 -5,-23 -6,-10 -20,-12 -30,-9 -11,4 -19,12 -26,21 -18,26 -27,58 -24,89 1,14 4,28 5,41 0,57 -57,102 -59,159 -2,31 13,60 24,88 11,29 17,64 1,90 -4,6 6,8 19,9 2,0 4,0 7,0 7,-1 15,-1 23,-2 5,-1 8,-2 10,-3 18,-13 32,-44 32,-65l0 0z"/>
   <path class="fil4" d="M4785 3329c0,-2 0,-3 1,-4 18,-37 23,-77 14,-116 -2,-8 -4,-16 -8,-25 -4,-10 -8,-22 -9,-34 -4,-24 19,-45 37,-62 7,-6 13,-12 17,-17 12,-15 25,-37 22,-60 -2,-12 -7,-23 -12,-34 -4,-9 -8,-17 -10,-26 -7,-23 -7,-52 1,-77 1,-4 4,-6 8,-5 3,1 5,5 4,8 -7,24 -8,50 -2,71 3,8 6,15 10,23 5,12 11,25 13,38 3,22 -6,46 -24,70 -5,5 -12,11 -19,18 -16,16 -36,34 -33,52 1,10 5,20 9,31 3,8 6,17 8,26 9,41 4,83 -14,122 -3,0 -6,0 -9,1 -2,0 -3,0 -4,0l0 0z"/>
   <path class="fil27" d="M4857 3203c12,-52 5,-108 -31,-153 -16,-20 -37,-36 -46,-60 -17,-43 -10,-91 6,-133 14,-38 31,-81 1,-116 -29,-33 -86,-12 -86,32l0 1c-1,31 2,64 -6,94 -10,45 -44,91 -22,137 18,35 51,63 64,101 7,22 2,41 0,63 -3,43 -13,122 15,161 11,0 22,-1 33,-1 6,-6 11,-12 14,-16 28,-30 49,-69 58,-110l0 0z"/>
   <path class="fil4" d="M4752 3330c0,-1 1,-1 1,-1 4,-14 11,-30 18,-47 23,-57 53,-128 23,-186 -9,-16 -22,-30 -36,-45 -22,-23 -45,-48 -47,-83 -2,-25 8,-49 17,-72 4,-11 8,-22 11,-33 9,-30 12,-65 14,-94 0,-3 3,-6 6,-6 4,1 6,4 6,7 -2,30 -5,65 -14,96 -3,12 -8,23 -12,34 -8,23 -17,45 -16,67 2,31 22,53 44,76 14,14 28,30 38,47 32,63 2,137 -23,197 -6,15 -12,30 -17,42 -4,1 -8,1 -13,1l0 0z"/>
   <polygon class="fil23" points="4840,3316 5164,3316 5164,2992 4840,2992 "/>
   <polygon class="fil24" points="4764,3316 5088,3316 5088,2992 4764,2992 "/>
   <polygon class="fil25" points="4840,3030 4905,3030 4905,2992 4840,2992 "/>
   <polygon class="fil23" points="4912,3068 5049,3068 5049,3048 4912,3048 "/>
   <polygon class="fil23" points="4764,3283 4951,3283 4951,3221 4764,3221 "/>
   <polygon class="fil25" points="4861,3247 4938,3247 4938,3233 4861,3233 "/>
   <polygon class="fil24" points="4777,3272 4818,3272 4818,3231 4777,3231 "/>
   <polygon class="fil24" points="5115,3027 5137,3027 5137,2992 5115,2992 "/>
   <polygon class="fil23" points="5237,3316 5650,3316 5650,2904 5237,2904 "/>
   <polygon class="fil24" points="5141,3316 5553,3316 5553,2904 5141,2904 "/>
   <polygon class="fil25" points="5237,2952 5320,2952 5320,2904 5237,2904 "/>
   <polygon class="fil23" points="5330,3000 5504,3000 5504,2975 5330,2975 "/>
   <polygon class="fil23" points="5141,3273 5378,3273 5378,3195 5141,3195 "/>
   <polygon class="fil25" points="5264,3228 5362,3228 5362,3210 5264,3210 "/>
   <polygon class="fil24" points="5157,3260 5210,3260 5210,3207 5157,3207 "/>
   <polygon class="fil24" points="5587,2947 5616,2947 5616,2904 5587,2904 "/>
   <path class="fil21" d="M641 1052l-191 0c-31,0 -56,-25 -56,-56l0 -191c0,-31 25,-57 56,-57l191 0c31,0 56,26 56,57l0 191c0,31 -25,56 -56,56z"/>
   <path class="fil28" d="M542 888c-7,0 -13,6 -13,13l0 209c0,7 6,13 13,13l209 0c7,0 12,-6 12,-13l0 -209c0,-7 -5,-13 -12,-13l-209 0zm209 282l-209 0c-34,0 -61,-27 -61,-60l0 -209c0,-33 27,-60 61,-60l209 0c33,0 60,27 60,60l0 209c0,33 -27,60 -60,60z"/>
   <path class="fil21" d="M5244 1479l145 0c24,0 43,-19 43,-42l0 -145c0,-24 -19,-43 -43,-43l-145 0c-24,0 -43,19 -43,43l0 145c0,23 19,42 43,42z"/>
   <path class="fil28" d="M5161 1355c-6,0 -10,4 -10,10l0 158c0,6 4,10 10,10l158 0c6,0 10,-4 10,-10l0 -158c0,-6 -4,-10 -10,-10l-158 0zm158 214l-158 0c-26,0 -46,-20 -46,-46l0 -158c0,-26 20,-46 46,-46l158 0c26,0 46,20 46,46l0 158c0,26 -20,46 -46,46z"/>
   <path class="fil28" d="M3013 586c2,2 6,2 8,0l72 -72c2,-2 2,-6 0,-8l-72 -72c-2,-3 -6,-3 -8,0l-72 72c-3,2 -3,6 0,8l72 72zm4 26c-8,0 -16,-3 -21,-9l-73 -72c-5,-5 -9,-13 -9,-21 0,-8 4,-16 9,-22l73 -72c11,-11 31,-11 42,0l73 72c11,12 11,31 0,43l-73 72c-6,6 -13,9 -21,9z"/>
   <path class="fil28" d="M5574 1654l-4 1 -62 63c-2,2 -2,5 0,7l62 63c2,1 5,1 7,0l63 -63c2,-2 2,-5 0,-7l-63 -63 -3 -1zm0 156c-7,0 -14,-2 -19,-7l-63 -63c-10,-10 -10,-27 0,-37l63 -63c10,-10 27,-10 37,0l63 63c10,10 10,27 0,37l-63 63c-5,5 -11,7 -18,7z"/>
   <path class="fil2" d="M1126 421c0,20 -16,37 -37,37 -21,0 -37,-17 -37,-37 0,-21 16,-37 37,-37 21,0 37,16 37,37z"/>
   <path class="fil2" d="M4716 679c0,22 -18,40 -40,40 -22,0 -40,-18 -40,-40 0,-22 18,-40 40,-40 22,0 40,18 40,40z"/>
   <path class="fil21" d="M3928 483c0,25 -21,46 -46,46 -26,0 -46,-21 -46,-46 0,-25 20,-46 46,-46 25,0 46,21 46,46z"/>
   <path class="fil21" d="M1704 827c0,25 -21,46 -46,46 -25,0 -46,-21 -46,-46 0,-25 21,-46 46,-46 25,0 46,21 46,46z"/>
   <path class="fil29" d="M757 1631c0,18 -15,33 -33,33 -19,0 -34,-15 -34,-33 0,-18 15,-33 34,-33 18,0 33,15 33,33z"/>
   <path class="fil30" d="M1486 559c0,8 -6,15 -14,15 -8,0 -15,-7 -15,-15 0,-8 7,-14 15,-14 8,0 14,6 14,14z"/>
   <path class="fil6" d="M2495 1687l-796 0c-14,0 -26,-11 -26,-26l0 -430c0,-15 12,-27 26,-27l796 0c15,0 27,12 27,27l0 430c0,15 -12,26 -27,26z"/>
   <polygon class="fil1" points="1673,1363 2522,1363 2522,1271 1673,1271 "/>
   <path class="fil31" d="M2477 1548c0,44 -35,79 -79,79 -43,0 -78,-35 -78,-79 0,-43 35,-78 78,-78 44,0 79,35 79,78z"/>
   <polygon class="fil13" points="1717,1440 1878,1440 1878,1408 1717,1408 "/>
   <polygon class="fil13" points="1917,1440 2078,1440 2078,1408 1917,1408 "/>
   <polygon class="fil13" points="2117,1440 2278,1440 2278,1408 2117,1408 "/>
   <polygon class="fil13" points="2316,1440 2477,1440 2477,1408 2316,1408 "/>
   <polygon class="fil3" points="1717,1574 1878,1574 1878,1525 1717,1525 "/>
   <polygon class="fil3" points="1919,1574 2080,1574 2080,1525 1919,1525 "/>
   <polygon class="fil3" points="2120,1574 2281,1574 2281,1525 2120,1525 "/>
   <polygon class="fil32" points="1787,263 1586,253 1631,180 1731,208 "/>
   <polygon class="fil33" points="1719,95 1787,263 1677,216 1276,214 "/>
   <polygon class="fil2" points="1747,0 1719,95 1276,214 "/>
   <polygon class="fil2" points="1677,216 1645,365 1276,214 "/>
   <path class="fil1" d="M3860 1777c-5,-1 -10,-2 -15,-4l5 -15c5,2 10,3 15,5l-5 14z"/>
   <path class="fil1" d="M2370 220l-31 0 0 -16 31 1 0 15zm-124 0l0 -15c10,0 21,0 31,-1l0 16c-10,0 -20,0 -31,0zm217 1l-31 0 0 -16 31 1 0 15zm-310 1l0 -15c10,0 21,-1 31,-1l0 15c-10,1 -20,1 -31,1zm403 1l-31 -1 0 -15 31 0 0 16zm93 3c-11,-1 -21,-1 -31,-2l0 -15c11,0 21,1 31,1l0 16zm-588 1l-1 -16c10,0 21,-1 31,-1l1 15c-11,0 -21,1 -31,2zm680 4c-10,-1 -20,-2 -30,-2l0 -16c11,1 21,2 32,2l-2 16zm-773 3l-1 -16c10,-1 21,-2 31,-2l1 15c-10,1 -20,2 -31,3zm866 5c-10,-1 -21,-2 -31,-3l1 -16c11,1 21,2 31,3l-1 16zm-958 5l-2 -15c11,-2 21,-3 31,-4l2 15c-10,1 -21,3 -31,4zm1050 6c-10,-2 -20,-3 -31,-4l2 -16c11,2 21,3 31,4l-2 16zm91 14c-10,-2 -20,-3 -30,-5l3 -15c10,1 20,3 30,5l-3 15zm91 19c-10,-2 -20,-4 -30,-7l3 -15c10,2 20,5 31,7l-4 15zm90 24c-10,-3 -20,-6 -30,-9l4 -15c10,3 20,6 30,9l-4 15zm87 28c-9,-3 -19,-7 -29,-10l5 -14c10,3 20,6 30,10l-6 14zm86 35c-9,-5 -19,-9 -28,-13l6 -14c9,4 19,8 29,12l-7 15zm83 40c-9,-5 -18,-10 -27,-14l7 -14c9,5 18,9 28,14l-8 14zm80 47c-9,-6 -17,-11 -26,-17l8 -13c9,5 18,11 26,17l-8 13zm75 53c-8,-7 -16,-13 -24,-19l9 -12c8,6 16,12 25,19l-10 12zm68 62c-7,-7 -14,-14 -22,-21l11 -11c7,7 15,14 22,21l-11 11zm62 69c-7,-8 -13,-16 -20,-24l12 -10c6,8 13,16 20,25l-12 9zm51 76c-5,-9 -10,-18 -16,-26l13 -9c6,9 12,18 17,27l-14 8zm35 83c-2,-9 -5,-19 -9,-28l15 -6c4,11 7,21 9,31l-15 3zm18 92l-15 -3c2,-10 4,-19 4,-29l16 0c-1,11 -2,22 -5,32zm-49 83l-11 -12c8,-7 14,-14 20,-22l12 10c-6,8 -13,16 -21,24zm-79 52l-7 -14c10,-5 18,-9 27,-14l7 13c-8,5 -17,10 -27,15zm-86 37l-6 -14c8,-3 15,-7 23,-10l6 -2 5 14 -5 2c-8,4 -15,7 -23,10zm-82 42l-8 -13c8,-6 17,-11 27,-16l7 13c-9,5 -18,10 -26,16zm-64 62l-12 -9c1,-2 3,-5 5,-8 5,-6 10,-11 14,-17l12 11c-5,5 -9,10 -13,15 -2,3 -4,5 -6,8zm-37 82l-15 -4c3,-10 6,-21 10,-30l14 5c-3,9 -6,19 -9,29zm-19 91c-1,-10 -2,-21 -2,-32l15 0c0,10 1,20 2,30l-15 2zm26 91c-3,-7 -6,-14 -8,-21 -1,-3 -2,-5 -3,-8l15 -5c0,2 1,5 2,7 3,7 6,14 9,21l-15 6zm46 83c-6,-9 -11,-18 -17,-27l14 -8c5,9 10,18 16,26l-13 9zm60 73c-8,-8 -15,-16 -21,-24l11 -10c7,8 14,16 21,23l-11 11zm68 64c-8,-7 -16,-14 -23,-20l10 -12c7,7 15,13 23,20l-10 12zm77 54c-9,-5 -18,-11 -26,-17l8 -12c9,5 17,11 26,16l-8 13zm83 44c-10,-4 -19,-8 -28,-13l6 -14c10,5 19,9 28,13l-6 14z"/>
   <polygon class="fil1" points="1799,255 1797,240 1812,238 1814,253 "/>
   <path class="fil2" d="M342 3046c0,0 261,18 246,-293 -15,-311 -108,-589 -228,-608 -119,-19 -189,295 -209,449 -19,154 -18,436 155,452l36 0z"/>
   <polygon class="fil10" points="521,2755 510,2744 374,2880 374,2700 506,2567 494,2555 374,2677 374,2516 454,2439 442,2428 374,2494 374,2332 358,2332 358,2396 306,2345 295,2356 358,2419 358,2580 225,2446 214,2458 358,2603 358,2783 224,2647 212,2659 358,2806 358,3322 374,3322 374,2903 "/>
   <polygon class="fil34" points="85,3334 5790,3334 5790,3317 85,3317 "/>
  </g>
 </g>
</svg>
